<?xml version="1.0" standalone="no"?>
<!DOCTYPE svg PUBLIC "-//W3C//DTD SVG 1.1//EN" "http://www.w3.org/Graphics/SVG/1.1/DTD/svg11.dtd" >
<svg xmlns="http://www.w3.org/2000/svg" xmlns:xlink="http://www.w3.org/1999/xlink" version="1.1">
<metadata></metadata>
<defs>
<font id="blessed_dayregular" horiz-adv-x="2441" >
<font-face units-per-em="2048" ascent="1638" descent="-410" />
<missing-glyph horiz-adv-x="339" />
<glyph horiz-adv-x="0" />
<glyph horiz-adv-x="682" />
<glyph unicode=" "  horiz-adv-x="339" />
<glyph unicode="&#x09;" horiz-adv-x="339" />
<glyph unicode="&#xa0;" horiz-adv-x="339" />
<glyph unicode="(" horiz-adv-x="208" d="M-2560 -129q9 36 59 100q53 68 56 125q3 45 -2 66q11 7 53 16q278 62 625 62q105 0 249 -7q82 -3 602 -59q222 -22 379 -22q439 0 617 184q67 70 67 104q0 20 -18 29q-11 6 -42.5 -7.5t-45.5 -27.5q-28 -28 -41 -8l-10 16q-7 16 12 35q66 60 127 60q82 0 82 -88 q0 -73 -113 -189q-169 -178 -420 -225q-144 -27 -364 -27q-145 0 -301 8l-260 13q-390 9 -602 -6q-339 -24 -539 -82q-94 -27 -170 -70z" />
<glyph unicode=")" horiz-adv-x="208" d="M-2560 -129q9 36 59 100q53 68 56 125q3 45 -2 66q11 7 53 16q278 62 625 62q105 0 249 -7q82 -3 602 -59q222 -22 379 -22q439 0 617 184q67 70 67 104q0 20 -18 29q-11 6 -42.5 -7.5t-45.5 -27.5q-28 -28 -41 -8l-10 16q-7 16 12 35q66 60 127 60q82 0 82 -88 q0 -73 -113 -189q-169 -178 -420 -225q-144 -27 -364 -27q-145 0 -301 8l-260 13q-390 9 -602 -6q-339 -24 -539 -82q-94 -27 -170 -70z" />
<glyph unicode="0" d="M0 375l14 22h62q71 0 71 -75q0 -40 -28 -56q35 -12 35 -65q0 -78 -64 -78h-76v233zM14 2v57h15v-22h43v22h12v-57h-12v25h-43v-25h-15zM59 164h17q33 0 33 39q0 43 -33 43h-17v-82zM59 285h17q28 0 28 37q0 34 -28 34h-17v-71zM102 49v10h68v-10h-27v-47h-14v47h-27z M176 49v10h68v-10h-29v-47h-12v47h-27zM188 123v274h43v-274l-22 -14zM260 2v57h51q15 0 15 -12v-12q0 -10 -15 -10h-37v-23h-14zM268 123v274l19 17l22 -17v-233h72v-41h-113zM274 35h31q6 0 6 4v6q0 4 -6 4h-31v-14zM344 4v19h21v-21h-19zM344 39v18q2 2 6 2h10q3 0 5 -2 v-18h-21zM373 0l35 74h8l-35 -74h-8zM410 0l34 74h9l-35 -74h-8zM410 123v274l18 17l23 -17v-233h71v-41h-112zM463 2v57h51q12 0 12 -12v-6q0 -7 -10 -10q10 -3 10 -11v-8q0 -10 -16 -10h-47zM475 12h33q6 0 6 4v7q0 4 -6 4h-33v-15zM475 37h33q6 0 6 4v4q0 4 -6 4h-33v-12 zM500 397h45l30 -98l31 98h45l-55 -159v-115h-41v115zM551 2v57h12v-57h-12zM561 1198l426 47l180 393l174 -391l431 -49l-318 -287l88 -424l-373 213l-376 -213l88 418zM590 2v57h12v-47h45v-10h-57zM662 2v57h14v-47h45v-10h-59zM709 123l45 274h57l47 -274l-22 -12 l-23 12l-8 63h-43l-10 -63l-23 -12zM713 59h18l19 -22l20 22h16l-30 -30v-27h-13v25zM768 227h31l-17 107zM784 2l33 57h14l33 -57h-14l-8 12h-37l-6 -12h-15zM811 25h27l-15 24zM879 2v57h51q12 0 12 -12v-12q0 -12 -12 -12h-8l26 -21h-18l-25 21h-12v-21h-14zM879 377 l14 20h63q66 0 66 -65v-39q0 -29 -23 -49l31 -121h-45l-24 104h-27v-104h-41v235zM893 33h31q6 0 6 4v8q0 4 -6 4h-31v-16zM934 268h24q23 0 23 23v41q0 22 -23 22h-24v-86zM965 16v29q0 14 14 14h41q14 0 14 -14l-14 -2v4h-43v-35h43v13h-23v10h37v-19q0 -14 -14 -14h-41 q-14 0 -14 14zM1004 727l47 -29l45 29l22 135h92l21 -135l49 -29l45 29l-98 592h-123zM1057 2v57h61v-10h-47v-12h27v-10h-27v-15h47v-10h-61zM1059 184v150q0 67 65 67q66 0 66 -67v-31h-43v33q0 24 -23 24q-24 0 -24 -24v-150q0 -24 24 -24q23 0 23 24v54h-23l-16 18 l16 23h66v-97q0 -65 -66 -65q-65 0 -65 65zM1130 950l33 234l35 -234h-68zM1139 2v57h14v-47h43v-10h-57zM1210 6v12q0 3 2 5h19v-21h-17q-4 0 -4 4zM1212 377l15 20h116v-41h-75v-75h55v-41h-55v-76h75v-41h-116v233zM1255 2v57h52q12 0 12 -12v-6q0 -7 -8 -10 q10 -3 10 -11v-8q0 -10 -18 -10h-48zM1270 12h30q7 0 7 4v7q0 4 -7 4h-30v-15zM1270 37h30q7 0 7 4v4q0 4 -7 4h-30v-12zM1343 2v57h15v-47h43v-10h-58zM1372 123v274l21 17l20 -17v-233h72v-41h-113zM1415 16v29q0 14 15 14h45q14 0 14 -14v-29q0 -14 -14 -14h-45 q-15 0 -15 14zM1430 12h45v35h-45v-35zM1511 16v29q0 14 15 14h41q14 0 14 -14l-14 -2v4h-43v-35h43v13h-23v10h37v-19q0 -14 -14 -14h-41q-15 0 -15 14zM1528 377l14 20h117v-41h-76v-75h55v-41h-55v-117h-41v233zM1604 16l10 2v-6h43v13h-37q-14 0 -14 14v6q0 14 14 14h33 q14 0 14 -12v-2l-10 -2v6h-39v-12h37q14 0 14 -14v-7q0 -14 -14 -14h-37q-14 0 -14 14zM1688 186v150q0 65 65 65q66 0 66 -65v-150q0 -65 -66 -65q-65 0 -65 65zM1692 2v57h51q14 0 14 -12v-12q0 -10 -14 -10h-37v-23h-14zM1706 35h31q6 0 6 4v6q0 4 -6 4h-31v-14z M1729 186q0 -24 24 -24q23 0 23 24v150q0 24 -23 24q-24 0 -24 -24v-150zM1776 16v29q0 14 14 14h43q14 0 14 -14v-29q0 -14 -14 -14h-43q-14 0 -14 14zM1788 12h45v35h-45v-35zM1841 377l14 20h48l53 -184v184h43v-274h-45l-58 176v-176h-41v235zM1864 49v10h67v-10h-26 v-47h-15v47h-26zM1950 4v19h18q2 -2 2 -5v-12q0 -2 -2 -4h-16q-2 0 -2 2zM1993 16v29q0 14 14 14h35q14 0 14 -14v-6l-12 -2v10h-37v-35h37v13l12 -2v-7q0 -14 -14 -14h-35q-14 0 -14 14zM2032 356v41h129v-41h-45v-233l-21 -14l-20 14v233h-43zM2079 16v29q0 14 14 14h43 q14 0 14 -14v-29q0 -14 -14 -14h-43q-14 0 -14 14zM2091 12h47v35h-47v-35zM2175 2v57h10l29 -34l27 34h10v-57h-13v39l-24 -33h-2l-27 33v-39h-10zM2189 199l17 14l22 -12q3 -43 29 -43q27 3 27 32q0 18 -33 54q-25 22 -47 47q-11 26 -11 41q0 69 64 69q62 0 65 -63l-38 -8 q-3 35 -27 35q-21 0 -21 -31q0 -20 54 -74q34 -34 34 -67q3 -72 -65 -72q-67 0 -70 78zM2261 0l35 74h8l-35 -74h-8z" />
<glyph unicode="1" d="M0 375l14 22h62q71 0 71 -75q0 -40 -28 -56q35 -12 35 -65q0 -78 -64 -78h-76v233zM14 2v57h15v-22h43v22h12v-57h-12v25h-43v-25h-15zM59 164h17q33 0 33 39q0 43 -33 43h-17v-82zM59 285h17q28 0 28 37q0 34 -28 34h-17v-71zM102 49v10h68v-10h-27v-47h-14v47h-27z M176 49v10h68v-10h-29v-47h-12v47h-27zM188 123v274h43v-274l-22 -14zM260 2v57h51q15 0 15 -12v-12q0 -10 -15 -10h-37v-23h-14zM268 123v274l19 17l22 -17v-233h72v-41h-113zM274 35h31q6 0 6 4v6q0 4 -6 4h-31v-14zM344 4v19h21v-21h-19zM344 39v18q2 2 6 2h10q3 0 5 -2 v-18h-21zM373 0l35 74h8l-35 -74h-8zM410 0l34 74h9l-35 -74h-8zM410 123v274l18 17l23 -17v-233h71v-41h-112zM463 2v57h51q12 0 12 -12v-6q0 -7 -10 -10q10 -3 10 -11v-8q0 -10 -16 -10h-47zM475 12h33q6 0 6 4v7q0 4 -6 4h-33v-15zM475 37h33q6 0 6 4v4q0 4 -6 4h-33v-12 zM500 397h45l30 -98l31 98h45l-55 -159v-115h-41v115zM551 2v57h12v-57h-12zM561 1198l426 47l180 393l174 -391l431 -49l-318 -287l88 -424l-373 213l-376 -213l88 418zM590 2v57h12v-47h45v-10h-57zM662 2v57h14v-47h45v-10h-59zM709 123l45 274h57l47 -274l-22 -12 l-23 12l-8 63h-43l-10 -63l-23 -12zM713 59h18l19 -22l20 22h16l-30 -30v-27h-13v25zM768 227h31l-17 107zM784 2l33 57h14l33 -57h-14l-8 12h-37l-6 -12h-15zM811 25h27l-15 24zM879 2v57h51q12 0 12 -12v-12q0 -12 -12 -12h-8l26 -21h-18l-25 21h-12v-21h-14zM879 377 l14 20h63q66 0 66 -65v-39q0 -29 -23 -49l31 -121h-45l-24 104h-27v-104h-41v235zM893 33h31q6 0 6 4v8q0 4 -6 4h-31v-16zM934 268h24q23 0 23 23v41q0 22 -23 22h-24v-86zM965 16v29q0 14 14 14h41q14 0 14 -14l-14 -2v4h-43v-35h43v13h-23v10h37v-19q0 -14 -14 -14h-41 q-14 0 -14 14zM1004 727l47 -29l45 29l22 135h92l21 -135l49 -29l45 29l-98 592h-123zM1057 2v57h61v-10h-47v-12h27v-10h-27v-15h47v-10h-61zM1059 184v150q0 67 65 67q66 0 66 -67v-31h-43v33q0 24 -23 24q-24 0 -24 -24v-150q0 -24 24 -24q23 0 23 24v54h-23l-16 18 l16 23h66v-97q0 -65 -66 -65q-65 0 -65 65zM1130 950l33 234l35 -234h-68zM1139 2v57h14v-47h43v-10h-57zM1210 6v12q0 3 2 5h19v-21h-17q-4 0 -4 4zM1212 377l15 20h116v-41h-75v-75h55v-41h-55v-76h75v-41h-116v233zM1255 2v57h52q12 0 12 -12v-6q0 -7 -8 -10 q10 -3 10 -11v-8q0 -10 -18 -10h-48zM1270 12h30q7 0 7 4v7q0 4 -7 4h-30v-15zM1270 37h30q7 0 7 4v4q0 4 -7 4h-30v-12zM1343 2v57h15v-47h43v-10h-58zM1372 123v274l21 17l20 -17v-233h72v-41h-113zM1415 16v29q0 14 15 14h45q14 0 14 -14v-29q0 -14 -14 -14h-45 q-15 0 -15 14zM1430 12h45v35h-45v-35zM1511 16v29q0 14 15 14h41q14 0 14 -14l-14 -2v4h-43v-35h43v13h-23v10h37v-19q0 -14 -14 -14h-41q-15 0 -15 14zM1528 377l14 20h117v-41h-76v-75h55v-41h-55v-117h-41v233zM1604 16l10 2v-6h43v13h-37q-14 0 -14 14v6q0 14 14 14h33 q14 0 14 -12v-2l-10 -2v6h-39v-12h37q14 0 14 -14v-7q0 -14 -14 -14h-37q-14 0 -14 14zM1688 186v150q0 65 65 65q66 0 66 -65v-150q0 -65 -66 -65q-65 0 -65 65zM1692 2v57h51q14 0 14 -12v-12q0 -10 -14 -10h-37v-23h-14zM1706 35h31q6 0 6 4v6q0 4 -6 4h-31v-14z M1729 186q0 -24 24 -24q23 0 23 24v150q0 24 -23 24q-24 0 -24 -24v-150zM1776 16v29q0 14 14 14h43q14 0 14 -14v-29q0 -14 -14 -14h-43q-14 0 -14 14zM1788 12h45v35h-45v-35zM1841 377l14 20h48l53 -184v184h43v-274h-45l-58 176v-176h-41v235zM1864 49v10h67v-10h-26 v-47h-15v47h-26zM1950 4v19h18q2 -2 2 -5v-12q0 -2 -2 -4h-16q-2 0 -2 2zM1993 16v29q0 14 14 14h35q14 0 14 -14v-6l-12 -2v10h-37v-35h37v13l12 -2v-7q0 -14 -14 -14h-35q-14 0 -14 14zM2032 356v41h129v-41h-45v-233l-21 -14l-20 14v233h-43zM2079 16v29q0 14 14 14h43 q14 0 14 -14v-29q0 -14 -14 -14h-43q-14 0 -14 14zM2091 12h47v35h-47v-35zM2175 2v57h10l29 -34l27 34h10v-57h-13v39l-24 -33h-2l-27 33v-39h-10zM2189 199l17 14l22 -12q3 -43 29 -43q27 3 27 32q0 18 -33 54q-25 22 -47 47q-11 26 -11 41q0 69 64 69q62 0 65 -63l-38 -8 q-3 35 -27 35q-21 0 -21 -31q0 -20 54 -74q34 -34 34 -67q3 -72 -65 -72q-67 0 -70 78zM2261 0l35 74h8l-35 -74h-8z" />
<glyph unicode="2" d="M0 375l14 22h62q71 0 71 -75q0 -40 -28 -56q35 -12 35 -65q0 -78 -64 -78h-76v233zM14 2v57h15v-22h43v22h12v-57h-12v25h-43v-25h-15zM59 164h17q33 0 33 39q0 43 -33 43h-17v-82zM59 285h17q28 0 28 37q0 34 -28 34h-17v-71zM102 49v10h68v-10h-27v-47h-14v47h-27z M176 49v10h68v-10h-29v-47h-12v47h-27zM188 123v274h43v-274l-22 -14zM260 2v57h51q15 0 15 -12v-12q0 -10 -15 -10h-37v-23h-14zM268 123v274l19 17l22 -17v-233h72v-41h-113zM274 35h31q6 0 6 4v6q0 4 -6 4h-31v-14zM344 4v19h21v-21h-19zM344 39v18q2 2 6 2h10q3 0 5 -2 v-18h-21zM373 0l35 74h8l-35 -74h-8zM410 0l34 74h9l-35 -74h-8zM410 123v274l18 17l23 -17v-233h71v-41h-112zM463 2v57h51q12 0 12 -12v-6q0 -7 -10 -10q10 -3 10 -11v-8q0 -10 -16 -10h-47zM475 12h33q6 0 6 4v7q0 4 -6 4h-33v-15zM475 37h33q6 0 6 4v4q0 4 -6 4h-33v-12 zM500 397h45l30 -98l31 98h45l-55 -159v-115h-41v115zM551 2v57h12v-57h-12zM561 1198l426 47l180 393l174 -391l431 -49l-318 -287l88 -424l-373 213l-376 -213l88 418zM590 2v57h12v-47h45v-10h-57zM662 2v57h14v-47h45v-10h-59zM709 123l45 274h57l47 -274l-22 -12 l-23 12l-8 63h-43l-10 -63l-23 -12zM713 59h18l19 -22l20 22h16l-30 -30v-27h-13v25zM768 227h31l-17 107zM784 2l33 57h14l33 -57h-14l-8 12h-37l-6 -12h-15zM811 25h27l-15 24zM879 2v57h51q12 0 12 -12v-12q0 -12 -12 -12h-8l26 -21h-18l-25 21h-12v-21h-14zM879 377 l14 20h63q66 0 66 -65v-39q0 -29 -23 -49l31 -121h-45l-24 104h-27v-104h-41v235zM893 33h31q6 0 6 4v8q0 4 -6 4h-31v-16zM934 268h24q23 0 23 23v41q0 22 -23 22h-24v-86zM965 16v29q0 14 14 14h41q14 0 14 -14l-14 -2v4h-43v-35h43v13h-23v10h37v-19q0 -14 -14 -14h-41 q-14 0 -14 14zM1004 727l47 -29l45 29l22 135h92l21 -135l49 -29l45 29l-98 592h-123zM1057 2v57h61v-10h-47v-12h27v-10h-27v-15h47v-10h-61zM1059 184v150q0 67 65 67q66 0 66 -67v-31h-43v33q0 24 -23 24q-24 0 -24 -24v-150q0 -24 24 -24q23 0 23 24v54h-23l-16 18 l16 23h66v-97q0 -65 -66 -65q-65 0 -65 65zM1130 950l33 234l35 -234h-68zM1139 2v57h14v-47h43v-10h-57zM1210 6v12q0 3 2 5h19v-21h-17q-4 0 -4 4zM1212 377l15 20h116v-41h-75v-75h55v-41h-55v-76h75v-41h-116v233zM1255 2v57h52q12 0 12 -12v-6q0 -7 -8 -10 q10 -3 10 -11v-8q0 -10 -18 -10h-48zM1270 12h30q7 0 7 4v7q0 4 -7 4h-30v-15zM1270 37h30q7 0 7 4v4q0 4 -7 4h-30v-12zM1343 2v57h15v-47h43v-10h-58zM1372 123v274l21 17l20 -17v-233h72v-41h-113zM1415 16v29q0 14 15 14h45q14 0 14 -14v-29q0 -14 -14 -14h-45 q-15 0 -15 14zM1430 12h45v35h-45v-35zM1511 16v29q0 14 15 14h41q14 0 14 -14l-14 -2v4h-43v-35h43v13h-23v10h37v-19q0 -14 -14 -14h-41q-15 0 -15 14zM1528 377l14 20h117v-41h-76v-75h55v-41h-55v-117h-41v233zM1604 16l10 2v-6h43v13h-37q-14 0 -14 14v6q0 14 14 14h33 q14 0 14 -12v-2l-10 -2v6h-39v-12h37q14 0 14 -14v-7q0 -14 -14 -14h-37q-14 0 -14 14zM1688 186v150q0 65 65 65q66 0 66 -65v-150q0 -65 -66 -65q-65 0 -65 65zM1692 2v57h51q14 0 14 -12v-12q0 -10 -14 -10h-37v-23h-14zM1706 35h31q6 0 6 4v6q0 4 -6 4h-31v-14z M1729 186q0 -24 24 -24q23 0 23 24v150q0 24 -23 24q-24 0 -24 -24v-150zM1776 16v29q0 14 14 14h43q14 0 14 -14v-29q0 -14 -14 -14h-43q-14 0 -14 14zM1788 12h45v35h-45v-35zM1841 377l14 20h48l53 -184v184h43v-274h-45l-58 176v-176h-41v235zM1864 49v10h67v-10h-26 v-47h-15v47h-26zM1950 4v19h18q2 -2 2 -5v-12q0 -2 -2 -4h-16q-2 0 -2 2zM1993 16v29q0 14 14 14h35q14 0 14 -14v-6l-12 -2v10h-37v-35h37v13l12 -2v-7q0 -14 -14 -14h-35q-14 0 -14 14zM2032 356v41h129v-41h-45v-233l-21 -14l-20 14v233h-43zM2079 16v29q0 14 14 14h43 q14 0 14 -14v-29q0 -14 -14 -14h-43q-14 0 -14 14zM2091 12h47v35h-47v-35zM2175 2v57h10l29 -34l27 34h10v-57h-13v39l-24 -33h-2l-27 33v-39h-10zM2189 199l17 14l22 -12q3 -43 29 -43q27 3 27 32q0 18 -33 54q-25 22 -47 47q-11 26 -11 41q0 69 64 69q62 0 65 -63l-38 -8 q-3 35 -27 35q-21 0 -21 -31q0 -20 54 -74q34 -34 34 -67q3 -72 -65 -72q-67 0 -70 78zM2261 0l35 74h8l-35 -74h-8z" />
<glyph unicode="3" d="M0 375l14 22h62q71 0 71 -75q0 -40 -28 -56q35 -12 35 -65q0 -78 -64 -78h-76v233zM14 2v57h15v-22h43v22h12v-57h-12v25h-43v-25h-15zM59 164h17q33 0 33 39q0 43 -33 43h-17v-82zM59 285h17q28 0 28 37q0 34 -28 34h-17v-71zM102 49v10h68v-10h-27v-47h-14v47h-27z M176 49v10h68v-10h-29v-47h-12v47h-27zM188 123v274h43v-274l-22 -14zM260 2v57h51q15 0 15 -12v-12q0 -10 -15 -10h-37v-23h-14zM268 123v274l19 17l22 -17v-233h72v-41h-113zM274 35h31q6 0 6 4v6q0 4 -6 4h-31v-14zM344 4v19h21v-21h-19zM344 39v18q2 2 6 2h10q3 0 5 -2 v-18h-21zM373 0l35 74h8l-35 -74h-8zM410 0l34 74h9l-35 -74h-8zM410 123v274l18 17l23 -17v-233h71v-41h-112zM463 2v57h51q12 0 12 -12v-6q0 -7 -10 -10q10 -3 10 -11v-8q0 -10 -16 -10h-47zM475 12h33q6 0 6 4v7q0 4 -6 4h-33v-15zM475 37h33q6 0 6 4v4q0 4 -6 4h-33v-12 zM500 397h45l30 -98l31 98h45l-55 -159v-115h-41v115zM551 2v57h12v-57h-12zM561 1198l426 47l180 393l174 -391l431 -49l-318 -287l88 -424l-373 213l-376 -213l88 418zM590 2v57h12v-47h45v-10h-57zM662 2v57h14v-47h45v-10h-59zM709 123l45 274h57l47 -274l-22 -12 l-23 12l-8 63h-43l-10 -63l-23 -12zM713 59h18l19 -22l20 22h16l-30 -30v-27h-13v25zM768 227h31l-17 107zM784 2l33 57h14l33 -57h-14l-8 12h-37l-6 -12h-15zM811 25h27l-15 24zM879 2v57h51q12 0 12 -12v-12q0 -12 -12 -12h-8l26 -21h-18l-25 21h-12v-21h-14zM879 377 l14 20h63q66 0 66 -65v-39q0 -29 -23 -49l31 -121h-45l-24 104h-27v-104h-41v235zM893 33h31q6 0 6 4v8q0 4 -6 4h-31v-16zM934 268h24q23 0 23 23v41q0 22 -23 22h-24v-86zM965 16v29q0 14 14 14h41q14 0 14 -14l-14 -2v4h-43v-35h43v13h-23v10h37v-19q0 -14 -14 -14h-41 q-14 0 -14 14zM1004 727l47 -29l45 29l22 135h92l21 -135l49 -29l45 29l-98 592h-123zM1057 2v57h61v-10h-47v-12h27v-10h-27v-15h47v-10h-61zM1059 184v150q0 67 65 67q66 0 66 -67v-31h-43v33q0 24 -23 24q-24 0 -24 -24v-150q0 -24 24 -24q23 0 23 24v54h-23l-16 18 l16 23h66v-97q0 -65 -66 -65q-65 0 -65 65zM1130 950l33 234l35 -234h-68zM1139 2v57h14v-47h43v-10h-57zM1210 6v12q0 3 2 5h19v-21h-17q-4 0 -4 4zM1212 377l15 20h116v-41h-75v-75h55v-41h-55v-76h75v-41h-116v233zM1255 2v57h52q12 0 12 -12v-6q0 -7 -8 -10 q10 -3 10 -11v-8q0 -10 -18 -10h-48zM1270 12h30q7 0 7 4v7q0 4 -7 4h-30v-15zM1270 37h30q7 0 7 4v4q0 4 -7 4h-30v-12zM1343 2v57h15v-47h43v-10h-58zM1372 123v274l21 17l20 -17v-233h72v-41h-113zM1415 16v29q0 14 15 14h45q14 0 14 -14v-29q0 -14 -14 -14h-45 q-15 0 -15 14zM1430 12h45v35h-45v-35zM1511 16v29q0 14 15 14h41q14 0 14 -14l-14 -2v4h-43v-35h43v13h-23v10h37v-19q0 -14 -14 -14h-41q-15 0 -15 14zM1528 377l14 20h117v-41h-76v-75h55v-41h-55v-117h-41v233zM1604 16l10 2v-6h43v13h-37q-14 0 -14 14v6q0 14 14 14h33 q14 0 14 -12v-2l-10 -2v6h-39v-12h37q14 0 14 -14v-7q0 -14 -14 -14h-37q-14 0 -14 14zM1688 186v150q0 65 65 65q66 0 66 -65v-150q0 -65 -66 -65q-65 0 -65 65zM1692 2v57h51q14 0 14 -12v-12q0 -10 -14 -10h-37v-23h-14zM1706 35h31q6 0 6 4v6q0 4 -6 4h-31v-14z M1729 186q0 -24 24 -24q23 0 23 24v150q0 24 -23 24q-24 0 -24 -24v-150zM1776 16v29q0 14 14 14h43q14 0 14 -14v-29q0 -14 -14 -14h-43q-14 0 -14 14zM1788 12h45v35h-45v-35zM1841 377l14 20h48l53 -184v184h43v-274h-45l-58 176v-176h-41v235zM1864 49v10h67v-10h-26 v-47h-15v47h-26zM1950 4v19h18q2 -2 2 -5v-12q0 -2 -2 -4h-16q-2 0 -2 2zM1993 16v29q0 14 14 14h35q14 0 14 -14v-6l-12 -2v10h-37v-35h37v13l12 -2v-7q0 -14 -14 -14h-35q-14 0 -14 14zM2032 356v41h129v-41h-45v-233l-21 -14l-20 14v233h-43zM2079 16v29q0 14 14 14h43 q14 0 14 -14v-29q0 -14 -14 -14h-43q-14 0 -14 14zM2091 12h47v35h-47v-35zM2175 2v57h10l29 -34l27 34h10v-57h-13v39l-24 -33h-2l-27 33v-39h-10zM2189 199l17 14l22 -12q3 -43 29 -43q27 3 27 32q0 18 -33 54q-25 22 -47 47q-11 26 -11 41q0 69 64 69q62 0 65 -63l-38 -8 q-3 35 -27 35q-21 0 -21 -31q0 -20 54 -74q34 -34 34 -67q3 -72 -65 -72q-67 0 -70 78zM2261 0l35 74h8l-35 -74h-8z" />
<glyph unicode="4" d="M0 375l14 22h62q71 0 71 -75q0 -40 -28 -56q35 -12 35 -65q0 -78 -64 -78h-76v233zM14 2v57h15v-22h43v22h12v-57h-12v25h-43v-25h-15zM59 164h17q33 0 33 39q0 43 -33 43h-17v-82zM59 285h17q28 0 28 37q0 34 -28 34h-17v-71zM102 49v10h68v-10h-27v-47h-14v47h-27z M176 49v10h68v-10h-29v-47h-12v47h-27zM188 123v274h43v-274l-22 -14zM260 2v57h51q15 0 15 -12v-12q0 -10 -15 -10h-37v-23h-14zM268 123v274l19 17l22 -17v-233h72v-41h-113zM274 35h31q6 0 6 4v6q0 4 -6 4h-31v-14zM344 4v19h21v-21h-19zM344 39v18q2 2 6 2h10q3 0 5 -2 v-18h-21zM373 0l35 74h8l-35 -74h-8zM410 0l34 74h9l-35 -74h-8zM410 123v274l18 17l23 -17v-233h71v-41h-112zM463 2v57h51q12 0 12 -12v-6q0 -7 -10 -10q10 -3 10 -11v-8q0 -10 -16 -10h-47zM475 12h33q6 0 6 4v7q0 4 -6 4h-33v-15zM475 37h33q6 0 6 4v4q0 4 -6 4h-33v-12 zM500 397h45l30 -98l31 98h45l-55 -159v-115h-41v115zM551 2v57h12v-57h-12zM561 1198l426 47l180 393l174 -391l431 -49l-318 -287l88 -424l-373 213l-376 -213l88 418zM590 2v57h12v-47h45v-10h-57zM662 2v57h14v-47h45v-10h-59zM709 123l45 274h57l47 -274l-22 -12 l-23 12l-8 63h-43l-10 -63l-23 -12zM713 59h18l19 -22l20 22h16l-30 -30v-27h-13v25zM768 227h31l-17 107zM784 2l33 57h14l33 -57h-14l-8 12h-37l-6 -12h-15zM811 25h27l-15 24zM879 2v57h51q12 0 12 -12v-12q0 -12 -12 -12h-8l26 -21h-18l-25 21h-12v-21h-14zM879 377 l14 20h63q66 0 66 -65v-39q0 -29 -23 -49l31 -121h-45l-24 104h-27v-104h-41v235zM893 33h31q6 0 6 4v8q0 4 -6 4h-31v-16zM934 268h24q23 0 23 23v41q0 22 -23 22h-24v-86zM965 16v29q0 14 14 14h41q14 0 14 -14l-14 -2v4h-43v-35h43v13h-23v10h37v-19q0 -14 -14 -14h-41 q-14 0 -14 14zM1004 727l47 -29l45 29l22 135h92l21 -135l49 -29l45 29l-98 592h-123zM1057 2v57h61v-10h-47v-12h27v-10h-27v-15h47v-10h-61zM1059 184v150q0 67 65 67q66 0 66 -67v-31h-43v33q0 24 -23 24q-24 0 -24 -24v-150q0 -24 24 -24q23 0 23 24v54h-23l-16 18 l16 23h66v-97q0 -65 -66 -65q-65 0 -65 65zM1130 950l33 234l35 -234h-68zM1139 2v57h14v-47h43v-10h-57zM1210 6v12q0 3 2 5h19v-21h-17q-4 0 -4 4zM1212 377l15 20h116v-41h-75v-75h55v-41h-55v-76h75v-41h-116v233zM1255 2v57h52q12 0 12 -12v-6q0 -7 -8 -10 q10 -3 10 -11v-8q0 -10 -18 -10h-48zM1270 12h30q7 0 7 4v7q0 4 -7 4h-30v-15zM1270 37h30q7 0 7 4v4q0 4 -7 4h-30v-12zM1343 2v57h15v-47h43v-10h-58zM1372 123v274l21 17l20 -17v-233h72v-41h-113zM1415 16v29q0 14 15 14h45q14 0 14 -14v-29q0 -14 -14 -14h-45 q-15 0 -15 14zM1430 12h45v35h-45v-35zM1511 16v29q0 14 15 14h41q14 0 14 -14l-14 -2v4h-43v-35h43v13h-23v10h37v-19q0 -14 -14 -14h-41q-15 0 -15 14zM1528 377l14 20h117v-41h-76v-75h55v-41h-55v-117h-41v233zM1604 16l10 2v-6h43v13h-37q-14 0 -14 14v6q0 14 14 14h33 q14 0 14 -12v-2l-10 -2v6h-39v-12h37q14 0 14 -14v-7q0 -14 -14 -14h-37q-14 0 -14 14zM1688 186v150q0 65 65 65q66 0 66 -65v-150q0 -65 -66 -65q-65 0 -65 65zM1692 2v57h51q14 0 14 -12v-12q0 -10 -14 -10h-37v-23h-14zM1706 35h31q6 0 6 4v6q0 4 -6 4h-31v-14z M1729 186q0 -24 24 -24q23 0 23 24v150q0 24 -23 24q-24 0 -24 -24v-150zM1776 16v29q0 14 14 14h43q14 0 14 -14v-29q0 -14 -14 -14h-43q-14 0 -14 14zM1788 12h45v35h-45v-35zM1841 377l14 20h48l53 -184v184h43v-274h-45l-58 176v-176h-41v235zM1864 49v10h67v-10h-26 v-47h-15v47h-26zM1950 4v19h18q2 -2 2 -5v-12q0 -2 -2 -4h-16q-2 0 -2 2zM1993 16v29q0 14 14 14h35q14 0 14 -14v-6l-12 -2v10h-37v-35h37v13l12 -2v-7q0 -14 -14 -14h-35q-14 0 -14 14zM2032 356v41h129v-41h-45v-233l-21 -14l-20 14v233h-43zM2079 16v29q0 14 14 14h43 q14 0 14 -14v-29q0 -14 -14 -14h-43q-14 0 -14 14zM2091 12h47v35h-47v-35zM2175 2v57h10l29 -34l27 34h10v-57h-13v39l-24 -33h-2l-27 33v-39h-10zM2189 199l17 14l22 -12q3 -43 29 -43q27 3 27 32q0 18 -33 54q-25 22 -47 47q-11 26 -11 41q0 69 64 69q62 0 65 -63l-38 -8 q-3 35 -27 35q-21 0 -21 -31q0 -20 54 -74q34 -34 34 -67q3 -72 -65 -72q-67 0 -70 78zM2261 0l35 74h8l-35 -74h-8z" />
<glyph unicode="5" d="M0 375l14 22h62q71 0 71 -75q0 -40 -28 -56q35 -12 35 -65q0 -78 -64 -78h-76v233zM14 2v57h15v-22h43v22h12v-57h-12v25h-43v-25h-15zM59 164h17q33 0 33 39q0 43 -33 43h-17v-82zM59 285h17q28 0 28 37q0 34 -28 34h-17v-71zM102 49v10h68v-10h-27v-47h-14v47h-27z M176 49v10h68v-10h-29v-47h-12v47h-27zM188 123v274h43v-274l-22 -14zM260 2v57h51q15 0 15 -12v-12q0 -10 -15 -10h-37v-23h-14zM268 123v274l19 17l22 -17v-233h72v-41h-113zM274 35h31q6 0 6 4v6q0 4 -6 4h-31v-14zM344 4v19h21v-21h-19zM344 39v18q2 2 6 2h10q3 0 5 -2 v-18h-21zM373 0l35 74h8l-35 -74h-8zM410 0l34 74h9l-35 -74h-8zM410 123v274l18 17l23 -17v-233h71v-41h-112zM463 2v57h51q12 0 12 -12v-6q0 -7 -10 -10q10 -3 10 -11v-8q0 -10 -16 -10h-47zM475 12h33q6 0 6 4v7q0 4 -6 4h-33v-15zM475 37h33q6 0 6 4v4q0 4 -6 4h-33v-12 zM500 397h45l30 -98l31 98h45l-55 -159v-115h-41v115zM551 2v57h12v-57h-12zM561 1198l426 47l180 393l174 -391l431 -49l-318 -287l88 -424l-373 213l-376 -213l88 418zM590 2v57h12v-47h45v-10h-57zM662 2v57h14v-47h45v-10h-59zM709 123l45 274h57l47 -274l-22 -12 l-23 12l-8 63h-43l-10 -63l-23 -12zM713 59h18l19 -22l20 22h16l-30 -30v-27h-13v25zM768 227h31l-17 107zM784 2l33 57h14l33 -57h-14l-8 12h-37l-6 -12h-15zM811 25h27l-15 24zM879 2v57h51q12 0 12 -12v-12q0 -12 -12 -12h-8l26 -21h-18l-25 21h-12v-21h-14zM879 377 l14 20h63q66 0 66 -65v-39q0 -29 -23 -49l31 -121h-45l-24 104h-27v-104h-41v235zM893 33h31q6 0 6 4v8q0 4 -6 4h-31v-16zM934 268h24q23 0 23 23v41q0 22 -23 22h-24v-86zM965 16v29q0 14 14 14h41q14 0 14 -14l-14 -2v4h-43v-35h43v13h-23v10h37v-19q0 -14 -14 -14h-41 q-14 0 -14 14zM1004 727l47 -29l45 29l22 135h92l21 -135l49 -29l45 29l-98 592h-123zM1057 2v57h61v-10h-47v-12h27v-10h-27v-15h47v-10h-61zM1059 184v150q0 67 65 67q66 0 66 -67v-31h-43v33q0 24 -23 24q-24 0 -24 -24v-150q0 -24 24 -24q23 0 23 24v54h-23l-16 18 l16 23h66v-97q0 -65 -66 -65q-65 0 -65 65zM1130 950l33 234l35 -234h-68zM1139 2v57h14v-47h43v-10h-57zM1210 6v12q0 3 2 5h19v-21h-17q-4 0 -4 4zM1212 377l15 20h116v-41h-75v-75h55v-41h-55v-76h75v-41h-116v233zM1255 2v57h52q12 0 12 -12v-6q0 -7 -8 -10 q10 -3 10 -11v-8q0 -10 -18 -10h-48zM1270 12h30q7 0 7 4v7q0 4 -7 4h-30v-15zM1270 37h30q7 0 7 4v4q0 4 -7 4h-30v-12zM1343 2v57h15v-47h43v-10h-58zM1372 123v274l21 17l20 -17v-233h72v-41h-113zM1415 16v29q0 14 15 14h45q14 0 14 -14v-29q0 -14 -14 -14h-45 q-15 0 -15 14zM1430 12h45v35h-45v-35zM1511 16v29q0 14 15 14h41q14 0 14 -14l-14 -2v4h-43v-35h43v13h-23v10h37v-19q0 -14 -14 -14h-41q-15 0 -15 14zM1528 377l14 20h117v-41h-76v-75h55v-41h-55v-117h-41v233zM1604 16l10 2v-6h43v13h-37q-14 0 -14 14v6q0 14 14 14h33 q14 0 14 -12v-2l-10 -2v6h-39v-12h37q14 0 14 -14v-7q0 -14 -14 -14h-37q-14 0 -14 14zM1688 186v150q0 65 65 65q66 0 66 -65v-150q0 -65 -66 -65q-65 0 -65 65zM1692 2v57h51q14 0 14 -12v-12q0 -10 -14 -10h-37v-23h-14zM1706 35h31q6 0 6 4v6q0 4 -6 4h-31v-14z M1729 186q0 -24 24 -24q23 0 23 24v150q0 24 -23 24q-24 0 -24 -24v-150zM1776 16v29q0 14 14 14h43q14 0 14 -14v-29q0 -14 -14 -14h-43q-14 0 -14 14zM1788 12h45v35h-45v-35zM1841 377l14 20h48l53 -184v184h43v-274h-45l-58 176v-176h-41v235zM1864 49v10h67v-10h-26 v-47h-15v47h-26zM1950 4v19h18q2 -2 2 -5v-12q0 -2 -2 -4h-16q-2 0 -2 2zM1993 16v29q0 14 14 14h35q14 0 14 -14v-6l-12 -2v10h-37v-35h37v13l12 -2v-7q0 -14 -14 -14h-35q-14 0 -14 14zM2032 356v41h129v-41h-45v-233l-21 -14l-20 14v233h-43zM2079 16v29q0 14 14 14h43 q14 0 14 -14v-29q0 -14 -14 -14h-43q-14 0 -14 14zM2091 12h47v35h-47v-35zM2175 2v57h10l29 -34l27 34h10v-57h-13v39l-24 -33h-2l-27 33v-39h-10zM2189 199l17 14l22 -12q3 -43 29 -43q27 3 27 32q0 18 -33 54q-25 22 -47 47q-11 26 -11 41q0 69 64 69q62 0 65 -63l-38 -8 q-3 35 -27 35q-21 0 -21 -31q0 -20 54 -74q34 -34 34 -67q3 -72 -65 -72q-67 0 -70 78zM2261 0l35 74h8l-35 -74h-8z" />
<glyph unicode="6" d="M0 375l14 22h62q71 0 71 -75q0 -40 -28 -56q35 -12 35 -65q0 -78 -64 -78h-76v233zM14 2v57h15v-22h43v22h12v-57h-12v25h-43v-25h-15zM59 164h17q33 0 33 39q0 43 -33 43h-17v-82zM59 285h17q28 0 28 37q0 34 -28 34h-17v-71zM102 49v10h68v-10h-27v-47h-14v47h-27z M176 49v10h68v-10h-29v-47h-12v47h-27zM188 123v274h43v-274l-22 -14zM260 2v57h51q15 0 15 -12v-12q0 -10 -15 -10h-37v-23h-14zM268 123v274l19 17l22 -17v-233h72v-41h-113zM274 35h31q6 0 6 4v6q0 4 -6 4h-31v-14zM344 4v19h21v-21h-19zM344 39v18q2 2 6 2h10q3 0 5 -2 v-18h-21zM373 0l35 74h8l-35 -74h-8zM410 0l34 74h9l-35 -74h-8zM410 123v274l18 17l23 -17v-233h71v-41h-112zM463 2v57h51q12 0 12 -12v-6q0 -7 -10 -10q10 -3 10 -11v-8q0 -10 -16 -10h-47zM475 12h33q6 0 6 4v7q0 4 -6 4h-33v-15zM475 37h33q6 0 6 4v4q0 4 -6 4h-33v-12 zM500 397h45l30 -98l31 98h45l-55 -159v-115h-41v115zM551 2v57h12v-57h-12zM561 1198l426 47l180 393l174 -391l431 -49l-318 -287l88 -424l-373 213l-376 -213l88 418zM590 2v57h12v-47h45v-10h-57zM662 2v57h14v-47h45v-10h-59zM709 123l45 274h57l47 -274l-22 -12 l-23 12l-8 63h-43l-10 -63l-23 -12zM713 59h18l19 -22l20 22h16l-30 -30v-27h-13v25zM768 227h31l-17 107zM784 2l33 57h14l33 -57h-14l-8 12h-37l-6 -12h-15zM811 25h27l-15 24zM879 2v57h51q12 0 12 -12v-12q0 -12 -12 -12h-8l26 -21h-18l-25 21h-12v-21h-14zM879 377 l14 20h63q66 0 66 -65v-39q0 -29 -23 -49l31 -121h-45l-24 104h-27v-104h-41v235zM893 33h31q6 0 6 4v8q0 4 -6 4h-31v-16zM934 268h24q23 0 23 23v41q0 22 -23 22h-24v-86zM965 16v29q0 14 14 14h41q14 0 14 -14l-14 -2v4h-43v-35h43v13h-23v10h37v-19q0 -14 -14 -14h-41 q-14 0 -14 14zM1004 727l47 -29l45 29l22 135h92l21 -135l49 -29l45 29l-98 592h-123zM1057 2v57h61v-10h-47v-12h27v-10h-27v-15h47v-10h-61zM1059 184v150q0 67 65 67q66 0 66 -67v-31h-43v33q0 24 -23 24q-24 0 -24 -24v-150q0 -24 24 -24q23 0 23 24v54h-23l-16 18 l16 23h66v-97q0 -65 -66 -65q-65 0 -65 65zM1130 950l33 234l35 -234h-68zM1139 2v57h14v-47h43v-10h-57zM1210 6v12q0 3 2 5h19v-21h-17q-4 0 -4 4zM1212 377l15 20h116v-41h-75v-75h55v-41h-55v-76h75v-41h-116v233zM1255 2v57h52q12 0 12 -12v-6q0 -7 -8 -10 q10 -3 10 -11v-8q0 -10 -18 -10h-48zM1270 12h30q7 0 7 4v7q0 4 -7 4h-30v-15zM1270 37h30q7 0 7 4v4q0 4 -7 4h-30v-12zM1343 2v57h15v-47h43v-10h-58zM1372 123v274l21 17l20 -17v-233h72v-41h-113zM1415 16v29q0 14 15 14h45q14 0 14 -14v-29q0 -14 -14 -14h-45 q-15 0 -15 14zM1430 12h45v35h-45v-35zM1511 16v29q0 14 15 14h41q14 0 14 -14l-14 -2v4h-43v-35h43v13h-23v10h37v-19q0 -14 -14 -14h-41q-15 0 -15 14zM1528 377l14 20h117v-41h-76v-75h55v-41h-55v-117h-41v233zM1604 16l10 2v-6h43v13h-37q-14 0 -14 14v6q0 14 14 14h33 q14 0 14 -12v-2l-10 -2v6h-39v-12h37q14 0 14 -14v-7q0 -14 -14 -14h-37q-14 0 -14 14zM1688 186v150q0 65 65 65q66 0 66 -65v-150q0 -65 -66 -65q-65 0 -65 65zM1692 2v57h51q14 0 14 -12v-12q0 -10 -14 -10h-37v-23h-14zM1706 35h31q6 0 6 4v6q0 4 -6 4h-31v-14z M1729 186q0 -24 24 -24q23 0 23 24v150q0 24 -23 24q-24 0 -24 -24v-150zM1776 16v29q0 14 14 14h43q14 0 14 -14v-29q0 -14 -14 -14h-43q-14 0 -14 14zM1788 12h45v35h-45v-35zM1841 377l14 20h48l53 -184v184h43v-274h-45l-58 176v-176h-41v235zM1864 49v10h67v-10h-26 v-47h-15v47h-26zM1950 4v19h18q2 -2 2 -5v-12q0 -2 -2 -4h-16q-2 0 -2 2zM1993 16v29q0 14 14 14h35q14 0 14 -14v-6l-12 -2v10h-37v-35h37v13l12 -2v-7q0 -14 -14 -14h-35q-14 0 -14 14zM2032 356v41h129v-41h-45v-233l-21 -14l-20 14v233h-43zM2079 16v29q0 14 14 14h43 q14 0 14 -14v-29q0 -14 -14 -14h-43q-14 0 -14 14zM2091 12h47v35h-47v-35zM2175 2v57h10l29 -34l27 34h10v-57h-13v39l-24 -33h-2l-27 33v-39h-10zM2189 199l17 14l22 -12q3 -43 29 -43q27 3 27 32q0 18 -33 54q-25 22 -47 47q-11 26 -11 41q0 69 64 69q62 0 65 -63l-38 -8 q-3 35 -27 35q-21 0 -21 -31q0 -20 54 -74q34 -34 34 -67q3 -72 -65 -72q-67 0 -70 78zM2261 0l35 74h8l-35 -74h-8z" />
<glyph unicode="7" d="M0 375l14 22h62q71 0 71 -75q0 -40 -28 -56q35 -12 35 -65q0 -78 -64 -78h-76v233zM14 2v57h15v-22h43v22h12v-57h-12v25h-43v-25h-15zM59 164h17q33 0 33 39q0 43 -33 43h-17v-82zM59 285h17q28 0 28 37q0 34 -28 34h-17v-71zM102 49v10h68v-10h-27v-47h-14v47h-27z M176 49v10h68v-10h-29v-47h-12v47h-27zM188 123v274h43v-274l-22 -14zM260 2v57h51q15 0 15 -12v-12q0 -10 -15 -10h-37v-23h-14zM268 123v274l19 17l22 -17v-233h72v-41h-113zM274 35h31q6 0 6 4v6q0 4 -6 4h-31v-14zM344 4v19h21v-21h-19zM344 39v18q2 2 6 2h10q3 0 5 -2 v-18h-21zM373 0l35 74h8l-35 -74h-8zM410 0l34 74h9l-35 -74h-8zM410 123v274l18 17l23 -17v-233h71v-41h-112zM463 2v57h51q12 0 12 -12v-6q0 -7 -10 -10q10 -3 10 -11v-8q0 -10 -16 -10h-47zM475 12h33q6 0 6 4v7q0 4 -6 4h-33v-15zM475 37h33q6 0 6 4v4q0 4 -6 4h-33v-12 zM500 397h45l30 -98l31 98h45l-55 -159v-115h-41v115zM551 2v57h12v-57h-12zM561 1198l426 47l180 393l174 -391l431 -49l-318 -287l88 -424l-373 213l-376 -213l88 418zM590 2v57h12v-47h45v-10h-57zM662 2v57h14v-47h45v-10h-59zM709 123l45 274h57l47 -274l-22 -12 l-23 12l-8 63h-43l-10 -63l-23 -12zM713 59h18l19 -22l20 22h16l-30 -30v-27h-13v25zM768 227h31l-17 107zM784 2l33 57h14l33 -57h-14l-8 12h-37l-6 -12h-15zM811 25h27l-15 24zM879 2v57h51q12 0 12 -12v-12q0 -12 -12 -12h-8l26 -21h-18l-25 21h-12v-21h-14zM879 377 l14 20h63q66 0 66 -65v-39q0 -29 -23 -49l31 -121h-45l-24 104h-27v-104h-41v235zM893 33h31q6 0 6 4v8q0 4 -6 4h-31v-16zM934 268h24q23 0 23 23v41q0 22 -23 22h-24v-86zM965 16v29q0 14 14 14h41q14 0 14 -14l-14 -2v4h-43v-35h43v13h-23v10h37v-19q0 -14 -14 -14h-41 q-14 0 -14 14zM1004 727l47 -29l45 29l22 135h92l21 -135l49 -29l45 29l-98 592h-123zM1057 2v57h61v-10h-47v-12h27v-10h-27v-15h47v-10h-61zM1059 184v150q0 67 65 67q66 0 66 -67v-31h-43v33q0 24 -23 24q-24 0 -24 -24v-150q0 -24 24 -24q23 0 23 24v54h-23l-16 18 l16 23h66v-97q0 -65 -66 -65q-65 0 -65 65zM1130 950l33 234l35 -234h-68zM1139 2v57h14v-47h43v-10h-57zM1210 6v12q0 3 2 5h19v-21h-17q-4 0 -4 4zM1212 377l15 20h116v-41h-75v-75h55v-41h-55v-76h75v-41h-116v233zM1255 2v57h52q12 0 12 -12v-6q0 -7 -8 -10 q10 -3 10 -11v-8q0 -10 -18 -10h-48zM1270 12h30q7 0 7 4v7q0 4 -7 4h-30v-15zM1270 37h30q7 0 7 4v4q0 4 -7 4h-30v-12zM1343 2v57h15v-47h43v-10h-58zM1372 123v274l21 17l20 -17v-233h72v-41h-113zM1415 16v29q0 14 15 14h45q14 0 14 -14v-29q0 -14 -14 -14h-45 q-15 0 -15 14zM1430 12h45v35h-45v-35zM1511 16v29q0 14 15 14h41q14 0 14 -14l-14 -2v4h-43v-35h43v13h-23v10h37v-19q0 -14 -14 -14h-41q-15 0 -15 14zM1528 377l14 20h117v-41h-76v-75h55v-41h-55v-117h-41v233zM1604 16l10 2v-6h43v13h-37q-14 0 -14 14v6q0 14 14 14h33 q14 0 14 -12v-2l-10 -2v6h-39v-12h37q14 0 14 -14v-7q0 -14 -14 -14h-37q-14 0 -14 14zM1688 186v150q0 65 65 65q66 0 66 -65v-150q0 -65 -66 -65q-65 0 -65 65zM1692 2v57h51q14 0 14 -12v-12q0 -10 -14 -10h-37v-23h-14zM1706 35h31q6 0 6 4v6q0 4 -6 4h-31v-14z M1729 186q0 -24 24 -24q23 0 23 24v150q0 24 -23 24q-24 0 -24 -24v-150zM1776 16v29q0 14 14 14h43q14 0 14 -14v-29q0 -14 -14 -14h-43q-14 0 -14 14zM1788 12h45v35h-45v-35zM1841 377l14 20h48l53 -184v184h43v-274h-45l-58 176v-176h-41v235zM1864 49v10h67v-10h-26 v-47h-15v47h-26zM1950 4v19h18q2 -2 2 -5v-12q0 -2 -2 -4h-16q-2 0 -2 2zM1993 16v29q0 14 14 14h35q14 0 14 -14v-6l-12 -2v10h-37v-35h37v13l12 -2v-7q0 -14 -14 -14h-35q-14 0 -14 14zM2032 356v41h129v-41h-45v-233l-21 -14l-20 14v233h-43zM2079 16v29q0 14 14 14h43 q14 0 14 -14v-29q0 -14 -14 -14h-43q-14 0 -14 14zM2091 12h47v35h-47v-35zM2175 2v57h10l29 -34l27 34h10v-57h-13v39l-24 -33h-2l-27 33v-39h-10zM2189 199l17 14l22 -12q3 -43 29 -43q27 3 27 32q0 18 -33 54q-25 22 -47 47q-11 26 -11 41q0 69 64 69q62 0 65 -63l-38 -8 q-3 35 -27 35q-21 0 -21 -31q0 -20 54 -74q34 -34 34 -67q3 -72 -65 -72q-67 0 -70 78zM2261 0l35 74h8l-35 -74h-8z" />
<glyph unicode="8" d="M0 375l14 22h62q71 0 71 -75q0 -40 -28 -56q35 -12 35 -65q0 -78 -64 -78h-76v233zM14 2v57h15v-22h43v22h12v-57h-12v25h-43v-25h-15zM59 164h17q33 0 33 39q0 43 -33 43h-17v-82zM59 285h17q28 0 28 37q0 34 -28 34h-17v-71zM102 49v10h68v-10h-27v-47h-14v47h-27z M176 49v10h68v-10h-29v-47h-12v47h-27zM188 123v274h43v-274l-22 -14zM260 2v57h51q15 0 15 -12v-12q0 -10 -15 -10h-37v-23h-14zM268 123v274l19 17l22 -17v-233h72v-41h-113zM274 35h31q6 0 6 4v6q0 4 -6 4h-31v-14zM344 4v19h21v-21h-19zM344 39v18q2 2 6 2h10q3 0 5 -2 v-18h-21zM373 0l35 74h8l-35 -74h-8zM410 0l34 74h9l-35 -74h-8zM410 123v274l18 17l23 -17v-233h71v-41h-112zM463 2v57h51q12 0 12 -12v-6q0 -7 -10 -10q10 -3 10 -11v-8q0 -10 -16 -10h-47zM475 12h33q6 0 6 4v7q0 4 -6 4h-33v-15zM475 37h33q6 0 6 4v4q0 4 -6 4h-33v-12 zM500 397h45l30 -98l31 98h45l-55 -159v-115h-41v115zM551 2v57h12v-57h-12zM561 1198l426 47l180 393l174 -391l431 -49l-318 -287l88 -424l-373 213l-376 -213l88 418zM590 2v57h12v-47h45v-10h-57zM662 2v57h14v-47h45v-10h-59zM709 123l45 274h57l47 -274l-22 -12 l-23 12l-8 63h-43l-10 -63l-23 -12zM713 59h18l19 -22l20 22h16l-30 -30v-27h-13v25zM768 227h31l-17 107zM784 2l33 57h14l33 -57h-14l-8 12h-37l-6 -12h-15zM811 25h27l-15 24zM879 2v57h51q12 0 12 -12v-12q0 -12 -12 -12h-8l26 -21h-18l-25 21h-12v-21h-14zM879 377 l14 20h63q66 0 66 -65v-39q0 -29 -23 -49l31 -121h-45l-24 104h-27v-104h-41v235zM893 33h31q6 0 6 4v8q0 4 -6 4h-31v-16zM934 268h24q23 0 23 23v41q0 22 -23 22h-24v-86zM965 16v29q0 14 14 14h41q14 0 14 -14l-14 -2v4h-43v-35h43v13h-23v10h37v-19q0 -14 -14 -14h-41 q-14 0 -14 14zM1004 727l47 -29l45 29l22 135h92l21 -135l49 -29l45 29l-98 592h-123zM1057 2v57h61v-10h-47v-12h27v-10h-27v-15h47v-10h-61zM1059 184v150q0 67 65 67q66 0 66 -67v-31h-43v33q0 24 -23 24q-24 0 -24 -24v-150q0 -24 24 -24q23 0 23 24v54h-23l-16 18 l16 23h66v-97q0 -65 -66 -65q-65 0 -65 65zM1130 950l33 234l35 -234h-68zM1139 2v57h14v-47h43v-10h-57zM1210 6v12q0 3 2 5h19v-21h-17q-4 0 -4 4zM1212 377l15 20h116v-41h-75v-75h55v-41h-55v-76h75v-41h-116v233zM1255 2v57h52q12 0 12 -12v-6q0 -7 -8 -10 q10 -3 10 -11v-8q0 -10 -18 -10h-48zM1270 12h30q7 0 7 4v7q0 4 -7 4h-30v-15zM1270 37h30q7 0 7 4v4q0 4 -7 4h-30v-12zM1343 2v57h15v-47h43v-10h-58zM1372 123v274l21 17l20 -17v-233h72v-41h-113zM1415 16v29q0 14 15 14h45q14 0 14 -14v-29q0 -14 -14 -14h-45 q-15 0 -15 14zM1430 12h45v35h-45v-35zM1511 16v29q0 14 15 14h41q14 0 14 -14l-14 -2v4h-43v-35h43v13h-23v10h37v-19q0 -14 -14 -14h-41q-15 0 -15 14zM1528 377l14 20h117v-41h-76v-75h55v-41h-55v-117h-41v233zM1604 16l10 2v-6h43v13h-37q-14 0 -14 14v6q0 14 14 14h33 q14 0 14 -12v-2l-10 -2v6h-39v-12h37q14 0 14 -14v-7q0 -14 -14 -14h-37q-14 0 -14 14zM1688 186v150q0 65 65 65q66 0 66 -65v-150q0 -65 -66 -65q-65 0 -65 65zM1692 2v57h51q14 0 14 -12v-12q0 -10 -14 -10h-37v-23h-14zM1706 35h31q6 0 6 4v6q0 4 -6 4h-31v-14z M1729 186q0 -24 24 -24q23 0 23 24v150q0 24 -23 24q-24 0 -24 -24v-150zM1776 16v29q0 14 14 14h43q14 0 14 -14v-29q0 -14 -14 -14h-43q-14 0 -14 14zM1788 12h45v35h-45v-35zM1841 377l14 20h48l53 -184v184h43v-274h-45l-58 176v-176h-41v235zM1864 49v10h67v-10h-26 v-47h-15v47h-26zM1950 4v19h18q2 -2 2 -5v-12q0 -2 -2 -4h-16q-2 0 -2 2zM1993 16v29q0 14 14 14h35q14 0 14 -14v-6l-12 -2v10h-37v-35h37v13l12 -2v-7q0 -14 -14 -14h-35q-14 0 -14 14zM2032 356v41h129v-41h-45v-233l-21 -14l-20 14v233h-43zM2079 16v29q0 14 14 14h43 q14 0 14 -14v-29q0 -14 -14 -14h-43q-14 0 -14 14zM2091 12h47v35h-47v-35zM2175 2v57h10l29 -34l27 34h10v-57h-13v39l-24 -33h-2l-27 33v-39h-10zM2189 199l17 14l22 -12q3 -43 29 -43q27 3 27 32q0 18 -33 54q-25 22 -47 47q-11 26 -11 41q0 69 64 69q62 0 65 -63l-38 -8 q-3 35 -27 35q-21 0 -21 -31q0 -20 54 -74q34 -34 34 -67q3 -72 -65 -72q-67 0 -70 78zM2261 0l35 74h8l-35 -74h-8z" />
<glyph unicode="9" d="M0 375l14 22h62q71 0 71 -75q0 -40 -28 -56q35 -12 35 -65q0 -78 -64 -78h-76v233zM14 2v57h15v-22h43v22h12v-57h-12v25h-43v-25h-15zM59 164h17q33 0 33 39q0 43 -33 43h-17v-82zM59 285h17q28 0 28 37q0 34 -28 34h-17v-71zM102 49v10h68v-10h-27v-47h-14v47h-27z M176 49v10h68v-10h-29v-47h-12v47h-27zM188 123v274h43v-274l-22 -14zM260 2v57h51q15 0 15 -12v-12q0 -10 -15 -10h-37v-23h-14zM268 123v274l19 17l22 -17v-233h72v-41h-113zM274 35h31q6 0 6 4v6q0 4 -6 4h-31v-14zM344 4v19h21v-21h-19zM344 39v18q2 2 6 2h10q3 0 5 -2 v-18h-21zM373 0l35 74h8l-35 -74h-8zM410 0l34 74h9l-35 -74h-8zM410 123v274l18 17l23 -17v-233h71v-41h-112zM463 2v57h51q12 0 12 -12v-6q0 -7 -10 -10q10 -3 10 -11v-8q0 -10 -16 -10h-47zM475 12h33q6 0 6 4v7q0 4 -6 4h-33v-15zM475 37h33q6 0 6 4v4q0 4 -6 4h-33v-12 zM500 397h45l30 -98l31 98h45l-55 -159v-115h-41v115zM551 2v57h12v-57h-12zM561 1198l426 47l180 393l174 -391l431 -49l-318 -287l88 -424l-373 213l-376 -213l88 418zM590 2v57h12v-47h45v-10h-57zM662 2v57h14v-47h45v-10h-59zM709 123l45 274h57l47 -274l-22 -12 l-23 12l-8 63h-43l-10 -63l-23 -12zM713 59h18l19 -22l20 22h16l-30 -30v-27h-13v25zM768 227h31l-17 107zM784 2l33 57h14l33 -57h-14l-8 12h-37l-6 -12h-15zM811 25h27l-15 24zM879 2v57h51q12 0 12 -12v-12q0 -12 -12 -12h-8l26 -21h-18l-25 21h-12v-21h-14zM879 377 l14 20h63q66 0 66 -65v-39q0 -29 -23 -49l31 -121h-45l-24 104h-27v-104h-41v235zM893 33h31q6 0 6 4v8q0 4 -6 4h-31v-16zM934 268h24q23 0 23 23v41q0 22 -23 22h-24v-86zM965 16v29q0 14 14 14h41q14 0 14 -14l-14 -2v4h-43v-35h43v13h-23v10h37v-19q0 -14 -14 -14h-41 q-14 0 -14 14zM1004 727l47 -29l45 29l22 135h92l21 -135l49 -29l45 29l-98 592h-123zM1057 2v57h61v-10h-47v-12h27v-10h-27v-15h47v-10h-61zM1059 184v150q0 67 65 67q66 0 66 -67v-31h-43v33q0 24 -23 24q-24 0 -24 -24v-150q0 -24 24 -24q23 0 23 24v54h-23l-16 18 l16 23h66v-97q0 -65 -66 -65q-65 0 -65 65zM1130 950l33 234l35 -234h-68zM1139 2v57h14v-47h43v-10h-57zM1210 6v12q0 3 2 5h19v-21h-17q-4 0 -4 4zM1212 377l15 20h116v-41h-75v-75h55v-41h-55v-76h75v-41h-116v233zM1255 2v57h52q12 0 12 -12v-6q0 -7 -8 -10 q10 -3 10 -11v-8q0 -10 -18 -10h-48zM1270 12h30q7 0 7 4v7q0 4 -7 4h-30v-15zM1270 37h30q7 0 7 4v4q0 4 -7 4h-30v-12zM1343 2v57h15v-47h43v-10h-58zM1372 123v274l21 17l20 -17v-233h72v-41h-113zM1415 16v29q0 14 15 14h45q14 0 14 -14v-29q0 -14 -14 -14h-45 q-15 0 -15 14zM1430 12h45v35h-45v-35zM1511 16v29q0 14 15 14h41q14 0 14 -14l-14 -2v4h-43v-35h43v13h-23v10h37v-19q0 -14 -14 -14h-41q-15 0 -15 14zM1528 377l14 20h117v-41h-76v-75h55v-41h-55v-117h-41v233zM1604 16l10 2v-6h43v13h-37q-14 0 -14 14v6q0 14 14 14h33 q14 0 14 -12v-2l-10 -2v6h-39v-12h37q14 0 14 -14v-7q0 -14 -14 -14h-37q-14 0 -14 14zM1688 186v150q0 65 65 65q66 0 66 -65v-150q0 -65 -66 -65q-65 0 -65 65zM1692 2v57h51q14 0 14 -12v-12q0 -10 -14 -10h-37v-23h-14zM1706 35h31q6 0 6 4v6q0 4 -6 4h-31v-14z M1729 186q0 -24 24 -24q23 0 23 24v150q0 24 -23 24q-24 0 -24 -24v-150zM1776 16v29q0 14 14 14h43q14 0 14 -14v-29q0 -14 -14 -14h-43q-14 0 -14 14zM1788 12h45v35h-45v-35zM1841 377l14 20h48l53 -184v184h43v-274h-45l-58 176v-176h-41v235zM1864 49v10h67v-10h-26 v-47h-15v47h-26zM1950 4v19h18q2 -2 2 -5v-12q0 -2 -2 -4h-16q-2 0 -2 2zM1993 16v29q0 14 14 14h35q14 0 14 -14v-6l-12 -2v10h-37v-35h37v13l12 -2v-7q0 -14 -14 -14h-35q-14 0 -14 14zM2032 356v41h129v-41h-45v-233l-21 -14l-20 14v233h-43zM2079 16v29q0 14 14 14h43 q14 0 14 -14v-29q0 -14 -14 -14h-43q-14 0 -14 14zM2091 12h47v35h-47v-35zM2175 2v57h10l29 -34l27 34h10v-57h-13v39l-24 -33h-2l-27 33v-39h-10zM2189 199l17 14l22 -12q3 -43 29 -43q27 3 27 32q0 18 -33 54q-25 22 -47 47q-11 26 -11 41q0 69 64 69q62 0 65 -63l-38 -8 q-3 35 -27 35q-21 0 -21 -31q0 -20 54 -74q34 -34 34 -67q3 -72 -65 -72q-67 0 -70 78zM2261 0l35 74h8l-35 -74h-8z" />
<glyph unicode="&#x3c;" horiz-adv-x="208" d="M-2560 -129q9 36 59 100q53 68 56 125q3 45 -2 66q11 7 53 16q278 62 625 62q105 0 249 -7q82 -3 602 -59q222 -22 379 -22q439 0 617 184q67 70 67 104q0 20 -18 29q-11 6 -42.5 -7.5t-45.5 -27.5q-28 -28 -41 -8l-10 16q-7 16 12 35q66 60 127 60q82 0 82 -88 q0 -73 -113 -189q-169 -178 -420 -225q-144 -27 -364 -27q-145 0 -301 8l-260 13q-390 9 -602 -6q-339 -24 -539 -82q-94 -27 -170 -70z" />
<glyph unicode="&#x3e;" horiz-adv-x="208" d="M-2560 -129q9 36 59 100q53 68 56 125q3 45 -2 66q11 7 53 16q278 62 625 62q105 0 249 -7q82 -3 602 -59q222 -22 379 -22q439 0 617 184q67 70 67 104q0 20 -18 29q-11 6 -42.5 -7.5t-45.5 -27.5q-28 -28 -41 -8l-10 16q-7 16 12 35q66 60 127 60q82 0 82 -88 q0 -73 -113 -189q-169 -178 -420 -225q-144 -27 -364 -27q-145 0 -301 8l-260 13q-390 9 -602 -6q-339 -24 -539 -82q-94 -27 -170 -70z" />
<glyph unicode="A" horiz-adv-x="1423" d="M-2 532q0 103 84 207q77 92 178 135q65 25 119 31q10 1 19 1q54 0 100 -30q54 -34 59 -94q1 -7 1 -14q0 -47 -34 -96q-14 154 -143 154q-9 0 -19 -1q-88 -6 -164.5 -66.5t-107.5 -146.5q-11 -31 -11 -60q0 -19 5 -38q15 -61 78 -96q60 -29 123 -29q238 0 643 369 q-64 43 -154 43q-93 0 -164 -41q-5 32 20.5 54.5t82.5 35.5q36 8 73.5 7.5t77.5 -7.5q66 -12 113 -47l129 121l223 225l131 131q-227 38 -305 53q-51 11 -99 11q-11 0 -22 -1q-88 -6 -155 -43q-85 -48 -99 -120q-2 -11 -1 -21q0 -50 50 -78q39 -21 92 -21q12 0 25 1 q56 6 107 42t71 85q8 17 2 26q-6 16 -28 19q-6 1 -13 1q-32 0 -55 -26q-12 -12 -16 -24q-23 14 -6 47q20 31 56 49q26 12 51 12q10 0 20 -2q43 -8 59 -37q8 -15 8 -31q0 -19 -10 -40q-31 -73 -102.5 -124t-153.5 -59q-22 -2 -43 -2q-138 0 -195 105q-12 24 -12 56q0 19 4 40 q35 130 195 199q111 46 248 47q23 0 47 -2q44 -2 200 -25q126 -18 199 -18q56 0 94 10q50 15 62 12q29 -3 20 -28q-5 -6 -57 -95q-118 -202 -232 -450q-136 -305 -186 -477q-6 -23 -27 -52q-12 -9 -24 -12l-117 -14q-22 -3 -25 12v33q-3 227 -96 358q-323 -283 -528 -356 q-95 -31 -176 -31q-45 0 -97 10q-151 37 -186 158q-6 27 -6 55zM1044 743q81 -87 125 -221q61 159 134 293l213 365l-351 -328z" />
<glyph unicode="B" horiz-adv-x="1495" d="M0 555q0 205 209 285q41 15 84 14q18 0 37 -2q74 -11 118 -56q40 -41 39 -101v-11q-77 95 -163 98h-16q-88 0 -152 -61q-72 -69 -72 -164q0 -77 53 -127q63 -60 178 -60q15 0 31 1l43 6q-114 64 -141 168q-3 13 -3 25q0 44 40 89q13 16 49 25q-4 -28 -4 -41 q0 -141 162 -229q109 65 196 198q54 83 121 209q61 115 113 203q150 252 303 287q41 -6 75 -15q-24 -17 -51 -47q-103 -111 -254 -399q-144 -276 -258 -393q-59 -59 -108 -88q75 -11 129 -11q90 0 192 21q128 26 244 100q139 91 139 204q0 189 -262 202q-35 3 -35 28 q3 14 15 23q4 2 39 8q232 46 356 158q65 59 65 114q0 9 -2 17q-27 130 -307 151q-47 3 -90 3q-260 0 -420 -107q-82 -55 -82 -113q0 -11 11 -37q24 -40 106 -40q62 0 118.5 30t80.5 80q8 13 4 25q-8 14 -31 14q-20 0 -46 -13.5t-30 -29.5q-10 7 -10 16q0 10 8 23l8 10 q40 45 91 45q11 0 22 -2q55 -9 55 -53q0 -16 -10 -39q-36 -71 -116 -115.5t-166 -44.5q-131 0 -175 84q-10 18 -10 41q0 11 2 23q0 82 115 153q88 57 186 80q129 33 277 33q170 0 321 -49q211 -67 211 -197q0 -92 -147 -194q-102 -67 -230 -103h5h-3q250 -99 250 -262 q0 -88 -82 -164q-123 -117 -327 -166q-110 -26 -271 -26q-165 0 -299 35q-65 -20 -112 -25q-39 -4 -76 -4q-68 0 -129 14q-27 7 -72 27q-56 27 -59 41q-80 74 -80 178z" />
<glyph unicode="C" horiz-adv-x="919" d="M6 555q0 284 279 586q122 131 250 207q174 104 333 104q96 0 158 -45q73 -49 88 -135q5 -30 5 -60q0 -48 -13 -98q-63 -221 -277 -342q-53 -28 -90 -37q-29 -7 -58 -7q-52 0 -101 24q-19 8 -66 43q-4 4 -6 10q0 7 6 10l16 -4q26 -3 60 0q33 2 76 23l73 43 q215 131 267 360q4 20 4 37q0 45 -29 67q-26 17 -62 17q-34 0 -79 -15q-150 -52 -346 -221q-81 -70 -168 -166q-199 -224 -199 -426q0 -116 111 -165q43 -19 94 -19q195 0 463 162q53 33 112 86q8 -13 8 -31q0 -59 -108 -141q-67 -54 -189 -100q-149 -58 -282 -58 q-144 0 -234 72q-96 78 -96 219z" />
<glyph unicode="D" horiz-adv-x="1228" d="M-12 592q58 -82 174 -129q104 -43 215 -43q206 0 473 158q135 81 258 210q149 155 152 285v7q0 101 -80 155q-67 44 -183 47q-25 0 -41 -2q-56 -70 -172 -246q-119 -181 -170 -250q-72 -96 -151 -125q-32 -11 -60 -2q61 101 250 400q84 128 133 190q-214 -63 -428 -227 q-236 -178 -236 -310q0 -8 1 -16q25 -86 164 -86h18q175 9 324 131q118 93 137 199q1 2 2 8.5t2 9.5q10 0 18 -8q12 -50 15 -84q1 -10 1 -19q0 -172 -206 -292q-131 -76 -268 -76q-120 0 -205 55q-99 65 -99 196q0 11 1 22q6 92 96 208q250 321 674 406q74 14 108 16 q102 99 170 99q21 0 38 -12q6 -7 3 -11l-74 -76q155 -22 238 -102q94 -88 94 -236q0 -164 -125 -319q-141 -175 -350 -291q-216 -119 -436 -119q-313 0 -436 172q-39 53 -39 107z" />
<glyph unicode="E" horiz-adv-x="870" d="M-8 582v10q0 164 201 293q84 54 315 104q67 13 110 15q-59 43 -59 123v8q3 112 105 182l-31 22q-43 43 -43 91q0 97 76 97q7 0 14 -1q74 -5 74 -54q0 -8 -2 -18q-14 39 -62 39q-40 0 -49 -41q-1 -7 -1 -13q0 -52 85 -79l35 22q159 110 330 113h9q140 0 154 -94 q6 -37 6 -63q0 -44 -16 -60q-73 -82 -215 -82q-93 0 -221 45q-9 2 -53 25q-74 -65 -74 -127q0 -53 55 -90q46 -35 97 -35h8q40 0 131 12l16 2q-8 -79 -138 -79q-25 0 -54 3q-337 -44 -596 -209q-90 -60 -105 -129v-11q0 -93 152 -142q83 -25 162 -25q118 0 239 47 q136 52 191 144l12 18q7 -2 14 -16q-5 -49 -16 -90q-26 -95 -107 -154q-45 -30 -96 -51q-115 -47 -237 -47q-254 0 -373 162q-40 55 -43 133zM813 1323q8 -25 152 -25h32q181 3 217 95q-3 14 -47 14h-18q-100 0 -195 -31q-25 -7 -141 -53z" />
<glyph unicode="F" horiz-adv-x="1075" d="M-4 555q0 205 209 285q38 15 81 14q18 0 38 -2q72 -10 118 -56q40 -40 40 -97q0 -7 -1 -15q-77 95 -164 98h-16q-88 0 -154 -63q-71 -68 -71 -162q0 -76 57 -127q63 -60 178 -60q15 0 31 1q97 9 168 57q134 93 289 381q-91 12 -137 12q-23 0 -35 -4q-7 -4 -11 0t-4 10 q55 24 209 27q31 60 94 170q96 164 195 238q-305 84 -447 84h-10q-103 -3 -176 -39q-97 -45 -112 -129q-3 -13 -3 -26q0 -56 56 -89q53 -31 123 -32q6 0 12 1q63 5 120.5 41t80.5 90q8 19 4 31q-9 19 -35 25q-7 1 -13 1q-34 0 -63 -26q-15 -15 -18 -29q-27 18 -6 56 q19 33 62 51q28 12 53 12q14 0 28 -4q50 -12 68 -47q7 -15 7 -33q0 -22 -10 -47q-35 -81 -116.5 -133t-173.5 -57q-12 -1 -24 -1q-180 0 -245 132q-16 29 -16 64q0 21 6 44q14 68 84 131q60 57 137 84q93 35 219 35q53 0 115 -6q85 -10 316 -49l141 -25q278 -48 445 -47h36 q40 3 70 14q2 -10 2 -20q0 -66 -92 -98q-67 -24 -164 -27h-25q-166 0 -319 37q-98 -113 -230 -365l-2 -6q66 9 140 68q58 48 83 48q3 0 5 -1q16 -6 16 -21q-3 -20 -72 -92q-39 -39 -82 -117q-42 -83 -45 -133q-16 32 -16 74v14q3 56 35 115q-41 -15 -98 -18 q-119 -223 -230 -340q-131 -137 -319 -158q-40 -4 -77 -4q-69 0 -130 14q-116 27 -131 68q-78 75 -78 178z" />
<glyph unicode="G" horiz-adv-x="1382" d="M0 41v8q0 112 78 199q85 91 198 100h17q55 0 104 -16q43 -6 88 -66q45 -57 45 -104q0 -33 -14 -58q-73 161 -204 161q-11 0 -23 -1q-88 -8 -148 -74q-59 -64 -59 -150q0 -56 29 -106q83 -129 251 -129q224 0 476 310q32 40 192 266l29 43q-204 -143 -391 -143 q-132 0 -218.5 73t-99.5 201q-3 26 -3 53q0 202 161 436q67 98 162 187q267 252 583 252q213 0 263 -123q-82 49 -205 49q-318 0 -609 -348q-121 -145 -188 -320q-39 -98 -39 -178q0 -134 121 -184q27 -11 66 -11q20 0 43 3q52 9 102 26q270 100 506 459q76 114 112 225 q14 43 14 78q0 37 -16 64q-29 39 -86 39q-106 0 -231 -101q-179 -145 -203 -321q-3 -32 0 -60q4 -16 4 -18q-4 -4 -10 -4q-7 0 -10 6q-64 82 -64 166q0 71 43 147q120 217 342 279q43 12 90 12q33 0 68 -6q81 -13 131 -80q45 -62 45 -139v-15q33 17 98 64q35 3 35 -16 q0 -29 -92 -166q-74 -121 -217 -342q-37 -55 -250 -363q-160 -227 -260 -332q-174 -186 -336 -233q-63 -17 -129 -17q-47 0 -96 9q-58 9 -145 61q-104 58 -107 103q-40 64 -43 145z" />
<glyph unicode="H" horiz-adv-x="1333" d="M-4 510q0 196 203 276q38 16 81 15q17 0 35 -2q70 -11 114 -55q40 -40 40 -96v-11q-76 91 -160 94h-8q-89 0 -156 -61q-69 -63 -69 -158q0 -73 53 -123q61 -58 172 -58q15 0 31 1q188 15 332 233q60 95 176 312q-55 34 -137 34h-13q-158 -9 -264 -112q-4 12 -4 20 q0 59 106 113q81 43 177 49q13 1 25 1q80 0 149 -34l98 180q63 103 96 142l-53 10l-264 47q-51 11 -99 11q-11 0 -22 -1q-93 -9 -156 -43q-84 -47 -98 -120q-2 -11 -2 -21q0 -49 49 -78q41 -21 94 -21q12 0 25 1q129 15 178 127q9 15 2 26q-10 16 -29 19q-6 1 -12 1 q-29 0 -55 -26q-13 -14 -17 -24q-24 12 -6 47q18 29 56 47q29 13 54 14q9 0 17 -2q44 -9 60 -37q8 -15 8 -31q0 -19 -10 -40q-31 -73 -103.5 -125t-152.5 -60q-13 -1 -27 -1q-55 0 -109 20q-72 28 -102 86q-13 26 -13 56q0 19 5 40q15 61 76 119q53 53 118 80q101 44 244 45 q25 0 51 -2q51 -2 197 -23q126 -20 199 -20q2 2 124 20l-2 -2q53 0 53 -9q0 -2 -3 -5q-27 -19 -52 -47q-107 -119 -239 -371l-60 -115q90 -104 127 -246q180 362 353 629q133 201 227 201q14 0 32 -8t13 -17q-59 -65 -158 -221q-149 -242 -458 -831q-71 -132 -158 -144 q-17 -3 -35 8l10 21l15 33q34 64 82 194q2 14 2 29q0 86 -60 195q-25 44 -41 65q-101 -182 -151 -252q-107 -144 -207 -201q-69 -40 -191 -55q-43 -5 -83 -5q-62 0 -115 13q-13 3 -70 29q-53 24 -59 39q-76 70 -76 172z" />
<glyph unicode="I" horiz-adv-x="921" d="M0 567q-3 22 -3 43q0 142 126 209q51 26 98 29q15 2 30 1q44 0 83 -13q36 -6 84 -54q55 -55 55 -114q0 -22 -8 -41q-81 148 -200 148q-11 0 -23 -1q-82 -7 -130 -67q-39 -49 -38 -112q0 -15 2 -30q6 -52 37 -94q83 -117 245 -117q203 0 400 283q60 93 151 242 q103 206 176 338l29 51l-182 -17q-217 -30 -299 -137q-37 -46 -37 -98q0 -83 80 -121q28 -14 59 -14q65 0 125 51q42 33 45 43l-12 -4q-42 -66 -64 -90q-52 -58 -102 -64q-12 -1 -23 -1q-79 0 -141 54q-59 53 -59 150q0 120 114 215q97 79 228 113q61 15 213 38 q117 19 211 54l61 41q21 6 27 -13q1 -3 1 -7q0 -34 -69 -148l-102 -170l-193 -332q-113 -190 -204 -303q-141 -170 -285 -213q-60 -16 -119 -16q-43 0 -86 8q-60 12 -141 55q-98 52 -107 94q-43 54 -53 131z" />
<glyph unicode="J" horiz-adv-x="1200" d="M0 323q0 84 44 157q45 76 120 114q53 25 112 31q14 1 28 1q48 0 93 -16q44 -6 88 -65q45 -57 45 -105q0 -32 -14 -57q-73 161 -204 161q-11 0 -23 -1q-88 -8 -148 -74q-59 -65 -59 -151v-3q0 -52 29 -102q83 -129 251 -129q225 0 476 309l192 264q40 54 322 521 q-173 -28 -238 -43q-264 -58 -377 -183q-73 -82 -73 -166q0 -86 84 -124q29 -13 59 -13q79 0 172 78q58 49 61 59l2 2q4 0 4 -7q0 -13 -16 -54q-26 -70 -112 -119q-76 -43 -162 -43q-94 0 -150.5 55.5t-56.5 147.5q0 164 160 303q120 109 309 176q66 23 237 62 q257 58 385 161q32 3 35 -14q1 -2 1 -5q0 -34 -93 -163l-59 -94q-209 -334 -408 -610q-145 -200 -233 -303q-236 -281 -492 -281q-48 0 -96 10q-59 11 -148 60q-101 55 -104 104q-43 69 -43 149z" />
<glyph unicode="K" horiz-adv-x="1257" d="M-4 530q0 197 203 277q38 15 80 14q18 0 36 -2q154 -23 154 -148v-14q-74 89 -160 95h-15q-83 0 -149 -60q-69 -63 -69 -157q0 -75 53 -125q62 -59 172 -59q15 0 31 1q187 15 332 234q58 87 161 284q128 237 152 279q66 107 106 154q-287 50 -301 53q-51 11 -98 11 q-11 0 -22 -1q-89 -6 -158 -43q-86 -47 -98 -121q-1 -9 -1 -17q0 -52 50 -81q43 -22 94 -22q12 0 24 1q56 6 106.5 42t70.5 85q8 16 4 27q-9 15 -31 18q-6 1 -13 1q-31 0 -53 -25q-15 -15 -18 -25q-21 15 -4 47q19 31 55 49q26 13 52 13q10 0 20 -2q41 -9 57 -37 q7 -12 7 -28q0 -19 -9 -44q-31 -75 -101 -124.5t-155 -57.5q-18 -2 -36 -2q-50 0 -97 18q-72 28 -102 86q-16 31 -16 62q0 17 5 35q34 127 195 198q111 46 248 47q23 0 47 -2q53 -3 192 -24q130 -19 195 -19q8 0 58 5q41 4 60 4h7q41 -6 31 -15q-116 -84 -291 -418l-62 -116 q2 1 45 4q21 0 41 2q137 18 242 209q169 309 395 364q51 13 70 13h6q7 0 12 -5q1 -6 -8 -11t-67 -32q-85 -42 -142 -125q-34 -54 -90 -155q-125 -222 -362 -297v-2q101 -52 104 -141q0 -24 -6 -48l-10 -36q-21 -77 -27 -162q-2 -38 -1.5 -74.5t1.5 -69.5q12 -163 76 -288 q82 -166 225 -166q68 0 131.5 35.5t93.5 91.5q13 -26 13 -47q0 -59 -78 -113q-62 -39 -133 -51q-32 -4 -47 -4q-212 0 -320 260q-66 160 -69 354v22q0 161 40 334q1 7 1 13q0 37 -31 51q-19 11 -78 14q-37 5 -53 10q-121 -221 -172 -292q-104 -144 -207 -201 q-69 -40 -191 -55q-43 -5 -83 -5q-62 0 -115 13q-17 3 -72 28q-54 25 -57 39q-76 70 -76 172z" />
<glyph unicode="L" horiz-adv-x="897" d="M2 342q-3 11 -3 20q0 37 36 64q54 43 160 43h14q105 -3 205 -20q48 59 84 112q53 80 233 408q-50 17 -174 84q-123 67 -172 84q-61 23 -115 26h-10q-67 0 -100 -39q-6 9 -6 19q0 57 102 98q38 14 80 13.5t86 -13.5q47 -14 121 -63q147 -109 225 -144l78 140 q146 244 280 294q64 24 111 27q8 0 15 1q83 0 132 -52q47 -49 46 -130v-22q-18 -208 -271 -311q-116 -46 -244 -46q-21 0 -43 1q-186 -342 -249 -428q-38 -51 -70 -88q78 -20 235 -86q209 -85 265 -105q156 -54 274 -77l4 -2q156 -27 264 -28q43 0 78 5q139 15 217 59 q18 9 21 25v6q10 10 24 -10q6 -9 0 -25q-35 -75 -178 -121q-110 -34 -217 -43q-43 -3 -84 -3q-283 0 -528 124q-70 34 -301 152q-65 34 -146 59q-105 -91 -202 -100q-31 -3 -56 -3q-12 0 -22 1q-178 6 -199 94zM76 360q0 -49 67 -55l28 -2q47 0 95 16q77 21 101 64 q-131 33 -198 33h-11q-82 -6 -82 -56zM903 993q23 -4 45 -4q137 0 281 139q99 92 121 185q3 16 3 30q1 39 -25 63q-23 21 -56 21q-17 0 -37 -6q-93 -28 -180 -164l-144 -249z" />
<glyph unicode="M" horiz-adv-x="1789" d="M0 621q6 111 86 194t193 92l28 2q45 0 84 -16q43 -6 76 -57q37 -52 37 -95q0 -28 -17 -59q-60 150 -183 150q-9 0 -19 -1q-85 -7 -143.5 -68.5t-63.5 -146.5v-12q0 -47 20 -82q65 -121 230 -121q209 0 458 289q27 31 199 248q96 128 221 317q-235 38 -346 60 q-47 10 -94 10q-20 0 -41 -2q-102 -9 -160 -53q-66 -48 -66 -126q0 -10 1 -20q9 -75 80 -116q47 -25 108 -25q17 0 35 2q60 8 104 51t50 103v5q0 44 -48 50h-7q-37 0 -56 -31q-13 -22 -10 -30q-25 11 -25 40q0 8 2 17q7 36 45 59q28 17 55 17q10 0 19 -2q101 -19 101 -115 q0 -8 -1 -16q-7 -87 -69 -149.5t-150 -74.5q-25 -4 -49 -4q-118 0 -213 86q-75 69 -78 152v9q0 51 31 112q86 181 387 181q19 0 39 -1q66 -4 240 -29q107 -15 191 -15q25 0 48 1q61 3 90 22q19 11 25 9q17 0 20 -13q0 -10 -8 -26q-20 -44 -33 -95q-94 -357 -151 -667 q392 638 737 823q45 23 68 31q22 8 38 8q21 0 29 -14q6 -9 -4 -29q-52 -64 -82 -94q-148 -195 -243 -469q-101 -276 -101 -516q0 -203 78 -359q82 -166 223 -166q68 0 133 35.5t95 91.5q9 -22 9 -44q0 -35 -24 -68q-34 -46 -94 -72q-73 -31 -137 -31q-211 0 -322 260 q-67 158 -67 373q0 442 276 881q-314 -262 -657 -914q-14 -26 -27 -26h-86q-33 0 -27 30l7 31q34 202 133 690l-166 -215q-272 -348 -449 -460q-133 -83 -266 -86q-38 0 -90 10q-162 35 -225 153q-31 56 -31 124v12z" />
<glyph unicode="N" horiz-adv-x="1429" d="M0 621q6 111 86 194t193 92l28 2q45 0 84 -16q43 -6 76 -57q37 -52 37 -95q0 -28 -17 -59q-60 150 -183 150q-9 0 -19 -1q-84 -6 -143 -68t-64 -147v-12q0 -47 20 -82q65 -121 230 -121q211 0 460 289q81 95 197 248l221 317q-331 57 -346 60q-49 10 -96 10q-20 0 -39 -2 q-102 -9 -160 -53q-66 -48 -66 -126q0 -10 1 -20q9 -75 80 -116q47 -25 108 -25q17 0 35 2q60 8 104 51t50 103v5q0 44 -48 50h-7q-37 0 -56 -31q-13 -22 -10 -30q-25 11 -25 40q0 8 2 17q7 36 45 59q28 17 55 17q10 0 19 -2q101 -19 101 -115q0 -8 -1 -16 q-10 -101 -85 -163.5t-179 -62.5q-96 0 -176 51q-113 70 -119 185v9q0 49 31 112q86 181 387 181q19 0 39 -1q26 -2 258 -31q98 -13 180 -13q41 0 78 3q7 2 61 27q13 4 19 2q15 0 18 -13l-24 -65q-10 -24 -25 -84q-89 -340 -137 -615q411 691 860 744q46 5 83 5q16 0 30 -1 q205 -9 321 -131q70 -72 70 -137q0 -10 -2 -19q-3 -20 -31 -35q-41 116 -141 179q-95 59 -221 65q-17 1 -33 1q-480 0 -877 -763q-102 -190 -120 -223q-5 -8 -17 -8h-86q-30 0 -27 30q55 363 140 721l-166 -215q-161 -208 -262 -309q-178 -175 -330 -219q-65 -16 -126 -16 q-44 0 -87 8q-162 35 -225 153q-31 56 -31 124v12z" />
<glyph unicode="O" horiz-adv-x="989" d="M4 555q-3 27 -3 55q0 206 159 434q67 98 162 187q241 229 530 250q33 3 63 3q203 0 252 -124q-82 49 -202 49q-318 0 -609 -348q-121 -145 -188 -320q-39 -98 -39 -178q0 -135 119 -184q29 -11 67 -11q20 0 43 3q58 11 101 26q263 93 508 459q78 120 112 225q13 45 13 79 q0 39 -17 63q-26 39 -84 39q-108 0 -233 -101q-177 -143 -201 -321q-3 -32 0 -60q4 -15 2 -18q-4 -4 -10 -4q-5 0 -8 6q-66 84 -66 166q0 71 43 147q120 217 342 279q45 12 92 12q34 0 68 -6q77 -13 126.5 -77.5t49.5 -145.5q0 -136 -111 -324q-81 -141 -235 -283 q-275 -251 -531 -251q-134 0 -218 72t-97 202z" />
<glyph unicode="P" horiz-adv-x="1333" d="M-4 555q0 202 209 285q38 15 81 14q18 0 38 -2q74 -11 118 -56q39 -40 40 -96q0 -8 -1 -16q-77 95 -164 98h-15q-86 0 -152 -63q-72 -69 -72 -162q0 -75 55 -127q63 -60 178 -60q15 0 31 1q191 15 342 241q50 76 121 209l110 203q174 289 330 289h12q-118 41 -253 41 q-66 0 -123 -8q-213 -27 -355 -142q-110 -88 -110 -190q0 -23 2 -31q15 -80 129 -80q74 0 139 46.5t98 119.5q11 26 9 35q-9 26 -35 26q-27 0 -56.5 -21.5t-35.5 -45.5q-11 8 -11 23q0 17 15 42q47 80 125 80q60 0 75 -55q2 -11 2 -23q0 -33 -18 -71q-44 -97 -137 -168 q-95 -74 -201 -74q-86 0 -146.5 55t-60.5 138q0 25 6 49q9 89 93 182q193 211 571 211q202 0 375 -78q214 -96 241 -272q4 -36 4 -51q0 -188 -264 -338q-218 -123 -389 -123h-16q-53 0 -60 20q0 27 41 33q259 34 435 213q115 117 115 221q0 8 -1 15q-9 134 -164 204 q-28 -22 -53 -47q-103 -109 -254 -395q-148 -281 -258 -397q-131 -137 -319 -158q-40 -4 -77 -4q-69 0 -130 14q-17 4 -72 29q-53 24 -59 39q-78 75 -78 178z" />
<glyph unicode="Q" horiz-adv-x="989" d="M0 176q3 14 49 35q154 65 440 65q216 0 410 -43q331 -71 455 -71q77 8 200 16q13 0 19 -6l-10 -6v2q-27 -12 -101 -29q-117 -24 -268 -24q-246 0 -553 69q-179 40 -312 40q-25 0 -48 -1q-80 -7 -127 -20l-97 -31q-18 -6 -32 -6q-12 0 -25 10zM12 555q-3 28 -3 57 q0 198 159 432q57 86 164 187q241 229 528 250q33 3 63 3q201 0 255 -124q-82 49 -205 49q-317 0 -608 -348q-122 -147 -189 -320q-39 -98 -39 -178q0 -134 121 -184q29 -11 67 -11q19 0 42 3q55 11 100 26q263 93 508 459q78 120 112 225q14 43 14 78q0 37 -16 64 q-29 39 -86 39q-108 0 -233 -101q-177 -143 -201 -321q-3 -32 0 -60q4 -16 4 -18q-4 -4 -10 -4q-7 0 -10 6q-66 84 -66 166q0 71 43 147q120 217 342 279q45 12 92 12q33 0 68 -6q77 -12 126.5 -76t49.5 -147q0 -137 -108 -324q-81 -141 -238 -283q-278 -251 -530 -251 q-132 0 -217.5 73t-98.5 201z" />
<glyph unicode="R" horiz-adv-x="1202" d="M-4 555q0 202 209 285q38 15 81 14q18 0 38 -2q74 -11 118 -56q39 -40 40 -96q0 -8 -1 -16q-77 95 -164 98h-15q-86 0 -152 -63q-72 -69 -72 -162q0 -75 55 -127q63 -60 178 -60q15 0 31 1q191 15 342 241q50 76 121 209l110 203q120 200 238 262q33 16 66 25 q38 -6 77 -15q-102 -72 -229 -301l-145 -272q240 27 419 186q120 108 120 204q0 7 -1 13q-15 188 -334 228q-65 8 -131 8q-57 0 -114 -6q-213 -21 -355 -127q-110 -82 -110 -172q0 -73 80 -94q27 -9 51 -9q72 0 138.5 43t98.5 109q11 25 9 31q-9 24 -35 24t-56 -18.5 t-36 -40.5q-11 7 -11 20q0 15 15 37q51 72 125 72q60 0 75 -49q3 -10 3 -21q0 -29 -19 -65q-50 -94 -145 -155.5t-193 -61.5q-97 0 -162 65q-45 45 -45 107q0 23 6 47q9 80 93 164q190 190 571 190q215 0 389 -76q231 -102 231 -286q0 -168 -264 -306q-145 -74 -291 -100 l3 -2l-3 2l9 -6h-4v-4q61 -34 79 -96q3 -13 3 -27q0 -26 -11 -55q-22 -44 -69 -185q-25 -106 -25 -202q0 -149 51 -248q65 -129 201 -129q147 0 225 100q4 -20 4 -31q0 -55 -75 -98q-73 -46 -160 -49q-10 -1 -20 -1q-166 0 -255 144q-77 127 -77 316q0 223 106 467 q6 22 4 34q-9 33 -100 48q-14 0 -41 6q-136 -228 -283 -312q-73 -45 -194 -57q-40 -4 -77 -4q-69 0 -130 14q-116 27 -131 68q-78 75 -78 178z" />
<glyph unicode="S" horiz-adv-x="1183" d="M0 524q0 129 156 234q172 114 382 114h11q78 0 145 -28q84 -38 84 -107q0 -54 -71 -84q-41 -18 -76 -18q-19 0 -29 2q43 40 43 78q0 6 -4 18q-37 58 -137 64q-20 1 -38 1q-210 0 -296 -155q-27 -48 -27 -102q0 -14 2 -29q24 -157 291 -184q54 -4 78 -4q311 0 418 235 q16 37 16 72q0 95 -114 227q-88 102 -168 213q-39 68 -39 131q0 91 65 174q92 115 291 121q11 0 22 1q158 0 252 -81q58 -50 58 -120v-7q-3 -55 -94 -131q-59 -52 -121 -117q-14 14 -26.5 49.5t-8.5 53.5q9 15 35 41q76 73 82 131q1 6 1 12q0 41 -38 70q-35 30 -86 39 q-21 3 -44 3q-12 0 -24 -1q-87 -2 -149 -58t-62 -139q0 -75 51 -135l191 -215q119 -140 119 -252q0 -170 -223 -283q-187 -94 -443 -94q-146 0 -274 41q-170 56 -197 172q-4 32 -4 47z" />
<glyph unicode="T" horiz-adv-x="923" d="M-4 555q0 205 209 285q41 15 83 14q18 0 36 -2q74 -11 118 -56q39 -40 40 -96q0 -8 -1 -16q-77 95 -164 98h-15q-86 0 -152 -63q-72 -69 -72 -162q0 -75 55 -127q63 -60 178 -60q15 0 31 1q191 15 342 241q50 76 121 209l110 203q129 214 252 270q-246 43 -399 43 q-162 0 -270 -57q-125 -64 -125 -166q0 -65 73 -92q37 -13 83 -14q23 0 49 4q70 8 131.5 49t87.5 100q9 21 2 31q-8 17 -37 20h-8q-41 0 -74 -30q-18 -18 -21 -31q-17 8 -17 24q0 13 11 31q20 32 69 55q39 18 71 18q8 0 16 -1q53 -9 72 -41q10 -15 10 -34q0 -21 -12 -46 q-38 -85 -127 -146t-187 -73q-24 -3 -47 -3q-59 0 -115 17q-91 27 -129 92q-17 33 -17 69q0 20 5 40q22 72 96 141q60 57 144 95q142 61 343 61h19q118 -4 340 -20l154 -13l194 -12q49 -2 96 -2q125 0 234 12q27 2 74 21q2 -6 2 -19q0 -121 -277 -151q-77 -9 -190 -9 q-86 0 -219 19q-103 -87 -250 -363q-138 -261 -201 -350q-104 -142 -215 -207q-73 -45 -194 -57q-40 -4 -77 -4q-69 0 -130 14q-116 27 -131 68q-78 75 -78 178z" />
<glyph unicode="U" horiz-adv-x="952" d="M0 1346q9 89 94 147q74 51 172 51q34 0 68 -6q148 -27 246 -143q89 -102 89 -237q0 -12 -1 -25q-6 -98 -64 -211q-34 -67 -112 -195l-119 -186q-37 -59 -37 -92q0 -7 2 -13q6 -27 47 -33q6 -1 12 -1q79 0 211 110q118 100 158 182q176 379 436 799q55 -27 55 -115 q0 -54 -30 -112q-284 -530 -391 -791q-68 -164 -78 -237q-2 -2 -8 -2q-58 0 -76 71q-8 28 -8 62q0 25 4 53q3 27 10 49q-156 -141 -279 -147h-8q-103 0 -147 71q-27 41 -27 88q0 91 84 232q18 33 107 159q64 93 104 166q51 99 51 184v9q-3 70 -57 133q-77 92 -182 113 q-22 4 -43 4q-31 0 -62 -8q-130 -35 -139 -140q-1 -9 -1 -17q0 -79 77 -128q65 -41 166 -47q-46 -25 -98 -25h-11q-70 6 -135 56q-81 64 -81 154q0 9 1 18z" />
<glyph unicode="V" horiz-adv-x="940" d="M0 1155q3 47 47 115q107 170 415 171q16 0 32 -1q49 -2 176 -19q139 -20 174 -22q12 -1 27 -1q44 0 110 7q80 9 80 10q-41 -126 -129 -366q-79 -216 -131 -369q217 298 416 473q346 302 664 302q18 0 36 -1q215 -12 313 -137q56 -71 56 -129q0 -50 -43 -68 q-24 120 -125 187q-88 58 -217 67q-17 1 -35 1q-309 0 -621 -304q-253 -247 -536 -704q-21 -37 -37 -37h-88q-32 0 -23 28q132 453 299 877l8 18q-12 0 -18 2l-29 7l-334 55q-51 10 -97 10q-20 0 -38 -2q-100 -9 -164 -51q-81 -52 -84 -137v-6q0 -71 68 -105q41 -24 98 -24 q18 0 37 2q60 6 109.5 48t62.5 99q1 7 1 13q0 33 -40 38h-7q-38 0 -60 -28q-15 -18 -15 -31q-29 16 -14 55q14 34 52 56q28 16 55 16q10 0 20 -2q88 -18 88 -88q0 -95 -96 -179q-73 -60 -158 -69q-20 -2 -39 -2q-58 0 -114 20q-83 30 -123 94q-30 45 -30 94q0 9 1 17z" />
<glyph unicode="W" horiz-adv-x="1357" d="M0 1143q3 48 49 121q109 181 411 181q19 0 38 -1q27 -2 254 -31q98 -13 180 -13q41 0 78 3q5 0 32 8q24 9 29 4q4 -4 4 -8q0 -11 -16 -43l-2 -6l-2 -2l-6 -17q-120 -311 -250 -682q296 401 551 607l69 61q11 4 11 -6v-14q-2 -17 -29 -86q-88 -217 -199 -557 q226 309 424 483q346 302 665 302q18 0 36 -1q221 -12 315 -137q53 -71 53 -127q0 -49 -41 -70q-27 120 -127 186q-89 59 -217 68q-17 1 -35 1q-310 0 -620 -302q-196 -190 -398 -492q-56 -79 -151 -223l-2 -4q-8 -14 -25 -14h-88q-29 0 -20 30l121 349q72 208 145 338 q-194 -194 -530 -697l-5 -6q-11 -14 -24 -14h-88q-30 0 -21 30q133 463 308 902q-4 -2 -19 -2h-11q-108 0 -358 53q-46 10 -92 10q-20 0 -41 -2q-104 -9 -168 -53q-81 -51 -84 -146v-6q0 -71 66 -110q42 -25 100 -25q18 0 37 2q62 8 111.5 51t62.5 103q2 10 2 18 q0 33 -39 37h-7q-37 0 -62 -31q-15 -18 -15 -30q-19 9 -19 31q0 11 5 26q12 35 52 58q31 18 60 17q9 0 17 -1q86 -15 86 -93q0 -10 -4 -38q-20 -88 -89.5 -150t-160.5 -74q-18 -2 -36 -2q-60 0 -119 23q-83 35 -123 98q-30 48 -30 98q0 8 1 17z" />
<glyph unicode="X" horiz-adv-x="1189" d="M-4 672q0 132 100 301q75 129 221 260q260 233 490 233q128 0 208 -72.5t87 -199.5q136 148 334 225q70 27 139 27q130 0 182 -76q-50 16 -104 16q-101 0 -211 -49q-220 -96 -383 -411q-96 -187 -96 -301q0 -68 28 -129q61 -131 189 -181h-15q-44 0 -86 15 q-206 77 -215 315q-251 -272 -549 -293q-29 -2 -55 -2q-191 0 -240 115q77 -47 191 -47q293 0 563 325q111 131 174 295q37 93 37 166q0 124 -113 170q-29 11 -63 11q-18 0 -37 -3q-150 -21 -330 -176q-127 -109 -235 -274q-68 -105 -103 -207q-13 -39 -13 -71q0 -35 15 -62 q27 -35 80 -35q97 0 215 92q167 135 187 299q3 28 0 56q-4 12 -2 16q4 4 8 4q8 -3 8 -6q62 -77 62 -154q0 -66 -41 -137q-114 -203 -316 -258q-43 -11 -87 -11q-30 0 -60 5q-71 12 -117.5 72.5t-46.5 136.5z" />
<glyph unicode="Y" horiz-adv-x="1263" d="M0 201q0 84 44 157q45 75 120 113q52 27 112 33q14 1 27 1q48 0 94 -16q47 -9 90 -67t43 -105q0 -30 -14 -55q-73 161 -204 161q-11 0 -23 -1q-88 -9 -150 -74q-57 -63 -57 -147v-8q0 -53 29 -103q80 -127 251 -127q248 0 541 393q-62 -29 -110 -32h-8q-101 0 -150 71 q-25 36 -25 90q0 107 111 271q58 86 184 284q49 83 49 182v11q-3 69 -55 133q-77 92 -184 113q-28 4 -39 4q-122 0 -180 -88q-19 -28 -23 -60q-1 -7 -1 -14q0 -65 52 -111q46 -44 125 -59q26 -5 66 -8q-49 -25 -100 -25h-11q-57 3 -121 45q-62 41 -80 94q-13 38 -13 75 q0 7 1 14q12 140 187 186q38 9 70 9q9 0 18 -1q58 -3 59 -2q148 -27 246 -143q89 -102 89 -237q0 -12 -1 -25q-9 -95 -64 -211q-49 -97 -112 -195q-78 -118 -119 -186q-38 -64 -38 -97q0 -4 1 -8q10 -30 47 -33q9 -1 18 -1q81 0 183 96q83 77 147 178q36 53 205 317 q69 123 168 283q30 49 98 90q102 63 111 72q33 3 37 -15v-1q0 -26 -94 -167l-217 -342q-57 -89 -230 -333l-84 -117q-133 -185 -233 -303q-241 -282 -495 -282q-46 0 -93 9q-77 15 -148 62q-42 27 -104 102q-43 69 -43 150z" />
<glyph unicode="Z" horiz-adv-x="935" d="M57 473q44 26 99 35q20 3 47 3q16 0 35 -1q113 -9 188 -18q63 46 121 104q101 101 268 287q188 212 258 282q69 72 135 131q-78 12 -299 54q-48 9 -93 9q-12 0 -25 -1q-90 -9 -156 -49q-79 -51 -88 -129q-1 -10 -2 -18q0 -57 51 -87q40 -22 90 -22q15 0 31 2 q56 6 103.5 44.5t66.5 92.5q6 19 0 29q-8 17 -31 20h-6q-34 0 -57 -29q-14 -17 -17 -26q-23 14 -8 51q12 32 50 52q29 15 57 15q8 0 16 -1q70 -15 70 -72q0 -21 -9 -45q-25 -78 -93 -134t-148 -67q-17 -2 -34 -2q-53 0 -104 21q-71 27 -102 90q-17 32 -17 71q0 15 3 31 q10 52 53 109q116 159 388 160q15 0 30 -1q52 -4 225 -26q88 -11 158 -11q37 0 69 3q8 0 66 6q17 7 45 10q41 6 63 0q24 -7 22 -10q0 -1 -3 -2q-178 -105 -455 -422q-316 -359 -432 -465q-39 -35 -108 -88q69 -21 213 -82q312 -133 501 -174l2 -2q154 -28 274 -28q39 0 74 3 q49 4 144 23q110 24 125 51q0 2 3 5t7 3q6 0 12 -12q7 -10 -6 -23q-63 -69 -215 -110q-118 -31 -242 -37q-36 -2 -71 -2q-300 0 -518 116q-18 10 -65 36t-99 55t-105 59q-31 16 -131 55q-151 -91 -298 -91q-13 0 -27 1q-41 2 -86 14q-70 24 -70 72q0 46 57 82zM70 397 q0 -30 51 -39q31 -3 61 0q98 16 158 58l-2 -2q10 3 22 18q-77 20 -157 29q-25 3 -49 0q-84 -9 -84 -64z" />
<glyph unicode="[" horiz-adv-x="208" d="M-2560 -129q9 36 59 100q53 68 56 125q3 45 -2 66q11 7 53 16q278 62 625 62q105 0 249 -7q82 -3 602 -59q222 -22 379 -22q439 0 617 184q67 70 67 104q0 20 -18 29q-11 6 -42.5 -7.5t-45.5 -27.5q-28 -28 -41 -8l-10 16q-7 16 12 35q66 60 127 60q82 0 82 -88 q0 -73 -113 -189q-169 -178 -420 -225q-144 -27 -364 -27q-145 0 -301 8l-260 13q-390 9 -602 -6q-339 -24 -539 -82q-94 -27 -170 -70z" />
<glyph unicode="]" horiz-adv-x="208" d="M-2560 -129q9 36 59 100q53 68 56 125q3 45 -2 66q11 7 53 16q278 62 625 62q105 0 249 -7q82 -3 602 -59q222 -22 379 -22q439 0 617 184q67 70 67 104q0 20 -18 29q-11 6 -42.5 -7.5t-45.5 -27.5q-28 -28 -41 -8l-10 16q-7 16 12 35q66 60 127 60q82 0 82 -88 q0 -73 -113 -189q-169 -178 -420 -225q-144 -27 -364 -27q-145 0 -301 8l-260 13q-390 9 -602 -6q-339 -24 -539 -82q-94 -27 -170 -70z" />
<glyph unicode="a" horiz-adv-x="509" d="M2 428q-2 16 -2 31q0 122 125 250q93 96 176 96q98 0 98 -116v-7q36 61 45 70q24 28 57 28q8 0 17 -2q28 -3 25 -22t-137 -240q-64 -105 -64 -110q0 -2 12 -2q25 0 74 28l84 47q39 9 39 -20q0 -28 -86 -78q-96 -54 -179 -54q-12 0 -24 1q-28 2 -28 36q0 9 2 19 q-71 -59 -132 -59q-87 0 -102 104zM113 496q0 -84 67 -84q51 0 103 61l20 39l35 63q1 2 2 6t2 5q6 23 6 46q0 19 -4 38q-9 49 -55 49q-62 0 -121 -80q-55 -76 -55 -143z" />
<glyph unicode="b" horiz-adv-x="509" d="M-72 331q0 14 97 181l223 379q32 60 104 164q15 15 43 15q8 0 17 -1q15 -3 21.5 -8.5t4.5 -13.5q-3 -21 -57 -109l-115 -188q68 51 129 51q80 0 86 -96q0 -9 1 -17q0 -153 -152 -285q4 -1 8 -1q25 0 78 30l84 47q37 9 37 -20q0 -28 -86 -78q-92 -53 -250 -59 q-24 -3 -51 4q-71 3 -71 91q0 10 1 21l-12 -20l-23 -37q-25 -40 -35 -48q-15 -10 -42 -10q-10 0 -21 1q-19 0 -19 7zM119 459q0 -47 45 -47q52 0 115 57q89 77 98 176q1 7 1 14q0 56 -48 56q-63 0 -135 -84l-64 -105q-12 -34 -12 -67z" />
<glyph unicode="c" horiz-adv-x="430" d="M-2 428q-1 13 -1 26q0 122 124 255q90 96 178 96q59 -1 90 -45q18 -27 19 -55q0 -20 -9 -41q-13 -34 -52 -62t-77 -33q56 43 64 82q3 13 3 23q0 45 -52 45q-51 0 -111 -72q-65 -83 -65 -151q0 -89 98 -95h12q83 0 213 78q37 9 37 -20q0 -19 -12 -31q-58 -39 -74 -47 q-103 -56 -227 -62h-14q-130 0 -144 109z" />
<glyph unicode="d" horiz-adv-x="524" d="M2 428q-2 16 -2 31q0 122 125 250q93 96 176 96q98 0 98 -109q0 -15 -2 -32l135 225q37 64 105 164q18 18 59 12q30 -6 27 -23q-3 -20 -57 -108l-256 -418q-64 -105 -64 -110q0 -2 12 -2q25 0 74 28l84 47q33 9 39 -20q0 -28 -86 -78q-96 -54 -179 -54q-12 0 -24 1 q-28 2 -28 36q0 9 2 19v4q-69 -63 -136 -63q-87 0 -102 104zM113 496q0 -84 67 -84q59 0 117 82l10 18q11 18 35 74q6 23 6 46q0 19 -4 38q-9 49 -55 49q-62 0 -121 -80q-55 -76 -55 -143z" />
<glyph unicode="e" horiz-adv-x="432" d="M-4 428q-2 13 -2 26q0 82 65 179q43 65 115 121q66 52 125 52q14 0 27 -3q42 -10 64 -45q16 -26 15 -56q0 -11 -2 -24q-8 -42 -36 -84q-72 -93 -181 -102h-12q-45 0 -65 20q-1 -8 -1 -15q0 -87 99 -96q7 -1 13 0q72 0 173 58q17 12 37 20q37 9 37 -23q0 -26 -45 -53 q-135 -78 -266 -84h-14q-132 0 -146 109zM158 541h9q27 0 60 14q82 39 105 94v2q4 14 4 26q0 42 -53 42q-54 0 -109 -70q-53 -67 -53 -90q0 -15 37 -18z" />
<glyph unicode="f" horiz-adv-x="241" d="M-281 -41q6 50 50 115l12 18l4 8l65 113q15 30 179 303l34 55l189 318q52 87 104 164q15 15 39 15q11 0 23 -3q27 -3 24 -23t-57 -108l-182 -303l-135 -225q5 -2 12 -2q25 0 74 28l84 47q36 9 36 -20q0 -28 -88 -80q-89 -50 -168 -53l-145 -244q-32 -43 -57 -100l-4 -21 q68 27 147 135q80 109 80 178q0 20 -12 29q23 -3 32 -45q2 -9 2 -19q0 -57 -61 -145q-134 -192 -242 -192q-40 0 -40 44q0 6 1 13z" />
<glyph unicode="g" horiz-adv-x="505" d="M-111 -45q0 69 50 158q45 81 103 135t151 94l12 20q-55 -38 -105 -38q-89 0 -104 104q-1 13 -1 26q0 120 126 255q94 98 170 98q102 0 102 -116v-7q25 41 60 80q20 20 59 14q14 -3 21 -9t6 -13q-3 -19 -58 -109l-96 -153l-61 -103q41 3 184 88q37 9 37 -20q0 -18 -13 -31 q-77 -54 -122 -72q-72 -30 -138 -49l-112 -188q-30 -50 -51 -80q-34 -53 -35 -55l-51 -62q-44 -48 -81 -48q-6 0 -12 1q-41 9 -41 80zM-74 -18q-3 -16 0 -25t8 -6q33 12 113 147l70 115l26 49q-81 -40 -141 -115q-64 -79 -76 -165zM109 496q0 -84 67 -84q41 0 82 41 q56 59 78 135q8 28 8 52q0 34 -16 58q-18 21 -45 21q-60 0 -119 -80q-55 -79 -55 -143z" />
<glyph unicode="h" horiz-adv-x="466" d="M-59 330q-6 9 6 32q34 54 88 150q93 160 164 279q-63 9 -72 45q25 -5 33 -5q26 0 67 9l31 51l76 127l31 49l36 61l15 21q57 78 107 78q8 0 16 -2q57 -12 57 -92q0 -47 -31 -111q-69 -134 -178 -186q-21 -12 -76 -33l-39 -64q79 62 142 62h6q63 -6 63 -91v-8 q-3 -66 -59 -155l-70 -101q-20 -26 -20 -38q0 -7 6 -7q13 0 92 48q19 14 43 24q4 2 12 2q24 0 21 -22q3 -8 -14 -31q-40 -40 -189 -96q-40 -9 -66 -9q-46 0 -46 27q0 32 75 137q88 122 97 160q3 15 3 27q0 43 -42 43q-44 0 -119 -78l-150 -252q-22 -37 -39.5 -50t-58.5 -7 q-15 0 -18 6zM354 877q84 33 144 104.5t61 148.5q0 12 -3.5 20t-10.5 7q-36 -9 -101 -131h-2q-2 -3 -9 -15.5t-18 -32t-24 -40.5z" />
<glyph unicode="i" horiz-adv-x="243" d="M-39 383q2 7 68 129l55 96q49 88 106 166q18 18 60 12q15 -3 21.5 -8.5t4.5 -13.5q-4 -18 -145 -248q-22 -35 -37 -61t-21 -37.5t-5 -11.5q6 -2 13 -2q26 0 75 28l84 47q36 9 36 -20t-88 -78q-96 -54 -175 -54q-12 0 -23 1q-31 2 -31 37q0 8 2 18zM242 846q0 23 22 59 q58 88 121 88q29 0 29 -28q0 -22 -23 -60q-58 -88 -121 -88q-28 0 -28 29z" />
<glyph unicode="j" horiz-adv-x="239" d="M-377 -45q0 70 49 158q45 81 103 135t151 94l148 250q75 141 116 182q18 18 60 12q15 -3 21.5 -8.5t4.5 -13.5q-2 -17 -57 -109l-35 -53l-127 -211q52 6 183 88q36 9 36 -20q0 -19 -12 -31q-66 -49 -123 -72q-88 -34 -135 -49l-112 -188l-23 -37l-29 -43q-34 -53 -35 -55 l-51 -62q-43 -48 -80 -48q-6 0 -12 1q-41 9 -41 80zM-340 -18q-3 -16 0 -25t8 -6q33 12 113 147l69 115l27 49q-81 -40 -141 -115q-64 -79 -76 -165zM242 846q0 23 22 59q58 88 121 88q29 0 29 -28q0 -22 -23 -60q-58 -88 -121 -88q-28 0 -28 29z" />
<glyph unicode="k" horiz-adv-x="471" d="M-66 330q-5 8 7 32q34 54 88 150q93 160 164 279q-63 9 -72 45q25 -5 33 -5q26 0 67 9l31 51l76 127l30 49l37 61l15 21q57 78 107 78q8 0 15 -2q58 -12 58 -92q0 -47 -31 -111q-69 -134 -178 -186q-21 -12 -76 -33l-29 -47q68 45 115 45h6q97 -6 97 -86q0 -34 -25 -76 q-42 -73 -98 -90q-11 -4 -11 -6q44 -29 35 -35q0 -18 -26 -51q-27 -35 -27 -41t8 -6q12 0 129 69q35 9 35 -20q0 -35 -80 -76q-81 -37 -112 -49q-39 -8 -65 -8q-43 0 -50 22q-2 6 -2 13q0 24 26 59q38 51 45 65q4 12 5 13q0 12 -33 12q-88 -2 -113 -2h-10l-53 -90l-21 -37 q-28 -42 -40 -50q-19 -12 -58 -7q-16 0 -19 6zM154 555q219 9 219 115q0 43 -47 43q-54 0 -113 -62zM348 877q84 33 144 104.5t61 148.5q0 12 -3.5 20t-10.5 7q-36 -9 -101 -131h-2q-2 -3 -9 -15.5t-18 -32t-24 -40.5z" />
<glyph unicode="l" horiz-adv-x="280" d="M-12 346q-10 12 -10 33q0 24 12 59q1 1 5 11t14 34t22 49q70 169 151 306q92 159 103 170q132 209 200 209q38 0 38 -51q0 -15 -3 -36q-23 -131 -102 -274q-151 -269 -318 -393q-22 -42 -22 -49q0 -8 8 -11q5 -2 12 -2q33 0 103 35q46 25 82 39q36 9 36 -20 q3 -10 -12 -31q-141 -100 -262 -100q-41 0 -57 22zM139 561q78 65 156 184q122 182 162 314q11 35 16 63q0 9 -2 11q-56 -44 -274 -453q-44 -83 -58 -119z" />
<glyph unicode="m" horiz-adv-x="763" d="M-63 330q-6 9 6 32l80 136l8 14l69 117q77 133 105 164q13 15 37 14q11 0 24 -2q28 -3 25 -23q-2 -10 -25 -51q36 27 39 29q65 45 123 45q76 0 76 -98q103 100 190 100q80 0 80 -91v-7q-3 -71 -59 -158q-19 -31 -70 -100q-22 -31 -22 -41q0 -4 6 -4q9 0 22 8q9 4 115 63 q33 9 33 -20q0 -9 -15 -33q-41 -35 -190 -96q-39 -8 -65 -8q-42 0 -48 22q-1 3 -1 7q0 34 75 134q89 121 98 164t-8 60q-10 8 -23 8q-23 0 -57 -21q-64 -40 -129 -143l-98 -170q-23 -38 -37 -49q-18 -13 -61 -10q-16 3 -19 6q-6 13 6 34q66 116 125 209q25 63 27 76 q9 44 -10 60q-9 8 -23 8q-28 0 -76 -33q-59 -46 -82 -80q-14 -19 -32 -51q-5 -7 -52 -84l-30 -49l-21 -37q-28 -42 -40 -50q-19 -12 -58 -7q-15 0 -18 6z" />
<glyph unicode="n" horiz-adv-x="481" d="M-59 330q-6 9 6 32l80 136l8 14l69 117q77 133 105 164q13 15 37 15q11 0 24 -3q28 -3 25 -23q-3 -12 -12 -30q79 55 135 55q80 0 81 -91q0 -3 -1 -7q-3 -64 -60 -158l-71 -100q-21 -27 -21 -41q0 -4 6 -4q4 0 137 71q33 9 33 -20q0 -7 -16 -33q-39 -36 -189 -96 q-39 -8 -65 -8q-42 0 -47 22q-1 3 -1 7q0 36 75 134q89 121 98 164q3 15 3 26q0 44 -36 44q-58 0 -141 -99q-12 -17 -94 -151l-31 -49l-21 -37q-28 -42 -40 -50q-19 -12 -58 -7q-15 0 -18 6z" />
<glyph unicode="o" horiz-adv-x="473" d="M-14 436q0 138 149 281q93 88 185 88q19 0 38 -4q88 -18 88 -119q0 -123 -106 -250q16 -4 22 -4q27 0 56 16q17 12 61 35q37 9 37 -20q0 -28 -86 -78q-46 -24 -99 -24q-11 0 -22 1q-20 0 -41 7q-54 -31 -94 -41q-28 -6 -53 -6q-41 0 -74 16q-61 30 -61 102zM111 494 q0 -81 65 -81q7 0 14 1q-17 28 -20 51q-1 9 -1 18q0 62 56 105q6 -74 58 -123q53 53 73 121q9 29 9 55q0 16 -3 31q-9 47 -59 47q-55 0 -121 -72q-71 -83 -71 -153z" />
<glyph unicode="p" horiz-adv-x="493" d="M-238 68q-5 7 7 34l88 150l223 379q80 138 104 162q15 15 44 15q8 0 18 -1q27 -3 24 -23q-3 -15 -18 -45q77 62 141 62q82 0 88 -96v-17q0 -155 -153 -285q4 -1 8 -1q25 0 78 30l84 47q37 9 37 -20q3 -22 -33 -47l-53 -31q-89 -53 -248 -59q-26 -3 -54 4q-70 3 -70 94 q0 10 1 22v11l-199 -332q-23 -38 -37 -49q-20 -14 -61 -11q-15 3 -19 7zM117 459q0 -47 45 -47q51 0 114 57q92 83 101 176q1 7 1 13q0 57 -50 57q-69 0 -140 -92q-71 -89 -71 -164z" />
<glyph unicode="q" horiz-adv-x="505" d="M-39 -66q12 35 21 56q52 107 69 110q27 44 66 113l88 149q-52 -38 -105 -38q-87 0 -102 104q-2 16 -2 31q0 122 125 250q94 98 172 98q102 0 102 -116v-7q33 56 47 70q22 26 53 26q9 0 19 -2q28 -3 25 -22q-10 -33 -138 -240l-77 -125q32 3 92 37q38 19 92 51 q33 9 39 -20q0 -25 -86 -78q-43 -26 -148 -62q26 -35 26 -76q0 -8 -1 -16q-9 -78 -94 -172q-67 -73 -152 -127q-49 -28 -90 -34q-25 -6 -36 4.5t-5 35.5zM86 -18q0 -5 2 -5q9 -3 45 25q60 51 105 119q51 77 51 145q0 26 -10 43q-3 0 -5 -2l-110 -182q2 2 4 2 q-82 -119 -82 -145zM109 496q0 -84 67 -84q38 0 82 41l80 135q6 24 6 47q0 18 -4 35q-12 49 -55 49q-62 0 -121 -80q-55 -76 -55 -143z" />
<glyph unicode="r" horiz-adv-x="475" d="M-45 446l10 11q42 37 125 133q27 41 41 78q30 83 35 114l6 41q1 1 8 35q11 18 27 21q23 6 37 -20.5t8 -53.5l-6 -29q4 -4 26 -12l7 4q5 -1 33.5 -13.5t31.5 -13.5l49 -12q19 -12 19 -29q0 -14 -33 -69l-51 -88q-60 -107 -60 -141q0 -8 4 -13t12 -5q19 0 62 26 q16 9 131 104q14 8 29 2q14 -4 14 -16q0 -29 -69 -90l-45 -33q-95 -62 -138 -62q-80 0 -92 88q-1 4 -1 10q0 45 48 136l51 92l17 39q-31 12 -76 27q-28 -60 -78 -150q-22 -36 -67 -84q-57 -60 -78 -63q-20 0 -29 8.5t-8 27.5z" />
<glyph unicode="s" horiz-adv-x="444" d="M-59 446l12 11q36 33 123 133q58 88 76 192l16 78q16 19 31 19q23 0 33.5 -24t5.5 -50q-2 -1 -5 -12q7 -24 66 -33q10 0 16 -2q0 -6 -8 -17q-24 -41 -24 -88v-10l32 -135q4 -45 1 -62q-4 -31 -9 -45q26 11 148 113q13 8 28 2q12 -4 15 -12q1 -2 1 -5q0 -29 -71 -89 q-41 -36 -131 -80q-62 -22 -141 -25h-6q-43 0 -87 23q-46 27 -49 69q0 21 9 45q-14 -14 -46 -32q-39 0 -36 36zM76 494q23 4 34 -10t5 -35q-3 -8 -19 -30t-16 -30q0 -15 18 -27q16 -10 36 -10t42 10q39 14 45 54q1 8 1 18q0 30 -13 74l-29 151q0 -3 -6 -12q-29 -56 -98 -153 z" />
<glyph unicode="t" horiz-adv-x="245" d="M-49 383q3 19 67 129l230 381h-92q-8 0 -2 12l8 19q6 12 16 12h92q47 86 78 117q18 18 60 12q15 -3 21.5 -9t4.5 -14q-2 -16 -57 -108q0 1 6 10q-3 0 -6 -8h137q10 0 4 -12l-10 -19q-3 -12 -14 -12h-142l-231 -377q-64 -105 -64 -110q0 -2 12 -2q25 0 74 28 q17 10 34 19.5t31.5 17t20.5 10.5q37 9 37 -20t-88 -78q-96 -54 -178 -54q-12 0 -23 1q-28 2 -28 36q0 8 2 19z" />
<glyph unicode="u" horiz-adv-x="540" d="M18 383q3 10 68 129l49 88q70 126 117 176q18 21 59 12q14 -3 21 -9t6 -13q-3 -22 -57 -107l-93 -143q-23 -36 -38 -61t-21 -37t-4 -12q5 -2 11 -2q38 0 145 65q49 28 108 131q54 89 115 176q15 15 39 15q10 0 22 -3q14 -3 21 -9t6 -13q-3 -22 -57 -107l-93 -143 q-23 -36 -38 -61t-21 -37t-4 -12q5 -2 12 -2q25 0 74 28q17 10 34 19.5t31.5 17t20.5 10.5q37 9 37 -20t-88 -78q-96 -54 -176 -54q-13 0 -25 1q-17 3 -25 16q-3 5 -3 13q0 23 30 67l-41 -35l-63 -31q-63 -32 -122 -32q-14 0 -28 2q-31 5 -31 38q0 8 2 17z" />
<glyph unicode="v" horiz-adv-x="413" d="M-29 358v7q0 27 19 59q10 17 100 176q39 67 117 176q18 21 59 12q30 -6 27 -22q-3 -22 -57 -107l-93 -143q-23 -36 -38 -61t-21 -37t-4 -12q9 -3 20 -3q56 0 160 72q166 119 207 266q6 22 6 41.5t-6 36.5q-19 48 -16 51q8 51 46 51q4 0 9 -1q28 -3 39 -35q3 -9 3 -24 q0 -20 -5 -52q-20 -143 -144 -285q-119 -134 -264 -178q-60 -18 -117 -18h-16q-28 0 -31 30z" />
<glyph unicode="w" horiz-adv-x="665" d="M-37 377q8 23 37 80l145 241l43 70q19 22 50 22q10 0 20 -2q28 -3 25 -22q-2 -20 -58 -107l-92 -143q-61 -101 -62 -109q0 -3 13 -3q24 0 76 24q98 46 131 82q4 9 112 195q27 47 43 63q22 22 51 22q9 0 19 -2q28 -3 25 -22q-2 -20 -58 -107l-92 -143q-61 -101 -61 -109 q0 -4 20 -4q54 0 158 72q164 119 209 266q5 16 5 33q0 23 -9 47q-15 41 -15 49q9 50 51 50h5q28 -3 41 -35q2 -5 2 -16q0 -20 -6 -60q-24 -147 -146 -285q-120 -135 -262 -178q-60 -18 -117 -18h-16q-28 0 -31 30q0 16 6 37q-33 -27 -78 -41q-79 -28 -130 -28q-13 0 -25 2 q-33 4 -33 30q0 8 4 19z" />
<glyph unicode="x" horiz-adv-x="612" d="M-51 420q-9 18 22 43q100 77 152 147q49 75 110 150q25 25 62 28q7 1 14 1q54 0 84 -44q21 -27 27 -143q141 65 162 152q12 45 16 55q22 25 45 25q40 0 40 -40q0 -11 -3 -26q-3 -18 -47 -68q-83 -95 -211 -153l4 -74q7 -72 40 -72q12 0 28 9q37 19 86 65l36 31q26 4 29 2 q15 -6 12 -39q-140 -143 -233 -143q-51 0 -78 41q-21 27 -27 135q-152 -64 -174 -158q-6 -29 -18 -55q-23 -23 -45 -23q-38 0 -38 38q0 11 3 26q7 23 45 67q81 100 225 160l-2 14q0 21 -2 27q-3 39 -14 76q-10 13 -27 10q-16 -4 -163 -176q-45 -50 -117 -102q-12 -9 -23 -9 q-10 0 -20 23z" />
<glyph unicode="y" horiz-adv-x="485" d="M-111 -45q0 66 50 158q46 82 103 135.5t148 93.5l33 53q-56 -45 -157 -63q-25 -5 -52 -5q-12 0 -24 1q-32 5 -32 31q0 8 3 18q5 20 39 82q51 89 195 317q9 15 47 15q23 0 32.5 -6.5t6.5 -18.5q-6 -28 -148 -250q-47 -76 -63 -110q9 -3 18 -3q33 0 98 35q63 37 90 64 q21 21 41 51q4 6 52.5 86.5t81.5 132.5q8 15 35 15q11 0 26 -3q28 -3 25 -22q-4 -15 -9 -23q-11 -32 -55 -102l-149 -246q61 16 176 88q37 9 37 -23q0 -24 -39 -48q-94 -58 -224 -99l-90 -147q-80 -136 -106 -172q-85 -117 -137 -117q-6 0 -11 2q-41 9 -41 80zM-74 -18 q-3 -21 0 -27t8 -4q22 9 64 72q76 110 119 190l26 49q-81 -39 -142.5 -117t-74.5 -163z" />
<glyph unicode="z" horiz-adv-x="442" d="M-139 -80q18 160 186 322q78 75 160 120l12 21q3 11 -6.5 19.5t-32.5 15.5q-31 3 -28 26q8 -3 17 -3q33 0 83 34q82 55 135 148q14 22 14 43q0 34 -40 34h-7q-42 -3 -106 -73l-137 -148q-78 -75 -183 -117l-30 -12q-23 -10 -23 0q0 -1 -1 1l-2 2q-2 3 -3 5q-3 10 0 21 t16 24q25 11 103 54q49 32 143 133q98 104 156 151q84 65 147 65q8 0 15 -1q52 -6 67 -51q3 -12 3 -24q0 -27 -13 -58q-40 -101 -135 -178q-47 -41 -88 -56q29 -10 32 -32q31 12 144 73q37 9 37 -20q0 -28 -86 -78q-13 -7 -115 -47l-14 -27q-52 -106 -117 -196l-82 -111 q-103 -135 -176 -135q-9 0 -17 2q-29 8 -29 41q0 5 1 12zM-92 -76q0 -6 4 -6q44 26 219 293q33 51 41 70q-84 -51 -157 -139.5t-99 -174.5q-8 -24 -8 -43z" />
<glyph unicode="{" horiz-adv-x="208" d="M-2560 -129q9 36 59 100q53 68 56 125q3 45 -2 66q11 7 53 16q278 62 625 62q105 0 249 -7q82 -3 602 -59q222 -22 379 -22q439 0 617 184q67 70 67 104q0 20 -18 29q-11 6 -42.5 -7.5t-45.5 -27.5q-28 -28 -41 -8l-10 16q-7 16 12 35q66 60 127 60q82 0 82 -88 q0 -73 -113 -189q-169 -178 -420 -225q-144 -27 -364 -27q-145 0 -301 8l-260 13q-390 9 -602 -6q-339 -24 -539 -82q-94 -27 -170 -70z" />
<glyph unicode="}" horiz-adv-x="208" d="M-2560 -129q9 36 59 100q53 68 56 125q3 45 -2 66q11 7 53 16q278 62 625 62q105 0 249 -7q82 -3 602 -59q222 -22 379 -22q439 0 617 184q67 70 67 104q0 20 -18 29q-11 6 -42.5 -7.5t-45.5 -27.5q-28 -28 -41 -8l-10 16q-7 16 12 35q66 60 127 60q82 0 82 -88 q0 -73 -113 -189q-169 -178 -420 -225q-144 -27 -364 -27q-145 0 -301 8l-260 13q-390 9 -602 -6q-339 -24 -539 -82q-94 -27 -170 -70z" />
<glyph unicode="&#x2000;" horiz-adv-x="819" />
<glyph unicode="&#x2001;" horiz-adv-x="1638" />
<glyph unicode="&#x2002;" horiz-adv-x="819" />
<glyph unicode="&#x2003;" horiz-adv-x="1638" />
<glyph unicode="&#x2004;" horiz-adv-x="546" />
<glyph unicode="&#x2005;" horiz-adv-x="409" />
<glyph unicode="&#x2006;" horiz-adv-x="273" />
<glyph unicode="&#x2007;" horiz-adv-x="273" />
<glyph unicode="&#x2008;" horiz-adv-x="204" />
<glyph unicode="&#x2009;" horiz-adv-x="327" />
<glyph unicode="&#x200a;" horiz-adv-x="91" />
<glyph unicode="&#x202f;" horiz-adv-x="327" />
<glyph unicode="&#x205f;" horiz-adv-x="409" />
<glyph unicode="&#x25fc;" horiz-adv-x="829" d="M0 0v829h829v-829h-829z" />
</font>
</defs>
</svg>
