<?xml version="1.0" standalone="no"?>
<!DOCTYPE svg PUBLIC "-//W3C//DTD SVG 1.1//EN" "http://www.w3.org/Graphics/SVG/1.1/DTD/svg11.dtd" >
<svg xmlns="http://www.w3.org/2000/svg" xmlns:xlink="http://www.w3.org/1999/xlink" version="1.1">
<metadata></metadata>
<defs>
<font id="santa_fe_let_plainregular" horiz-adv-x="400" >
<font-face units-per-em="1000" ascent="800" descent="-200" />
<missing-glyph horiz-adv-x="220" />
<glyph unicode="&#xd;" horiz-adv-x="220" />
<glyph unicode=" "  horiz-adv-x="220" />
<glyph unicode="&#x09;" horiz-adv-x="220" />
<glyph unicode="&#xa0;" horiz-adv-x="220" />
<glyph unicode="!" horiz-adv-x="334" d="M392 482l-152 -326q-23 -49 -51 -49q-37 0 -37 35q0 11 13 39l152 326q23 50 51 50q37 0 37 -35q0 -12 -13 -40zM191 51q0 -26 -14.5 -42t-37.5 -16q-42 0 -42 43q0 23 15.5 39t37.5 16q41 0 41 -40z" />
<glyph unicode="&#x22;" horiz-adv-x="252" d="M187 494l-28 -60q-21 -45 -46 -45q-34 0 -34 32q0 9 12 35l28 60q21 45 46 45q33 0 33 -31q0 -12 -11 -36zM301 494l-28 -60q-21 -45 -45 -45q-34 0 -34 32q0 9 12 35l28 60q21 45 46 45q33 0 33 -31q0 -10 -12 -36z" />
<glyph unicode="#" horiz-adv-x="653" d="M502 280l-31 -65q-38 -79 -49 -100q-15 -28 -31 -48q-60 -74 -131 -74q-58 0 -81 45q-45 -45 -99 -45q-34 0 -55.5 21.5t-21.5 55.5q0 35 31 101l65 139q23 50 51 50q37 0 37 -35q0 -12 -13 -40l-71 -151q0 -1 -3 -8.5l-5 -12.5q-7 -14 -7 -24q0 -17 15 -17q26 0 77 55 l2 3q9 25 19 46l63 134q24 50 51 50q37 0 37 -35q0 -12 -13 -40l-62 -133q-20 -43 -20 -60q0 -20 19 -20q37 0 86 94q5 10 25 53l42 91q13 29 21 36t26 7h233q57 0 57 -33q0 -24 -22 -35q-10 -5 -44 -5h-198z" />
<glyph unicode="$" horiz-adv-x="434" d="M328 557l25 53q24 50 51 50q37 0 37 -35q0 -12 -13 -40l-21 -45q31 -14 52.5 -42t21.5 -55q0 -41 -38 -41q-21 0 -35 23l-11 18q-25 41 -72 41q-35 0 -58.5 -23.5t-23.5 -58.5q0 -28 26 -77q40 -76 50 -102.5t10 -59.5q0 -71 -51 -120.5t-124 -49.5h-2l-27 -57 q-23 -49 -50 -49q-38 0 -38 35q0 12 13 39l23 48q-36 16 -58 49t-22 70q0 46 43 46q28 0 35 -30q18 -73 83 -73q38 0 63.5 24.5t25.5 60.5q0 27 -22 70l-20 39q-44 86 -44 136q0 68 46 112t119 44h6z" />
<glyph unicode="%" horiz-adv-x="547" d="M207 118q22 9 47 9q23 0 42 -13q2 51 43 92t90 41q38 0 62 -25.5t24 -66.5q0 -66 -40.5 -114t-95.5 -48q-27 0 -68 29.5t-79 29.5q-26 0 -55 -15q-4 -2 -42 -27q-25 -17 -43 -17q-16 0 -27.5 11.5t-11.5 27.5q0 20 36 63l260 312q38 45 54 56q-34 -17 -67 -17 q-24 0 -44 9q2 -6 2 -14q0 -50 -41 -94t-88 -44q-41 0 -65.5 27t-24.5 71q0 62 40.5 109t93.5 47q25 0 60 -17q43 -21 68 -21q32 0 110 27q32 11 44 11q17 0 29.5 -11.5t12.5 -26.5q0 -18 -32 -56l-228 -273q-5 -6 -23 -27q-22 -25 -43 -45zM446 149q0 28 -25 28 q-20 0 -39.5 -27t-19.5 -55q0 -30 26 -30q21 0 39.5 27t18.5 57zM145 405q0 -29 25 -29q19 0 38 26t19 53q0 30 -24 30q-20 0 -39 -26.5t-19 -53.5z" />
<glyph unicode="&#x26;" horiz-adv-x="675" d="M476 207h-20q-32 0 -42 6q-16 9 -16 28q0 24 22 34q11 5 44 5h132q58 0 58 -33q0 -25 -22 -35q-11 -5 -44 -5h-25l-76 -163q-14 -30 -25 -37t-46 -7h-180q-124 0 -124 102q0 50 40 100t110 87q-14 27 -14 57q0 80 80 144.5t180 64.5q48 0 76 -20t28 -55q0 -31 -29 -89 q-15 -31 -40 -31q-39 0 -39 33q0 10 11.5 36t11.5 34q0 18 -28 18q-50 0 -108 -41q-61 -43 -61 -94q0 -17 9 -31l12 -19q9 -14 9 -21q0 -14 -49 -46q-113 -73 -113 -116q0 -37 62 -39l25 -1h129z" />
<glyph unicode="'" horiz-adv-x="138" d="M187 494l-28 -60q-21 -45 -46 -45q-34 0 -34 32q0 9 12 35l28 60q21 45 46 45q33 0 33 -31q0 -12 -11 -36z" />
<glyph unicode="(" d="M149 44q0 109 66 271q71 174 188 305q36 40 58 40q15 0 26.5 -11.5t11.5 -27.5q0 -14 -18 -35q-222 -255 -251 -533q-6 -60 -42 -60q-39 0 -39 51z" />
<glyph unicode=")" d="M433 609q0 -110 -66 -271q-71 -173 -189 -304q-37 -41 -58 -41q-15 0 -26 11.5t-11 27.5t17 35q222 253 252 534q6 59 41 59q40 0 40 -51z" />
<glyph unicode="*" horiz-adv-x="369" d="M319 460l-18 -37q-14 -29 -34 -29q-14 0 -24 9t-10 22q0 11 12 37l12 26l-40 -3q-4 -1 -10 -1q-37 0 -37 34q0 30 52 35l29 3l-23 33q-12 17 -12 29q0 13 10.5 23t23.5 10q17 0 33 -23l7 -10l17 -24l12 27l5 10q14 29 34 29q34 0 34 -31q0 -11 -12 -37l-12 -26l41 3 q3 1 10 1q37 0 37 -34q0 -18 -11 -25t-42 -10l-29 -3l17 -23l6 -10q12 -16 12 -29t-10.5 -23t-23.5 -10q-17 0 -33 23l-7 10z" />
<glyph unicode="+" horiz-adv-x="391" d="M143 122l-79 -51q-19 -13 -23.5 -18.5t-9.5 -24.5q-10 -35 -40 -35q-41 0 -41 45q0 50 80 102l93 60l-23 89q-5 19 -5 33q0 16 11.5 27t28.5 11q26 0 38 -41l21 -74l59 39q45 30 54 46l6 9q10 21 33 21q17 0 29 -12t12 -29q0 -43 -78 -92l-94 -59l12 -45q9 -35 16.5 -42 t34.5 -7h11q7 -1 12 -1h146q57 0 57 -33q0 -24 -21 -35q-12 -5 -45 -5h-192q-44 0 -62 16t-31 67l-1 7z" />
<glyph unicode="," horiz-adv-x="333" d="M98 11l14 30q23 49 51 49q37 0 37 -35q0 -11 -13 -39l-14 -30q-23 -50 -51 -50q-37 0 -37 36q0 11 13 39z" />
<glyph unicode="-" horiz-adv-x="415" d="M250 147h-93q-31 0 -41 6q-16 9 -16 28q0 24 22 34q11 5 44 5h92q57 0 57 -33q0 -25 -21 -35q-11 -5 -44 -5z" />
<glyph unicode="." horiz-adv-x="333" d="M199 51q0 -26 -14.5 -42t-36.5 -16q-43 0 -43 43q0 23 15.5 38.5t38.5 15.5q40 0 40 -39z" />
<glyph unicode="/" horiz-adv-x="492" d="M107 74l379 544q30 43 53 43q17 0 28.5 -11t11.5 -26t-21 -45l-379 -544q-29 -42 -53 -42q-17 0 -28.5 10.5t-11.5 25.5t21 45z" />
<glyph unicode="0" horiz-adv-x="498" d="M511 377q0 -139 -94 -265q-89 -119 -209 -119q-78 0 -123 49.5t-45 135.5q0 134 92.5 256.5t210.5 122.5q76 0 122 -49t46 -131zM429 376q0 47 -24 75t-64 28q-77 0 -148 -98t-71 -204q0 -47 25 -76t66 -29q73 0 139 89q34 46 55.5 106t21.5 109z" />
<glyph unicode="1" horiz-adv-x="241" d="M197 468l-34 -9q-19 -5 -31 -5q-34 0 -34 38q0 33 36 40l16 3l61 14l14 2l16 4q8 2 18 2q17 0 29 -11.5t12 -27.5t-10 -37l-204 -438q-23 -50 -51 -50q-37 0 -37 36q0 11 13 39z" />
<glyph unicode="2" horiz-adv-x="456" d="M118 73h156q57 0 57 -33q0 -24 -22 -35q-10 -5 -44 -5h-263q-59 0 -59 43q0 19 11 28t58 30q185 84 278 157q106 84 106 158q0 28 -20 44.5t-54 16.5q-76 0 -137 -61q-35 -35 -43 -80t-41 -45q-39 0 -39 48q0 81 86 149.5t189 68.5q66 0 107.5 -37.5t41.5 -97.5 q0 -132 -187 -255q-93 -61 -181 -94z" />
<glyph unicode="3" horiz-adv-x="411" d="M352 477h-145q-32 0 -42 6q-15 9 -15 28q0 24 22 34q11 5 44 5h222q60 0 60 -42q0 -25 -49 -57l-187 -124q57 -2 91.5 -36t34.5 -89q0 -88 -78 -148.5t-192 -60.5q-72 0 -120 20.5t-48 51.5q0 16 11.5 28t25.5 12q11 0 19 -4l28 -14q34 -17 87 -17q72 0 126.5 38.5 t54.5 89.5q0 32 -23 50.5t-63 18.5q-27 0 -60 -10q-26 -8 -36 -8q-34 0 -34 34q0 21 36 44z" />
<glyph unicode="4" horiz-adv-x="469" d="M317 150l-50 -107q-23 -50 -51 -50q-37 0 -37 36q0 11 13 39l38 82h-146q-42 0 -57 10q-19 13 -19 37t28 48l14 12l323 266q46 38 67 38q17 0 30.5 -12t13.5 -27q0 -12 -13 -40l-120 -259h52q58 0 58 -33q0 -24 -22 -35q-10 -5 -44 -5h-78zM264 223l87 187l-228 -187h141 z" />
<glyph unicode="5" horiz-adv-x="397" d="M236 477l-57 -128q26 6 45 6q71 0 113 -40.5t42 -107.5q0 -107 -106 -172q-68 -42 -163 -42t-141 31q-22 15 -22 39q0 16 10 27t25 11q8 0 36 -12q48 -21 95 -21q73 0 128 41t55 94q0 75 -88 75q-21 0 -51 -6l-20 -4q-6 -2 -19 -2q-40 0 -40 36q0 16 10 37l8 17l71 157 q12 25 23.5 31t53.5 6h189q58 0 58 -33q0 -25 -22 -35q-11 -5 -44 -5h-189z" />
<glyph unicode="6" horiz-adv-x="442" d="M424 208q0 -85 -69 -150t-159 -65q-73 0 -117 41.5t-44 111.5q0 90 73 183.5t204 172.5q92 55 126 55q38 0 38 -37q0 -24 -33 -40q-108 -52 -182 -111q-63 -51 -100.5 -109.5t-37.5 -105.5q0 -81 78 -81q52 0 96 42t44 91q0 47 -37 47q-13 0 -30 -10.5t-29 -10.5 q-36 0 -36 38q0 27 28.5 46.5t66.5 19.5q54 0 87 -35t33 -93z" />
<glyph unicode="7" d="M344 477h-196q-32 0 -42 6q-15 9 -15 28q0 24 21 34q11 5 44 5h260q57 0 57 -35q0 -21 -36 -53q-95 -85 -188.5 -197.5t-154.5 -222.5q-18 -33 -26.5 -41t-24.5 -8q-38 0 -38 40q0 23 23 64q83 147 309 373z" />
<glyph unicode="8" horiz-adv-x="435" d="M382 173q0 -76 -57.5 -128t-142.5 -52q-73 0 -118.5 39.5t-45.5 103.5q0 76 62 124q34 26 64 26q39 0 39 -36q0 -21 -21 -34l-21 -13q-38 -24 -38 -63q0 -29 21.5 -48.5t53.5 -19.5q47 0 80.5 27.5t33.5 66.5q0 30 -25 56q-11 11 -53 44q-73 57 -73 120q0 68 59.5 118 t140.5 50q61 0 98 -30.5t37 -80.5q0 -61 -50 -104q-37 -32 -71 -32q-17 0 -29 11t-12 27q0 20 27 36q47 27 47 58q0 41 -50 41q-41 0 -74.5 -25t-33.5 -56q0 -32 44 -69q29 -25 74 -68q34 -40 34 -89z" />
<glyph unicode="9" horiz-adv-x="442" d="M68 344q0 83 72.5 148t163.5 65q69 0 110 -40t41 -107q0 -78 -51.5 -159.5t-146.5 -151.5q-59 -44 -119 -75t-85 -31q-38 0 -38 37q0 25 31 40l22 11q126 63 202 136q99 95 99 186q0 33 -21 53.5t-55 20.5q-50 0 -96 -43.5t-46 -90.5t37 -47q5 0 21 2q11 3 20 3 q37 0 37 -34q0 -23 -22 -38.5t-54 -15.5q-55 0 -88.5 36t-33.5 95z" />
<glyph unicode=":" horiz-adv-x="333" d="M326 322q0 -26 -14.5 -42t-37.5 -16q-42 0 -42 43q0 23 15 38.5t38 15.5q41 0 41 -39zM199 51q0 -26 -14.5 -42t-36.5 -16q-43 0 -43 43q0 23 15 38.5t38 15.5q41 0 41 -39z" />
<glyph unicode=";" horiz-adv-x="333" d="M305 322q0 -26 -14.5 -42t-37.5 -16q-42 0 -42 43q0 23 15 38.5t38 15.5q41 0 41 -39zM73 11l14 30q23 49 51 49q37 0 37 -35q0 -11 -13 -39l-14 -30q-23 -50 -51 -50q-37 0 -37 36q0 11 13 39z" />
<glyph unicode="&#x3c;" horiz-adv-x="389" d="M291 280h-93l-110 -237q-23 -50 -51 -50q-37 0 -37 36q0 11 13 39l99 212h-29q-31 0 -41 6q-15 9 -15 28q0 39 56 39h63l17 37q21 45 45 81q58 86 164 86q44 0 70 -18t26 -48q0 -12 -13 -44l-7 -17q-20 -49 -50 -49q-38 0 -38 34q0 10 12 38l6 14l7 14q-12 3 -19 3 q-73 0 -123 -109l-10 -22h84q39 0 50 -5q21 -9 21 -32q0 -14 -19 -55l-65 -140q-10 -22 -10 -30q0 -16 15 -16q20 0 79 46q41 32 54 32q32 0 32 -33q0 -39 -78 -85q-72 -42 -114 -42q-35 0 -55.5 20t-20.5 54q0 32 24 83z" />
<glyph unicode="=" horiz-adv-x="349" d="M419 474l-371 -444q-32 -38 -53 -38q-17 0 -28.5 10.5t-11.5 25.5q0 17 25 47l371 444q32 38 53 38q16 0 28 -11t12 -26q0 -16 -25 -46z" />
<glyph unicode="&#x3e;" horiz-adv-x="389" d="M112 280h-29q-31 0 -41 6q-15 9 -15 28q0 39 56 39h63l17 37q21 45 45 81q58 86 164 86q44 0 70 -18t26 -48q0 -17 -11 -41l-153 -329q-10 -22 -10 -30q0 -16 15 -16q21 0 79 46q40 32 54 32q32 0 32 -33q0 -39 -78 -85q-72 -42 -114 -42q-34 0 -55 20t-21 53t24 84 l155 331q-12 3 -19 3q-73 0 -123 -109l-10 -22q48 0 48 -33q0 -24 -21 -35q-13 -5 -44 -5h-18l-110 -237q-23 -50 -51 -50q-37 0 -37 36q0 11 13 39z" />
<glyph unicode="?" horiz-adv-x="546" d="M548 436q0 -61 -48 -114q-35 -39 -133 -94q-76 -43 -91 -73l-11 -22q-13 -27 -39 -27q-38 0 -38 41q0 66 115 131l53 30q108 61 108 115t-65 54q-57 0 -106.5 -36.5t-49.5 -77.5v-7l3 -16q1 -3 1 -10q0 -38 -38 -38q-49 0 -49 69q0 76 77 136t174 60q64 0 100.5 -32.5 t36.5 -88.5zM226 51q0 -26 -14.5 -42t-37.5 -16q-42 0 -42 43q0 23 15 38.5t38 15.5q41 0 41 -39z" />
<glyph unicode="@" horiz-adv-x="405" d="M305 280q7 -21 7 -46q0 -92 -58.5 -166.5t-130.5 -74.5q-49 0 -79.5 34.5t-30.5 90.5q0 60 30 117.5t77 88.5q44 29 149 29h192q58 0 58 -33q0 -24 -22 -35q-10 -5 -44 -5h-148zM228 235q0 43 -32 43q-34 0 -62 -52q-34 -62 -34 -108q0 -45 35 -45t68 67q25 51 25 95z " />
<glyph unicode="A" horiz-adv-x="702" d="M589 267h-270l-2 -3q-71 -155 -75 -276l-1 -30q-2 -60 -43 -60q-45 0 -45 63q0 90 71 303l1 3h-82q-35 0 -46 7q-17 9 -17 29q0 27 24 38q13 6 48 6h113l1 2q77 153 250 251q107 60 191 60q46 0 74.5 -24t28.5 -63q0 -32 -34 -105l-196 -421q-15 -32 -26 -43t-29 -11 q-40 0 -40 38q0 13 14 43zM626 347l78 166q16 34 16 47q0 21 -27 21q-59 0 -157 -63q-106 -69 -173 -171h263z" />
<glyph unicode="B" horiz-adv-x="659" d="M331 85h58q72 0 94 13q31 18 31 53q0 24 -28 61q-20 26 -20 44q0 25 32 41l43 22q95 49 95 133q0 58 -44 92.5t-117 34.5q-114 0 -203.5 -72t-89.5 -163q0 -50 46 -83q25 -18 25 -36q0 -17 -13 -29t-31 -12q-45 0 -80.5 49t-35.5 111q0 125 116.5 220.5t268.5 95.5 q113 0 180.5 -57t67.5 -151q0 -93 -80 -163q-38 -33 -78 -46q37 -49 37 -96q0 -49 -29.5 -86.5t-76.5 -51.5q-32 -9 -107 -9h-99q-32 0 -43 7q-22 14 -22 39q0 18 19 59l182 391q25 53 55 53q40 0 40 -37q0 -13 -14 -43z" />
<glyph unicode="C" horiz-adv-x="575" d="M358 85h109q63 0 63 -39q0 -28 -25 -40q-13 -6 -51 -6h-106q-73 0 -103 5q-62 10 -100 61t-38 122q0 89 46.5 180t131.5 166q141 126 275 126q51 0 82 -24t31 -64t-50 -149q-22 -47 -50 -47q-39 0 -39 36q0 16 13 44l15 32q22 47 22 68q0 24 -28 24q-38 0 -96 -29 t-110 -74q-67 -59 -108.5 -136.5t-41.5 -144.5q0 -75 49 -98q27 -13 109 -13z" />
<glyph unicode="D" horiz-adv-x="726" d="M328 79q139 13 237 109t98 218q0 80 -51 127t-138 47q-111 0 -202 -72.5t-91 -160.5q0 -53 46 -86q26 -19 26 -36t-13 -29.5t-31 -12.5q-34 0 -67 34q-49 50 -49 129q0 124 116 219t266 95q123 0 200 -71.5t77 -184.5q0 -95 -53 -185.5t-143 -147.5q-123 -78 -263 -78 q-64 0 -64 51q0 22 18 61l183 392q25 53 55 53q40 0 40 -38q0 -12 -14 -42z" />
<glyph unicode="E" horiz-adv-x="577" d="M290 338q-22 36 -22 77q0 101 112 180q92 65 187 65q53 0 86.5 -26t33.5 -69q0 -34 -37 -115q-20 -44 -22 -47q-17 -27 -41 -27q-17 0 -28.5 10.5t-11.5 26.5q0 12 28 75q24 54 24 66q0 25 -35 25q-49 0 -111 -36q-95 -55 -95 -124q0 -27 16 -50l13 -19q9 -14 9 -25 q0 -22 -38 -42l-36 -19q-121 -64 -121 -123q0 -34 33 -48q19 -8 88 -8h145q63 0 63 -39q0 -35 -34 -43q-11 -3 -42 -3h-146q-90 0 -127 17q-74 34 -74 114q0 115 183 207z" />
<glyph unicode="F" horiz-adv-x="777" d="M669 267l-94 -203q-1 -2 -8 -17q-15 -33 -27 -40t-54 -7h-340q-37 0 -48 7q-18 11 -18 32q0 27 25 40q15 6 51 6h335l85 182h-43q-34 0 -46 7q-16 10 -16 29q0 27 23 38q13 6 48 6h71l101 216q-35 16 -90 16q-111 0 -199 -71.5t-88 -160.5q0 -50 38 -80q31 -24 31 -42 q0 -40 -43 -40q-46 0 -80.5 47.5t-34.5 111.5q0 125 115.5 220.5t265.5 95.5q78 0 126.5 -23.5t48.5 -60.5q0 -20 -25 -73l-73 -156h49q33 0 45 -7q17 -10 17 -30q0 -27 -23 -38q-11 -5 -48 -5h-77z" />
<glyph unicode="G" horiz-adv-x="555" d="M335 0h-4q-101 0 -145 28q-79 51 -79 160q0 89 46.5 180t131.5 166q141 126 275 126q51 0 82 -24t31 -64t-50 -149q-22 -47 -50 -47q-39 0 -39 36q0 16 13 44l15 32q22 47 22 68q0 24 -28 24q-38 0 -96 -29t-110 -74q-67 -59 -108.5 -136.5t-41.5 -144.5q0 -75 49 -98 q27 -13 109 -13h16l36 76q26 54 55 54q40 0 40 -38q0 -13 -14 -43l-103 -220q-13 -27 -20 -36q-14 -17 -35 -17q-40 0 -40 38q0 12 14 42z" />
<glyph unicode="H" horiz-adv-x="669" d="M259 267h-116q-35 0 -46 7q-17 9 -17 29q0 27 24 38q13 6 48 6h144l122 259q25 54 54 54q40 0 40 -38q0 -12 -14 -42l-108 -233h203l121 259q25 54 55 54q40 0 40 -38q0 -12 -14 -42l-310 -666q-13 -27 -20 -36q-14 -17 -35 -17q-40 0 -40 38q0 12 14 42l152 326h-204 l-102 -220q-15 -32 -26 -43t-29 -11q-40 0 -40 39q0 12 14 42z" />
<glyph unicode="I" horiz-adv-x="418" d="M453 578h-3l-9 -1q-105 -12 -183 -80t-78 -150q0 -49 46 -84q25 -19 25 -38q0 -38 -44 -38q-34 0 -68 35q-46 48 -46 125q0 121 116.5 217t262.5 96q79 0 79 -52q0 -22 -20 -63l-6 -12l-226 -486q-15 -32 -26 -43t-29 -11q-40 0 -40 38q0 13 14 43z" />
<glyph unicode="J" horiz-adv-x="421" d="M456 578h-3l-9 -1q-105 -12 -183 -80.5t-78 -150.5q0 -48 46 -83q25 -19 25 -38q0 -38 -44 -38q-34 0 -68 35q-46 48 -46 125q0 121 116.5 217t262.5 96q79 0 79 -52q0 -22 -20 -63l-6 -12l-231 -496q-79 -169 -173 -169q-44 0 -44 40q0 24 25 35l14 6q32 14 52.5 39 t49.5 86z" />
<glyph unicode="K" horiz-adv-x="689" d="M553 299l97 -311q1 -3 5 -14q9 -24 9 -37q0 -39 -41 -39q-19 0 -28.5 11t-20.5 45l-104 329q-8 25 -8 33q0 16 23 35l332 275q41 34 56 34q16 0 28.5 -12.5t12.5 -29.5q0 -20 -35 -49zM453 578h-3l-9 -1q-105 -12 -182.5 -80t-77.5 -150q0 -50 45 -84q25 -19 25 -38 q0 -38 -44 -38q-34 0 -68 35q-45 47 -45 125q0 121 116 217t262 96q79 0 79 -52q0 -22 -20 -63l-6 -12l-226 -486q-15 -32 -26 -43t-29 -11q-40 0 -40 38q0 13 14 43z" />
<glyph unicode="L" horiz-adv-x="627" d="M196 85h322q63 0 63 -39q0 -28 -25 -40q-12 -6 -51 -6h-337q-35 0 -45 5q-23 11 -23 41t39 120q54 126 111 221q91 153 199 220q85 53 163 53q50 0 81 -24.5t31 -63.5q0 -56 -51 -153q-23 -43 -47 -43q-41 0 -41 36q0 13 13 43l14 32q24 55 24 70q0 23 -33 23 q-46 0 -101.5 -33.5t-103.5 -90.5q-56 -66 -112 -175q-45 -88 -85 -184z" />
<glyph unicode="M" horiz-adv-x="804" d="M832 568q-42 -20 -86 -63q-50 -49 -110 -148l-44 -73q-69 -115 -108 -115q-35 0 -35 32q0 17 24 48q68 89 68 170q0 71 -38.5 114t-101.5 43q-82 0 -151.5 -63t-69.5 -138q0 -38 33 -68l12 -11q13 -12 13 -27q0 -16 -13 -28t-30 -12q-41 0 -71.5 43.5t-30.5 102.5 q0 110 94.5 197.5t214.5 87.5q89 0 152 -55.5t64 -134.5q59 88 119 134q74 56 142 56q58 0 58 -50q0 -18 -20 -61l-234 -502q-15 -32 -26 -43t-29 -11q-40 0 -40 39q0 11 14 42zM205 74l190 408q25 54 55 54q40 0 40 -38q0 -13 -14 -43l-191 -408q-25 -54 -54 -54 q-40 0 -40 39q0 11 14 42z" />
<glyph unicode="N" horiz-adv-x="701" d="M663 429l83 177q25 54 55 54q40 0 40 -38q0 -12 -14 -42l-248 -533q-15 -32 -26 -43t-29 -11q-40 0 -40 38q0 12 14 43l31 67q35 76 47.5 121t12.5 98q0 98 -50.5 157t-133.5 59q-84 0 -154.5 -62.5t-70.5 -137.5q0 -39 34 -68q24 -21 24 -40q0 -17 -12 -28t-31 -11 q-41 0 -71.5 44.5t-30.5 103.5q0 111 96 197t218 86q121 0 196 -86q51 -58 59 -133l1 -9v-3zM203 74l190 408q25 53 55 53q40 0 40 -37q0 -13 -14 -43l-190 -408q-15 -32 -26 -43t-29 -11q-40 0 -40 38q0 12 14 43z" />
<glyph unicode="O" horiz-adv-x="708" d="M322 472h-149q-60 0 -60 37q0 27 24 37q14 6 45 6h257q46 0 46 -34q0 -20 -36 -43q-83 -52 -128 -121q-58 -88 -58 -170q0 -49 27 -80.5t70 -31.5q103 0 203 126t100 257q0 56 -29 89t-78 33q-22 0 -49 -6q-18 -4 -24 -4q-13 0 -22.5 11t-9.5 25q0 57 107 57 q85 0 137.5 -58.5t52.5 -153.5q0 -85 -42.5 -178t-113.5 -164q-113 -113 -237 -113q-82 0 -129 49.5t-47 134.5q0 81 39.5 162.5t103.5 132.5z" />
<glyph unicode="P" horiz-adv-x="660" d="M472 580q-112 0 -201.5 -72t-89.5 -162q0 -48 34 -75l20 -16q17 -14 17 -31q0 -40 -43 -40q-45 0 -80.5 49.5t-35.5 112.5q0 124 116.5 219t267.5 95q110 0 180 -58t70 -149q0 -54 -28 -105t-77 -85q-64 -45 -113 -45q-48 0 -48 40q0 27 30 36l20 6q55 17 90.5 60 t35.5 94q0 56 -46 91t-119 35zM232 74l197 423q25 53 55 53q40 0 40 -37q0 -13 -14 -43l-198 -423q-25 -54 -54 -54q-40 0 -40 39q0 11 14 42z" />
<glyph unicode="Q" horiz-adv-x="601" d="M352 80h152q62 0 62 -37q0 -25 -23 -37q-12 -6 -49 -6h-357q-32 0 -41 7q-16 10 -16 32q0 21 18 31q8 4 49 13q129 27 233 103q80 59 127.5 135t47.5 146q0 51 -27.5 81t-74.5 30q-86 0 -170 -83q-49 -48 -78 -104t-29 -101t35 -75l15 -13q14 -12 14 -26q0 -38 -41 -38 q-43 0 -75.5 46.5t-32.5 108.5q0 132 119.5 249.5t253.5 117.5q79 0 128 -53.5t49 -139.5q0 -112 -80.5 -220t-208.5 -167z" />
<glyph unicode="R" horiz-adv-x="654" d="M542 229l73 -234q16 -51 16 -58q0 -39 -41 -39q-19 0 -28.5 11t-20.5 45l-79 252q-2 8 -4 13l-1 7q-6 20 -6 27q0 26 28 37l27 11q54 22 86 64t32 88q0 57 -46.5 91.5t-121.5 34.5q-110 0 -199 -72t-89 -160q0 -49 34 -76l19 -15q18 -14 18 -33q0 -16 -12.5 -28 t-29.5 -12q-46 0 -81.5 49.5t-35.5 113.5q0 124 116.5 219t269.5 95q107 0 177.5 -58t70.5 -147q0 -69 -47 -130.5t-125 -95.5zM219 74l197 423q25 53 55 53q40 0 40 -38q0 -12 -14 -42l-197 -423q-15 -32 -26 -43t-29 -11q-40 0 -40 39q0 11 14 42z" />
<glyph unicode="S" horiz-adv-x="667" d="M156 85h242q40 0 58 1q65 4 65 49q0 24 -26 62q-11 16 -52.5 66t-56.5 80t-15 66q0 57 36 111t99 91q83 49 162 49q56 0 89 -26t33 -70q0 -30 -15 -67q-11 -27 -32 -69l-7 -14q-19 -38 -45 -38q-17 0 -29 10.5t-12 26.5q0 11 6 24l8 18l14 32q23 53 23 68q0 25 -32 25 q-31 0 -74 -17.5t-74 -43.5q-59 -49 -59 -101q0 -34 49 -92q60 -70 80 -107.5t20 -77.5q0 -83 -68 -120q-38 -21 -135 -21h-262q-37 0 -48 7q-18 11 -18 32q0 27 25 40q15 6 51 6z" />
<glyph unicode="T" horiz-adv-x="309" d="M418 568l-243 -521q-15 -32 -26 -43t-29 -11q-40 0 -40 38q0 13 14 43l231 494h-109q-34 0 -48 8q-18 11 -18 32q0 27 25 39q13 6 51 6h347q37 0 48 -7q18 -11 18 -31q0 -28 -25 -40q-15 -7 -51 -7h-145z" />
<glyph unicode="U" horiz-adv-x="633" d="M544 317l135 289q15 32 26 43t29 11q40 0 40 -38q0 -12 -14 -42l-249 -533q-25 -54 -54 -54q-40 0 -40 39q0 15 13 42l32 67q-151 -148 -253 -148q-47 0 -74.5 26t-27.5 70q0 50 50 157l168 360q15 32 26 43t29 11q40 0 40 -38q0 -12 -14 -42l-183 -393q-26 -56 -26 -75 q0 -32 36 -32q35 0 125 70q86 67 177 158z" />
<glyph unicode="V" horiz-adv-x="603" d="M149 222l179 384q25 54 55 54q40 0 40 -38q0 -12 -14 -42l-197 -423q-15 -34 -15 -50q0 -29 39 -29q61 0 130.5 52.5t125.5 142.5q96 154 112 327q6 60 46 60t40 -59q0 -78 -37 -184.5t-95 -194.5q-72 -110 -159.5 -169.5t-175.5 -59.5q-54 0 -85 26.5t-31 73.5 q0 28 10 56q6 18 32 73z" />
<glyph unicode="W" horiz-adv-x="812" d="M386 176l201 430q15 32 26 43t29 11q40 0 40 -38q0 -10 -15 -42l-193 -414q-20 -40 -20 -60q0 -24 24 -24q44 0 118 65q87 77 147.5 202t71.5 250q5 61 44 61q40 0 40 -61q0 -79 -39.5 -190t-98.5 -199q-66 -98 -149.5 -157.5t-156.5 -59.5q-81 0 -83 69 q-88 -69 -168 -69q-45 0 -71.5 24t-26.5 65q0 43 43 135l182 389q15 32 26 43t29 11q40 0 40 -38q0 -12 -14 -42l-195 -418q-19 -42 -19 -60q0 -25 28 -25q47 0 152 92z" />
<glyph unicode="X" horiz-adv-x="743" d="M551 254l-154 -132q-74 -64 -100.5 -96.5t-39.5 -77.5t-42 -45q-40 0 -40 51q0 44 37 100q30 45 98 104l219 190l-16 69q-19 82 -33 108q-27 51 -90 51q-76 0 -140 -62t-64 -135q0 -42 34 -76q22 -22 22 -38q0 -37 -41 -37q-40 0 -70.5 45t-30.5 104q0 110 90.5 196.5 t205.5 86.5q93 0 143 -64q19 -25 36 -77q4 -13 17 -67l10 -42l164 142q37 31 50 64l7 17q11 27 39 27q19 0 32.5 -14.5t13.5 -34.5q0 -52 -91 -130l-194 -166l54 -234q0 -4 3 -15q6 -21 6 -34q0 -39 -39 -39q-21 0 -31 12t-18 48z" />
<glyph unicode="Y" horiz-adv-x="640" d="M544 317l135 289q15 32 26 43t29 11q40 0 40 -38q0 -12 -14 -42l-287 -614q-37 -79 -64 -113q-53 -66 -114 -66q-44 0 -44 40q0 27 25 35l15 5q31 10 51.5 35.5t50.5 90.5l66 145l-7 -7q-138 -138 -243 -138q-47 0 -74.5 26t-27.5 70q0 50 50 157l168 360q15 32 26 43 t29 11q40 0 40 -38q0 -12 -14 -42l-183 -393q-26 -56 -26 -75q0 -32 36 -32q35 0 125 70q86 67 177 158z" />
<glyph unicode="Z" horiz-adv-x="639" d="M683 568h-257q-41 0 -55 8q-18 11 -18 32q0 28 26 39q11 6 50 6h285q72 0 72 -54q0 -44 -43 -88q-50 -51 -160 -122l-92 -59q-221 -141 -283 -245h327q36 0 49 -8q17 -11 17 -31q0 -35 -34 -43q-11 -3 -41 -3h-344q-75 0 -75 55q0 63 94 158q58 58 133 112q38 27 126 85 l73 48q40 26 104 70q24 18 46 40z" />
<glyph unicode="[" d="M193 80h41q40 0 52 -7q17 -10 17 -30q0 -28 -28 -39q-11 -4 -44 -4h-90q-48 0 -48 40q0 11 10 35l8 19l233 498q2 5 7 17q14 31 25.5 37.5t54.5 6.5h54q35 0 45 -7q17 -9 17 -29q0 -27 -24 -38q-13 -6 -48 -6h-52z" />
<glyph unicode="\" horiz-adv-x="492" d="M249 58l-94 543q-2 13 -2 20q0 39 37 39q38 0 49 -65l92 -532q4 -23 4 -31q0 -39 -37 -39q-22 0 -35 18q-8 14 -14 47z" />
<glyph unicode="]" d="M417 573h-40q-42 0 -53 7q-17 11 -17 30q0 27 24 38q11 5 48 5h91q47 0 47 -40q0 -17 -9 -35l-9 -18l-233 -499q0 -1 -7 -17q-13 -31 -25 -37.5t-55 -6.5h-53q-34 0 -46 7q-17 10 -17 30q0 27 24 37q11 6 48 6h52z" />
<glyph unicode="^" horiz-adv-x="367" d="M195 131l84 179q23 50 51 50q37 0 37 -35q0 -12 -13 -40l-76 -163q-9 -19 -9 -30q0 -18 32 -18l11 -1h112q57 0 57 -33q0 -24 -22 -35q-10 -5 -44 -5h-133q-39 0 -53 4q-28 8 -33 35q-75 -46 -122 -46q-36 0 -57 19.5t-21 52.5q0 28 28 88l73 157q23 50 51 50 q37 0 37 -35q0 -12 -13 -40l-69 -148q-17 -38 -17 -47q0 -15 15 -15q31 0 94 56z" />
<glyph unicode="_" horiz-adv-x="500" d="M0 -134h500v-73h-500v73z" />
<glyph unicode="`" horiz-adv-x="276" d="M149 534l30 -35q31 -36 31 -54q0 -16 -10.5 -26.5t-25.5 -10.5q-20 0 -46 30l-32 37q-30 35 -30 50q0 16 11 27t27 11q20 0 45 -29z" />
<glyph unicode="a" horiz-adv-x="368" d="M203 36q-57 -43 -100 -43t-68.5 27t-25.5 73q0 59 43 119.5t113 101.5q90 52 167 52q44 0 44 -35q0 -29 -50 -38q-86 -16 -145 -60q-87 -65 -87 -128q0 -33 27 -33q32 0 82 60l4 10q3 7 15 33l15 32q25 54 56 54q36 0 36 -32q0 -13 -13 -40l-16 -33q-5 -10 -15 -31 q-12 -24 -12 -34q0 -17 17 -17q20 0 84 50q33 26 47 26q13 0 23 -9t10 -21q0 -30 -61 -72q-80 -55 -135 -55q-47 0 -55 43z" />
<glyph unicode="b" horiz-adv-x="363" d="M203 339l3 2q29 19 61 19q40 0 64.5 -28t24.5 -72q0 -97 -99 -182t-212 -85q-62 0 -62 45q0 14 18 53l194 416q23 50 51 50q37 0 37 -35q0 -12 -13 -40zM81 78q70 13 130 67t60 105q0 32 -29 32q-47 0 -91 -54z" />
<glyph unicode="c" horiz-adv-x="312" d="M222 266q-49 -26 -90 -75.5t-41 -82.5q0 -36 45 -36q24 0 66 13.5t75 29.5l47 23q25 12 40 12q30 0 30 -33q0 -36 -94 -80t-170 -44q-124 0 -124 106q0 100 119 193q87 68 154 68q42 0 42 -36q0 -10 -6 -27q-3 -10 -9 -24l-26 -57q-14 -30 -37 -30q-35 0 -35 33 q0 16 14 47z" />
<glyph unicode="d" horiz-adv-x="380" d="M317 360l69 147q23 50 51 50q37 0 37 -35q0 -12 -13 -40l-165 -353q-12 -26 -12 -41q0 -14 16 -14q18 0 87 53q31 24 45 24q13 0 23 -9.5t10 -21.5q0 -26 -61 -69q-83 -58 -137 -58q-43 0 -56 43q-56 -43 -106 -43q-41 0 -66 27.5t-25 72.5q0 95 89 173t214 94zM277 274 q-71 -18 -125.5 -69t-54.5 -99q0 -32 29 -32q32 0 81 51z" />
<glyph unicode="e" horiz-adv-x="280" d="M76 177q-13 23 -13 50q0 66 86 109q63 31 89 31q37 0 37 -34q0 -16 -14 -27q-7 -4 -47 -22l-34 -15q-40 -18 -40 -40q0 -9 5 -19q49 23 65 23q14 0 24 -10t10 -24q0 -24 -32 -38q-9 -4 -31 -14l-44 -20q-51 -23 -51 -44q0 -19 25 -19q69 0 182 68q33 20 47 20 q32 0 32 -32q0 -33 -89 -77q-102 -50 -181 -50q-102 0 -102 83q0 60 76 101z" />
<glyph unicode="f" horiz-adv-x="317" d="M144 353l71 154q23 50 51 50q37 0 37 -35q0 -12 -13 -40l-60 -129h87q57 0 57 -33q0 -24 -21 -35q-13 -5 -44 -5h-81q39 -74 39 -150q0 -122 -79.5 -228.5t-170.5 -106.5q-37 0 -60.5 22t-23.5 57q0 26 29 89l147 317h-27q-32 0 -42 6q-16 9 -16 28q0 24 22 34q11 5 44 5 h54zM167 218l-126 -271q-23 -49 -23 -59q0 -14 15 -14q24 0 63.5 44t63.5 103t24 112q0 43 -17 85z" />
<glyph unicode="g" horiz-adv-x="354" d="M181 84l63 136q19 40 50 40q33 0 33 -32q0 -3 -6 -22q-4 -12 -10 -29l-45 -95q-8 -16 -8 -27q0 -7 13 -25q21 -29 21 -59q0 -68 -64 -100q-37 -18 -128 -18h-149q-32 0 -43 6q-15 8 -15 28q0 25 22 35q13 6 45 6h142q104 0 104 40q0 31 -53 31h-36q-107 0 -107 98 q0 49 32.5 101.5t89.5 93.5q45 32 101 53t99 21q42 0 42 -35q0 -28 -34 -35l-33 -7q-82 -17 -143 -69q-70 -59 -70 -111q0 -16 11 -26.5t27 -10.5q19 0 49 12z" />
<glyph unicode="h" horiz-adv-x="354" d="M194 329q41 31 82 31q30 0 48.5 -17.5t18.5 -46.5q0 -38 -27 -91l-42 -83q-11 -22 -11 -32q0 -17 15 -17q16 0 77 47q41 32 57 32q13 0 22 -9.5t9 -21.5q0 -23 -29 -48q-92 -80 -163 -80q-35 0 -56 20.5t-21 54.5q0 19 10 46q8 22 46 97q22 44 22 53q0 14 -14 14 q-34 0 -93 -54l-84 -181q-17 -38 -33 -45q-8 -4 -16 -5h-3q-36 0 -36 36q0 11 13 39l204 439q23 50 51 50q37 0 37 -35q0 -12 -13 -40z" />
<glyph unicode="i" horiz-adv-x="180" d="M21 150l75 160q23 50 51 50q37 0 37 -35q0 -12 -13 -40l-76 -164q-10 -22 -10 -30q0 -16 15 -16q20 0 79 46q41 32 55 32q13 0 22 -9.5t9 -23.5q0 -39 -78 -85q-71 -42 -114 -42q-35 0 -55.5 20t-20.5 54q0 32 24 83zM238 429q0 -25 -14 -41t-36 -16q-44 0 -44 45 q0 23 14.5 38.5t36.5 15.5q43 0 43 -42z" />
<glyph unicode="j" horiz-adv-x="176" d="M246 429q0 -25 -14.5 -41t-36.5 -16q-43 0 -43 45q0 23 14.5 38.5t36.5 15.5q43 0 43 -42zM-101 -129l205 439q23 50 51 50q37 0 37 -35q0 -12 -13 -40l-205 -439q-23 -49 -51 -49q-37 0 -37 35q0 11 13 39z" />
<glyph unicode="k" horiz-adv-x="351" d="M161 258q30 27 97 67q59 35 78 35q14 0 24.5 -11t10.5 -25q0 -18 -35 -39l-30 -18l-42 -26q-24 -15 -48 -32l-4 -4q3 -45 19 -90q14 -40 30 -40q22 0 104 55q34 23 45 23q13 0 23 -10.5t10 -22.5q0 -28 -79 -77.5t-125 -49.5q-50 0 -71 52q-19 45 -27 110 q-18 -11 -40 -28l-2 -2l-38 -82q-23 -50 -51 -50q-38 0 -38 36q0 9 14 39l204 439q23 50 51 50q37 0 37 -35q0 -12 -13 -40z" />
<glyph unicode="l" horiz-adv-x="180" d="M21 150l167 357q23 50 51 50q37 0 37 -35q0 -12 -13 -40l-168 -361q-10 -21 -10 -30q0 -16 15 -16q21 0 79 46q40 32 55 32q13 0 22 -9.5t9 -23.5q0 -39 -78 -85q-71 -42 -114 -42q-34 0 -55 20t-21 53t24 84z" />
<glyph unicode="m" horiz-adv-x="512" d="M320 235l-90 -192q-23 -50 -51 -50q-37 0 -37 36q0 11 13 39l72 154q16 34 16 44q0 11 -12 11q-23 0 -83 -51l-3 -2l-84 -181q-23 -50 -51 -50q-37 0 -37 36q0 11 13 39l113 242q23 50 51 50q34 0 37 -33q45 33 80 33q49 0 57 -41q56 41 107 41q30 0 49.5 -17.5 t19.5 -44.5q0 -37 -50 -136q-30 -60 -30 -71q0 -17 16 -17q18 0 77 47q39 31 56 31q13 0 22.5 -9t9.5 -21q0 -20 -30 -48q-39 -35 -84 -58t-77 -23q-35 0 -55.5 19.5t-20.5 52.5q0 41 40 120q33 65 33 81q0 11 -12 11q-25 0 -75 -42z" />
<glyph unicode="n" horiz-adv-x="354" d="M187 323q14 15 40.5 26t47.5 11q31 0 50 -17.5t19 -46.5q0 -36 -28 -91l-42 -83q-11 -22 -11 -32q0 -17 15 -17q16 0 77 47q41 32 57 32q13 0 22 -9.5t9 -22.5q0 -26 -46 -61q-86 -66 -146 -66q-35 0 -56 20.5t-21 54.5q0 20 10 47q8 21 46 96q23 45 23 53q0 14 -15 14 q-33 0 -93 -53l-84 -182q-23 -50 -51 -50q-37 0 -37 36q0 11 13 39l113 242q23 50 51 50q37 0 37 -34v-3z" />
<glyph unicode="o" horiz-adv-x="327" d="M13 117q0 94 59.5 168.5t133.5 74.5q50 0 78.5 -32t28.5 -89q0 -95 -58.5 -170.5t-132.5 -75.5q-49 0 -79 34t-30 90zM100 116q0 -43 35 -43q33 0 67 68q26 51 26 98q0 44 -32 44q-39 0 -73 -77q-23 -53 -23 -90z" />
<glyph unicode="p" horiz-adv-x="367" d="M205 342q36 18 66 18q40 0 64.5 -28t24.5 -72q0 -97 -99 -180.5t-218 -86.5l-69 -147q-23 -49 -51 -49q-37 0 -37 35q0 11 13 39l234 503q23 49 51 49q37 0 37 -35q0 -9 -13 -39zM155 234l-73 -156l3 1q70 14 130.5 67.5t60.5 101.5q0 34 -31 34q-37 0 -90 -48z" />
<glyph unicode="q" horiz-adv-x="365" d="M147 11q-21 -18 -53 -18q-38 0 -61 26.5t-23 70.5q0 53 35 109t94 97q43 30 98 50t94 20q42 0 42 -36q0 -29 -34 -35q-117 -21 -183 -85q-61 -59 -61 -109q0 -31 26 -31q24 0 77 53l2 2l40 86q23 50 51 50q37 0 37 -35q0 -12 -13 -40l-42 -90q-21 -44 -43 -74 q141 129 190 129q30 0 30 -31q0 -18 -13 -29q-3 -3 -51 -36q-94 -64 -153 -121q-44 -42 -81 -102q-23 -37 -45 -37q-15 0 -26.5 10.5t-11.5 25.5q0 12 15 44z" />
<glyph unicode="r" horiz-adv-x="279" d="M154 353q4 1 9 1q41 0 66 -20.5t25 -53.5q0 -48 -75 -115l-39 -35q-31 -28 -31 -44q0 -20 26 -20q47 0 151 63q36 22 47 22q32 0 32 -34q0 -29 -61 -65q-100 -59 -186 -59q-48 0 -76.5 22.5t-28.5 59.5q0 34 30 68q21 24 71 68q47 42 47 55q0 19 -39 20q-19 -43 -47 -43 q-37 0 -37 36q0 10 13 39l27 60q22 50 52 50q37 0 37 -35q0 -10 -12 -37z" />
<glyph unicode="s" horiz-adv-x="323" d="M173 249l-9 -20q-22 -50 -51 -50q-37 0 -37 36q0 11 13 39l58 124q14 29 17 34q13 17 32 17q38 0 38 -35q0 -9 -1 -11l-6 -21q-2 -5 -2 -16q0 -25 23 -74q13 -29 27 -68t14 -68q0 -60 -41 -101.5t-101 -41.5q-53 0 -94.5 34.5t-41.5 78.5q0 47 43 47q26 0 34 -25l7 -21 q13 -39 49 -39q27 0 45 18.5t18 45.5q0 25 -26 90q-4 11 -8 27z" />
<glyph unicode="t" horiz-adv-x="245" d="M178 280l-67 -145q-16 -35 -16 -46q0 -14 13 -14t38.5 13.5t62.5 36.5l26 16q18 11 30 11q14 0 24 -10t10 -24q0 -30 -73 -72q-92 -53 -144 -53q-36 0 -57 18.5t-21 50.5q0 31 25 85l62 133h-4q-32 0 -42 6q-16 9 -16 28q0 24 22 34q11 5 44 5h31l30 65q23 50 51 50 q16 0 26.5 -10.5t10.5 -24.5q0 -13 -13 -40l-19 -40h32q57 0 57 -33q0 -24 -21 -35q-12 -5 -45 -5h-57z" />
<glyph unicode="u" horiz-adv-x="361" d="M192 37l-7 -4q-70 -40 -113 -40q-34 0 -55 20t-21 52q0 28 28 88l73 157q23 50 51 50q37 0 37 -35q0 -12 -13 -40l-69 -148q-17 -38 -17 -47q0 -15 15 -15q28 0 95 56l83 179q23 50 51 50q37 0 37 -35q0 -12 -13 -40l-78 -167q-10 -22 -10 -29q0 -15 16 -15q22 0 93 59 q24 20 39 20q33 0 33 -32q0 -23 -48 -62q-81 -66 -147 -66q-42 0 -60 44z" />
<glyph unicode="v" horiz-adv-x="341" d="M243 95q-73 -102 -152 -102q-40 0 -64 22t-24 60q0 36 30 101l62 134q23 50 51 50q37 0 37 -35q0 -12 -13 -40l-62 -133q-20 -43 -20 -60q0 -20 19 -20q37 0 86 94q5 10 25 53l42 91q23 50 51 50q38 0 38 -35q0 -10 -14 -40l-33 -70q-2 -6 -4 -9q-10 -21 -10 -34 q0 -17 13 -28.5t32 -11.5q17 0 36 10t29 10q12 0 21 -9t9 -21q0 -25 -29.5 -44t-68.5 -19q-54 0 -87 36z" />
<glyph unicode="w" horiz-adv-x="510" d="M179 38q-47 -45 -99 -45q-34 0 -55.5 21.5t-21.5 55.5q0 35 31 101l65 139q23 50 51 50q37 0 37 -35q0 -12 -13 -40l-71 -151l-7.5 -19.5t-7.5 -25.5q0 -17 15 -17q26 0 77 55l2 3q6 19 19 46l63 134q24 50 51 50q37 0 37 -35q0 -12 -13 -40l-62 -133q-20 -43 -20 -60 q0 -20 19 -20q37 0 86 94q5 10 25 53l42 91q23 50 51 50q37 0 37 -35q0 -12 -13 -40l-33 -70q-2 -6 -4 -9q-10 -21 -10 -34q0 -17 13 -28.5t32 -11.5q17 0 36 10t29 10q12 0 21 -9t9 -21q0 -25 -29.5 -44t-68.5 -19q-54 0 -87 36q-74 -102 -152 -102q-58 0 -81 45z" />
<glyph unicode="x" horiz-adv-x="384" d="M194 245l59 39q45 30 54 46l6 9q10 21 33 21q17 0 29 -12t12 -29q0 -43 -78 -92l-94 -59l12 -45q7 -27 9 -32q9 -18 24 -18q36 0 125 54l23 14q18 11 30 11q13 0 22.5 -10.5t9.5 -24.5q0 -26 -81 -73q-88 -51 -145 -51q-40 0 -58 18.5t-33 73.5l-10 37l-79 -51 q-19 -13 -23.5 -18.5t-9.5 -24.5q-10 -35 -40 -35q-41 0 -41 45q0 50 80 102l93 60l-23 89q-5 19 -5 33q0 16 11.5 27t28.5 11q26 0 38 -41z" />
<glyph unicode="y" horiz-adv-x="353" d="M173 86l105 224q23 50 51 50q37 0 37 -35q0 -12 -13 -40l-95 -203q-8 -17 -8 -27q0 -8 12 -25q22 -31 22 -59q0 -68 -64 -100q-37 -18 -128 -18h-149q-32 0 -43 6q-16 9 -16 28q0 25 23 35q14 6 44 6h143q104 0 104 40q0 21 -19 28q-11 4 -42 4q-65 1 -88 13 q-43 23 -43 74q0 35 30 99l66 140q15 34 43 34q37 0 37 -35q0 -12 -13 -40l-62 -133q-16 -34 -16 -52q0 -26 33 -26q17 0 49 12z" />
<glyph unicode="z" horiz-adv-x="338" d="M236 280h-94q-32 0 -42 6q-16 9 -16 28q0 24 22 34q11 5 44 5h122q34 0 46 -6q24 -12 24 -40q0 -46 -86 -111q-51 -39 -102 -62q16 -4 29 -14q76 32 170 32q57 0 57 -35q0 -23 -18 -33q-10 -5 -50 -8q-62 -4 -104 -17q12 -23 12 -52q0 -81 -60.5 -146t-135.5 -65 q-40 0 -67 25.5t-27 63.5q0 52 42 108.5t104 88.5q-9 5 -36 8q-45 6 -45 31q0 26 40 45q18 9 61 34q72 42 105 75zM161 34q-49 -28 -85 -68.5t-36 -69.5q0 -28 25 -28q29 0 65 38q41 44 41 92q0 17 -10 36z" />
<glyph unicode="{" horiz-adv-x="648" d="M330 85h222q34 0 48 -8q18 -11 18 -31q0 -28 -25 -40q-12 -6 -51 -6h-268q-50 0 -50 43q0 14 10 36l9 20l224 479h-4l-8 -1q-106 -13 -183.5 -81t-77.5 -149q0 -50 45 -84q26 -20 26 -38q0 -16 -12.5 -27t-31.5 -11q-35 0 -69 35q-45 46 -45 125q0 121 116 217t262 96 q80 0 80 -52q0 -19 -26 -75z" />
<glyph unicode="|" horiz-adv-x="373" d="M205 37q-57 -44 -102 -44q-43 0 -68.5 27t-25.5 73q0 59 43 119.5t113 101.5q90 52 167 52q44 0 44 -35q0 -29 -50 -38q-86 -16 -145 -60q-87 -65 -87 -128q0 -33 27 -33q32 0 82 60l4 10q3 7 15 33l15 32q25 54 56 54q15 0 25.5 -9t10.5 -22q0 -15 -13 -41l-8 -16 q-32 -64 -32 -80q0 -13 11 -16.5t38 -3.5h105q57 0 57 -33q0 -24 -22 -35q-10 -5 -44 -5h-162q-29 0 -37 5q-15 7 -17 32z" />
<glyph unicode="}" horiz-adv-x="368" d="M146 227l-85 -184q-23 -50 -51 -50q-37 0 -37 36q0 11 13 39l204 439q23 50 51 50q37 0 37 -35q0 -12 -13 -40l-68 -146q37 24 69 24q41 0 65.5 -26.5t24.5 -71.5q0 -60 -54 -130q-33 -42 -60 -59q29 6 65 22l60 32q43 22 59 22q31 0 31 -32q0 -29 -60 -61 q-118 -63 -251 -63q-63 0 -63 34q0 12 7 19t35 24q61 36 103.5 88t42.5 90q0 33 -33 33q-45 0 -92 -54z" />
<glyph unicode="~" horiz-adv-x="471" d="M326 280l-153 -230q-21 -32 -27 -38q-18 -19 -40 -19q-29 0 -38 27q-4 11 -6 29l-2 15l-2 15l-19 207q-3 33 -3 32q0 42 40 42q36 0 41 -57l17 -180l127 192q16 24 24 30q12 8 35 8h207q57 0 57 -33q0 -24 -21 -35q-12 -5 -45 -5h-192z" />
<glyph unicode="&#xa1;" horiz-adv-x="334" d="M114 68l152 326q23 49 51 49q37 0 37 -35q0 -11 -13 -39l-152 -326q-23 -50 -51 -50q-37 0 -37 35q0 12 13 40zM410 517q0 -25 -14 -41t-37 -16q-43 0 -43 42q0 23 15.5 39t38.5 16q40 0 40 -40z" />
<glyph unicode="&#xa2;" horiz-adv-x="335" d="M163 96l-25 -53q-24 -50 -51 -50q-37 0 -37 36q0 11 13 39l24 51q-47 33 -47 102q0 49 22.5 102t58.5 90q45 46 107 51l20 43q23 50 51 50q37 0 37 -35q0 -13 -13 -40l-18 -37q41 -30 41 -71q0 -18 -11.5 -30t-28.5 -12q-23 0 -37 28.5t-35 28.5q-36 0 -70 -53.5 t-34 -109.5q0 -52 39 -52q21 0 39 15l11 9q12 10 29 10q37 0 37 -37q0 -31 -35 -53t-85 -22h-2z" />
<glyph unicode="&#xa3;" horiz-adv-x="554" d="M128 206h-45q-32 0 -42 6q-15 9 -15 28q0 24 21 34q11 5 44 5h72l1 3q71 139 161 209q85 66 167 66q46 0 74 -22t28 -58q0 -35 -28 -99q-23 -53 -50 -53q-16 0 -27 9.5t-11 22.5q0 12 16 46q18 39 18 52q0 24 -29 24q-39 0 -92 -36q-73 -50 -134 -161l-2 -3h125 q57 0 57 -33q0 -25 -22 -35q-11 -5 -44 -5h-153q-25 -52 -51 -120l-5 -13h202q57 0 57 -33q0 -24 -22 -35q-10 -5 -44 -5h-304q-32 0 -42 6q-15 9 -15 28q0 35 43 38q25 2 34 9t19 33l14 35l12 28z" />
<glyph unicode="&#xa4;" horiz-adv-x="355" d="M269 89q-62 -96 -147 -96q-49 0 -78.5 34t-29.5 90q0 94 59 168.5t133 74.5q50 0 78.5 -32t28.5 -89q0 -15 -2 -33l-2 -18q-2 -18 -2 -17q0 -40 43 -40q17 0 39 10.5t29 10.5q27 0 27 -29q0 -26 -29 -45.5t-69 -19.5q-48 0 -78 31zM100 116q0 -43 35 -43q33 0 67 68 q26 51 26 98q0 44 -32 44q-39 0 -73 -77q-23 -53 -23 -90z" />
<glyph unicode="&#xa5;" horiz-adv-x="480" d="M164 172h-75q-33 0 -42 6q-16 8 -16 27q0 24 22 34q13 6 44 6h88l-68 257q-3 12 -3 20q0 35 37 35q19 0 28.5 -12.5t19.5 -48.5l52 -196l118 105q9 8 31 28q33 29 44 43t22.5 45t37.5 31q41 0 41 -46q0 -31 -23 -61.5t-82 -81.5l-138 -118h70q58 0 58 -34q0 -23 -22 -34 q-10 -5 -44 -5h-114l-59 -129q-23 -50 -51 -50q-37 0 -37 36q0 11 13 39z" />
<glyph unicode="&#xa7;" horiz-adv-x="670" d="M409 200l-23 89q-5 19 -5 33q0 16 11.5 27t28.5 11q27 0 38 -41l20 -74l60 39q45 29 54 46l5 9q12 21 34 21q17 0 29 -12t12 -29q0 -43 -78 -92l-94 -59l12 -45q7 -27 9 -32q9 -18 24 -18q36 0 125 54l23 14q18 11 30 11q13 0 22 -10.5t9 -24.5q0 -27 -80 -73 q-89 -51 -145 -51q-40 0 -58 18.5t-33 73.5l-10 37q-57 -36 -118 -67q-124 -62 -208 -62q-103 0 -103 83q0 60 76 101q-13 23 -13 50q0 66 86 109q63 31 89 31q37 0 37 -34q0 -16 -14 -27q-7 -4 -47 -22l-34 -15q-40 -18 -40 -40q0 -9 5 -19q49 23 65 23q14 0 24 -10t10 -24 q0 -24 -32 -38q-9 -4 -31 -14l-44 -20q-51 -23 -51 -44q0 -18 25 -18q35 0 84 19q64 25 141 71l35 21q26 16 38 24z" />
<glyph unicode="&#xa8;" horiz-adv-x="410" d="M161 494q0 -25 -14.5 -41t-37.5 -16q-42 0 -42 42q0 23 15.5 39t37.5 16q41 0 41 -40zM344 494q0 -25 -14.5 -41t-37.5 -16q-42 0 -42 42q0 23 15.5 39t37.5 16q41 0 41 -40z" />
<glyph unicode="&#xa9;" horiz-adv-x="520" d="M320 235l-90 -192q-23 -50 -51 -50q-37 0 -37 36q0 11 13 39l72 154q16 34 16 44q0 11 -12 11q-23 0 -83 -51l-3 -2l-84 -181q-23 -50 -51 -50q-37 0 -37 36q0 11 13 39l113 242q23 50 51 50q34 0 37 -33q45 33 80 33q49 0 57 -41q56 41 107 41q70 0 70 -69 q0 -34 -50 -129q-13 -25 -20 -40l-5 -11q-4 -9 -4 -17q0 -17 31 -20l12 -1h5h106q58 0 58 -33q0 -24 -22 -35q-10 -5 -44 -5h-120q-62 0 -83 12q-32 18 -32 60q0 27 40 111l11 23q24 50 24 60q0 11 -13 11q-25 0 -75 -42z" />
<glyph unicode="&#xaa;" horiz-adv-x="346" d="M251 73h151q57 0 57 -33q0 -24 -21 -35q-12 -5 -45 -5h-265q-44 0 -44 39q0 20 13 28q8 5 32 8q57 8 57 56q0 18 -15 63l-9 27q-2 2 -7 21l-2 8l-64 -138q-16 -35 -41 -35q-39 0 -39 33q0 15 13 43l107 227q14 29 17 34q12 15 32 15q16 0 27 -9t11 -22q0 -6 -2 -16 l-6 -17q-3 -8 -3 -19q0 -26 22 -72l22 -46q21 -44 21 -92q0 -32 -19 -63z" />
<glyph unicode="&#xab;" horiz-adv-x="448" d="M217 182l8 -59q5 -37 5 -42q0 -34 -35 -34q-34 0 -41 44l-13 78q-3 17 -3 22q0 16 21 43l37 47q31 39 51 39q14 0 25 -10t11 -23q0 -10 -13 -30l-12 -18zM344 182l8 -59q5 -37 5 -42q0 -34 -35 -34q-37 0 -42 44l-3 24l-7 37l-2 17q-3 25 -3 22q0 16 21 43l37 47 q31 39 51 39q14 0 25 -10t11 -23q0 -12 -13 -30l-13 -18z" />
<glyph unicode="&#xac;" horiz-adv-x="187" d="M234 0h-119q-63 0 -84 12q-31 18 -31 60q0 27 26 83l72 155q23 50 51 50q37 0 37 -35q0 -12 -13 -40l-76 -163q-9 -19 -9 -29q0 -19 32 -19l11 -1h112q57 0 57 -33q0 -24 -22 -35q-10 -5 -44 -5zM240 429q0 -25 -14 -41t-36 -16q-44 0 -44 45q0 23 14.5 38.5t36.5 15.5 q43 0 43 -42z" />
<glyph unicode="&#xae;" horiz-adv-x="187" d="M234 0h-119q-63 0 -84 12q-31 18 -31 60q0 27 26 83l164 352q23 50 51 50q37 0 37 -35q0 -12 -13 -40l-168 -360q-9 -19 -9 -29q0 -19 32 -19l11 -1h112q57 0 57 -33q0 -24 -22 -35q-10 -5 -44 -5z" />
<glyph unicode="&#xaf;" horiz-adv-x="387" d="M237 73h206q57 0 57 -33q0 -24 -22 -35q-10 -5 -44 -5h-280q-33 0 -45 5q-20 9 -20 33q0 25 32 43l25 14q129 72 129 153q0 34 -31 34q-18 0 -45 -15t-46 -36l-179 -385q-23 -49 -51 -49q-37 0 -37 35q0 11 13 39l234 503q23 49 51 49q37 0 37 -35q0 -10 -13 -39l-5 -11 l3 1q34 21 68 21q39 0 62.5 -26.5t23.5 -70.5q0 -50 -34 -102.5t-89 -87.5z" />
<glyph unicode="&#xb0;" d="M33 0v667h334v-667h-334zM40 7h320v653h-320v-653z" />
<glyph unicode="&#xb1;" horiz-adv-x="691" d="M491 85l223 478q-35 16 -90 16q-111 0 -199 -71.5t-88 -160.5q0 -50 38 -80q31 -24 31 -42q0 -40 -43 -40q-46 0 -80.5 47.5t-34.5 111.5q0 125 115.5 220.5t265.5 95.5q78 0 126.5 -23.5t48.5 -60.5q0 -19 -25 -73l-204 -439q-1 -2 -8 -17q-15 -33 -27 -40t-57 -7h-337 q-37 0 -48 7q-18 11 -18 32q0 27 25 40q15 6 51 6h335z" />
<glyph unicode="&#xb4;" horiz-adv-x="323" d="M222 480l-79 -54q-27 -18 -43 -18q-13 0 -23 11t-10 26q0 22 31 44l74 53q29 21 45 21t27.5 -11t11.5 -27q0 -22 -34 -45z" />
<glyph unicode="&#xb5;" horiz-adv-x="383" d="M232 73h207q57 0 57 -33q0 -24 -22 -35q-10 -5 -44 -5h-282q-64 0 -64 39q0 20 29 38l21 13q76 47 107 90q29 40 29 67q0 33 -34 33q-45 0 -88 -50l-87 -187q-23 -50 -51 -50q-37 0 -37 36q0 11 13 39l204 439q23 50 51 50q37 0 37 -35q0 -12 -13 -40l-67 -144 q38 21 70 21q38 0 62.5 -27t24.5 -70q0 -48 -33.5 -99.5t-89.5 -89.5z" />
<glyph unicode="&#xb6;" horiz-adv-x="347" d="M99 125l-38 -82q-23 -50 -51 -50q-38 0 -38 36q0 9 14 39l204 439q23 50 51 50q37 0 37 -35q0 -12 -13 -40l-104 -224q30 27 97 67q59 35 78 35q14 0 24.5 -11t10.5 -25q0 -18 -35 -39l-30 -18l-42 -26q-24 -15 -48 -32l-4 -4q8 -93 34 -122q9 -10 47 -10h110 q57 0 57 -33q0 -25 -21 -35q-10 -5 -44 -5h-143q-56 0 -76 28q-23 33 -35 127q-18 -11 -40 -28z" />
<glyph unicode="&#xb7;" horiz-adv-x="243" d="M191 291q0 -26 -14.5 -42t-37.5 -16q-42 0 -42 43q0 23 15 38.5t38 15.5q41 0 41 -39z" />
<glyph unicode="&#xb8;" d="M33 0v667h334v-667h-334zM40 7h320v653h-320v-653z" />
<glyph unicode="&#xba;" horiz-adv-x="237" d="M181 280l-74 -158q-9 -19 -9 -29q0 -19 32 -19l11 -1h112q57 0 57 -33q0 -24 -22 -35q-10 -5 -44 -5h-119q-63 0 -84 12q-31 18 -31 60q0 27 26 83l58 125h-5q-31 0 -41 6q-16 9 -16 28q0 24 22 34q11 5 44 5h30l30 65q23 50 51 50q37 0 37 -36q0 -10 -13 -39l-18 -40h32 q57 0 57 -33q0 -24 -22 -35q-10 -5 -44 -5h-57z" />
<glyph unicode="&#xbb;" horiz-adv-x="448" d="M201 203l-6 51q-4 16 -4 34q0 32 35 32q33 0 39 -37l3 -20l5 -30q0 1 2 -17q0 -1 1 -5v-6q1 -5 1 -12q0 -14 -24 -46l-41 -54l-13 -20q-21 -26 -41 -26q-15 0 -25.5 9.5t-10.5 23.5q0 12 13 31l14 20zM326 203l-6 51q0 6 -3 19v8q-1 5 -1 7q0 32 35 32q33 0 39 -37l3 -20 l5 -30q0 1 2 -17q1 -3 2 -11q0 -3 1 -7v-5q0 -12 -25 -46l-54 -74q-19 -26 -41 -26q-14 0 -25 10t-11 23q0 9 14 31l13 20z" />
<glyph unicode="&#xbf;" horiz-adv-x="551" d="M132 114q0 61 48 114q35 39 133 94q76 43 91 73l11 22q14 27 39 27q38 0 38 -41q0 -64 -116 -131l-52 -30q-108 -62 -108 -115q0 -54 64 -54q58 0 107.5 36.5t49.5 77.5q0 5 -1 7l-2 16q-2 6 -2 10q0 38 39 38q48 0 48 -69q0 -76 -76.5 -136t-173.5 -60 q-64 0 -100.5 32.5t-36.5 88.5zM548 517q0 -25 -14.5 -41t-37.5 -16q-42 0 -42 42q0 23 15.5 39t37.5 16q41 0 41 -40z" />
<glyph unicode="&#xc0;" d="M33 0v667h334v-667h-334zM40 7h320v653h-320v-653z" />
<glyph unicode="&#xc1;" d="M33 0v667h334v-667h-334zM40 7h320v653h-320v-653z" />
<glyph unicode="&#xc2;" d="M33 0v667h334v-667h-334zM40 7h320v653h-320v-653z" />
<glyph unicode="&#xc3;" d="M33 0v667h334v-667h-334zM40 7h320v653h-320v-653z" />
<glyph unicode="&#xc4;" horiz-adv-x="459" d="M81 79q65 10 127.5 65.5t62.5 104.5q0 25 -17 30l-13 4q-24 7 -24 32t22 34q10 4 44 4h232q57 0 57 -33q0 -24 -21 -35q-12 -5 -45 -5h-152q1 -9 1 -22q0 -96 -99.5 -180.5t-213.5 -84.5q-59 0 -59 45q0 18 15 49l2 6l194 414q23 50 51 50q37 0 37 -35q0 -12 -13 -40z " />
<glyph unicode="&#xc5;" horiz-adv-x="308" d="M222 266q-49 -26 -89.5 -75.5t-40.5 -81.5q0 -21 13 -28.5t56 -7.5h204q57 0 57 -33q0 -24 -22 -35q-10 -5 -44 -5h-203q-73 0 -104 17q-42 23 -42 80q0 102 118 195q87 68 154 68q42 0 42 -36q0 -11 -5 -27t-10 -24l-26 -57q-14 -30 -37 -30q-35 0 -35 33q0 16 14 47z " />
<glyph unicode="&#xc6;" horiz-adv-x="262" d="M115 286q-19 -43 -47 -43q-37 0 -37 36q0 11 13 39l28 60q23 50 51 50q37 0 37 -35q0 -10 -12 -37l-1 -3q4 1 10 1q40 0 65 -20.5t25 -53.5q0 -38 -37 -77q-61 -65 -77 -73q-29 -26 -29 -40q0 -17 36 -17h178q58 0 58 -33q0 -24 -22 -35q-10 -5 -44 -5h-186q-53 0 -76 10 q-41 18 -41 66q0 34 29 67q19 21 71 68q33 30 40 38t7 17q0 19 -39 20z" />
<glyph unicode="&#xc7;" horiz-adv-x="575" d="M394 0l-66 -79q-31 -37 -51 -37q-16 0 -27 10.5t-11 26.5q0 12 14 30l11 14l30 35h-3q-83 0 -131 49q-54 56 -54 139q0 88 47 179t132 167q141 126 275 126q51 0 82 -24t31 -64t-50 -149q-22 -47 -50 -47q-39 0 -39 36q0 16 13 44l15 32q22 47 22 68q0 24 -28 24 q-38 0 -96 -29t-110 -74q-68 -59 -109.5 -136.5t-41.5 -144.5q0 -74 50 -98q27 -13 109 -13h109q63 0 63 -39q0 -28 -25 -40q-13 -6 -51 -6h-60z" />
<glyph unicode="&#xc8;" d="M33 0v667h334v-667h-334zM40 7h320v653h-320v-653z" />
<glyph unicode="&#xc9;" horiz-adv-x="382" d="M317 360l69 147q23 50 51 50q37 0 37 -35q0 -12 -13 -40l-162 -348q-1 -1 -6 -12q-10 -22 -10 -31q0 -14 20 -16q13 -2 46 -2h89q57 0 57 -33q0 -24 -21 -35q-13 -5 -44 -5h-158q-53 0 -62 35q-56 -42 -106 -42q-41 0 -66 27.5t-25 72.5q0 94 89.5 172.5t214.5 94.5z M277 274q-71 -18 -126 -69t-55 -99q0 -32 30 -32q32 0 81 51z" />
<glyph unicode="&#xca;" d="M33 0v667h334v-667h-334zM40 7h320v653h-320v-653z" />
<glyph unicode="&#xcb;" d="M33 0v667h334v-667h-334zM40 7h320v653h-320v-653z" />
<glyph unicode="&#xcc;" d="M33 0v667h334v-667h-334zM40 7h320v653h-320v-653z" />
<glyph unicode="&#xcd;" d="M33 0v667h334v-667h-334zM40 7h320v653h-320v-653z" />
<glyph unicode="&#xce;" d="M33 0v667h334v-667h-334zM40 7h320v653h-320v-653z" />
<glyph unicode="&#xcf;" d="M33 0v667h334v-667h-334zM40 7h320v653h-320v-653z" />
<glyph unicode="&#xd1;" horiz-adv-x="276" d="M145 210q49 23 65 23q14 0 24 -10t10 -24q0 -24 -32 -38q-3 -1 -31 -14l-44 -20q-49 -22 -49 -39q0 -8 7.5 -11.5t39.5 -3.5h198q57 0 57 -33q0 -24 -22 -35q-10 -5 -44 -5h-192q-58 0 -86 11q-46 18 -46 66q0 59 76 100q-13 23 -13 50q0 66 86 109q63 31 89 31 q37 0 37 -34q0 -16 -14 -27q-7 -4 -47 -22l-34 -15q-40 -18 -40 -40q0 -9 5 -19z" />
<glyph unicode="&#xd2;" d="M33 0v667h334v-667h-334zM40 7h320v653h-320v-653z" />
<glyph unicode="&#xd3;" d="M33 0v667h334v-667h-334zM40 7h320v653h-320v-653z" />
<glyph unicode="&#xd4;" d="M33 0v667h334v-667h-334zM40 7h320v653h-320v-653z" />
<glyph unicode="&#xd5;" d="M33 0v667h334v-667h-334zM40 7h320v653h-320v-653z" />
<glyph unicode="&#xd6;" horiz-adv-x="311" d="M144 353l71 154q23 50 51 50q37 0 37 -35q0 -12 -13 -40l-60 -129h162q58 0 58 -33q0 -24 -22 -35q-10 -5 -44 -5h-156q39 -74 39 -150q0 -122 -79.5 -228.5t-170.5 -106.5q-37 0 -60 22t-23 57q0 29 28 89l147 317h-27q-32 0 -42 6q-16 9 -16 28q0 24 22 34q11 5 44 5 h54zM167 218l-126 -271q-22 -47 -22 -59q0 -14 14 -14q24 0 63.5 44t63.5 103t24 112q0 43 -17 85z" />
<glyph unicode="&#xd8;" horiz-adv-x="364" d="M269 73h151q58 0 58 -33q0 -24 -22 -35q-10 -5 -44 -5h-255q-64 0 -98 25q-47 35 -47 83q0 44 39 44q21 0 34 -25l9 -18q17 -35 53 -35q59 0 59 61q0 22 -15 61l-10 26q-3 9 -8 27l-10 -20q-15 -30 -24.5 -40t-25.5 -10q-38 0 -38 36q0 11 13 39l58 124q13 28 18 35 q12 16 32 16q38 0 38 -35q0 -7 -2 -11l-6 -21q-2 -7 -2 -16q0 -22 24 -74q15 -33 27 -67q14 -40 14 -66q0 -36 -20 -66z" />
<glyph unicode="&#xd9;" d="M33 0v667h334v-667h-334zM40 7h320v653h-320v-653z" />
<glyph unicode="&#xda;" d="M33 0v667h334v-667h-334zM40 7h320v653h-320v-653z" />
<glyph unicode="&#xdb;" d="M33 0v667h334v-667h-334zM40 7h320v653h-320v-653z" />
<glyph unicode="&#xdc;" horiz-adv-x="363" d="M194 329q41 31 82 31q30 0 48.5 -17.5t18.5 -46.5q0 -38 -27 -91l-42 -83q-9 -18 -9 -29q0 -19 31 -19l11 -1h112q57 0 57 -33q0 -25 -21 -35q-10 -5 -44 -5h-120q-63 0 -84 12q-31 17 -31 61q0 30 40 110l14 28q22 44 22 53q0 14 -14 14q-34 0 -93 -54l-84 -181 q-23 -50 -51 -50q-37 0 -37 36q0 11 13 39l204 439q23 50 51 50q37 0 37 -35q0 -12 -13 -40z" />
<glyph unicode="&#xdf;" horiz-adv-x="411" d="M-14 68l113 244q56 121 110 172q76 72 166 72q54 0 88.5 -30.5t34.5 -78.5q0 -54 -45 -105q-23 -26 -81 -67q-22 -16 -22 -28q0 -10 7 -29q8 -22 8 -42q0 -69 -92 -128q-86 -55 -136 -55q-42 0 -42 40q0 18 13 27q5 4 42 19q54 19 95 49q36 26 36 52q0 11 -10 42 q-6 19 -6 32q0 42 55 80l35 24q61 42 61 80q0 39 -50 39q-49 0 -100 -47q-46 -42 -95 -149l-110 -238q-23 -50 -51 -50q-37 0 -37 36q0 11 13 39z" />
<glyph unicode="&#xe0;" horiz-adv-x="368" d="M203 36q-57 -43 -100 -43t-68.5 27t-25.5 73q0 59 43 119.5t113 101.5q90 52 167 52q44 0 44 -35q0 -29 -50 -38q-86 -16 -145 -60q-87 -65 -87 -128q0 -33 27 -33q32 0 82 60l4 10q3 7 15 33l15 32q25 54 56 54q36 0 36 -32q0 -13 -13 -40l-16 -33q-5 -10 -15 -31 q-12 -24 -12 -34q0 -17 17 -17q20 0 84 50q33 26 47 26q13 0 23 -9t10 -21q0 -30 -61 -72q-80 -55 -135 -55q-47 0 -55 43zM317 534l30 -35q31 -36 31 -54q0 -16 -10.5 -26.5t-25.5 -10.5q-20 0 -46 30l-32 37q-30 35 -30 50q0 16 11 27t27 11q20 0 45 -29z" />
<glyph unicode="&#xe1;" horiz-adv-x="368" d="M203 36q-57 -43 -100 -43t-68.5 27t-25.5 73q0 59 43 119.5t113 101.5q90 52 167 52q44 0 44 -35q0 -29 -50 -38q-86 -16 -145 -60q-87 -65 -87 -128q0 -33 27 -33q32 0 82 60l4 10q3 7 15 33l15 32q25 54 56 54q36 0 36 -32q0 -13 -13 -40l-16 -33q-5 -10 -15 -31 q-12 -24 -12 -34q0 -17 17 -17q20 0 84 50q33 26 47 26q13 0 23 -9t10 -21q0 -30 -61 -72q-80 -55 -135 -55q-47 0 -55 43zM363 480l-79 -54q-27 -18 -43 -18q-13 0 -23 11t-10 26q0 22 31 44l74 53q29 21 45 21t27.5 -11t11.5 -27q0 -22 -34 -45z" />
<glyph unicode="&#xe2;" horiz-adv-x="368" d="M203 36q-57 -43 -100 -43t-68.5 27t-25.5 73q0 59 43 119.5t113 101.5q90 52 167 52q44 0 44 -35q0 -29 -50 -38q-86 -16 -145 -60q-87 -65 -87 -128q0 -33 27 -33q32 0 82 60l4 10q3 7 15 33l15 32q25 54 56 54q36 0 36 -32q0 -13 -13 -40l-16 -33q-5 -10 -15 -31 q-12 -24 -12 -34q0 -17 17 -17q20 0 84 50q33 26 47 26q13 0 23 -9t10 -21q0 -30 -61 -72q-80 -55 -135 -55q-47 0 -55 43zM310 473l-63 -45q-28 -20 -43 -20q-36 0 -36 36q0 24 21 38l19 13l66 46q32 22 47 22q17 0 44 -31l34 -39q24 -28 24 -46q0 -39 -35 -39 q-19 0 -44 27z" />
<glyph unicode="&#xe3;" horiz-adv-x="368" d="M203 36q-57 -43 -100 -43t-68.5 27t-25.5 73q0 59 43 119.5t113 101.5q90 52 167 52q44 0 44 -35q0 -29 -50 -38q-86 -16 -145 -60q-87 -65 -87 -128q0 -33 27 -33q32 0 82 60l4 10q3 7 15 33l15 32q25 54 56 54q36 0 36 -32q0 -13 -13 -40l-16 -33q-5 -10 -15 -31 q-12 -24 -12 -34q0 -17 17 -17q20 0 84 50q33 26 47 26q13 0 23 -9t10 -21q0 -30 -61 -72q-80 -55 -135 -55q-47 0 -55 43zM250 473l-11 -28q-15 -38 -44 -38q-16 0 -27 10.5t-11 25.5q0 8 13 37l15 34q22 50 49 50q12 0 46 -20l80 -47l5 13q11 28 16 36q12 17 32 17 q16 0 28 -11t12 -26t-10 -37l-17 -38q-20 -44 -47 -44q-18 0 -53 21z" />
<glyph unicode="&#xe4;" horiz-adv-x="368" d="M203 36q-57 -43 -100 -43t-68.5 27t-25.5 73q0 59 43 119.5t113 101.5q90 52 167 52q44 0 44 -35q0 -29 -50 -38q-86 -16 -145 -60q-87 -65 -87 -128q0 -33 27 -33q32 0 82 60l4 10q3 7 15 33l15 32q25 54 56 54q36 0 36 -32q0 -13 -13 -40l-16 -33q-5 -10 -15 -31 q-12 -24 -12 -34q0 -17 17 -17q20 0 84 50q33 26 47 26q13 0 23 -9t10 -21q0 -30 -61 -72q-80 -55 -135 -55q-47 0 -55 43zM261 494q0 -25 -14.5 -41t-37.5 -16q-42 0 -42 42q0 23 15.5 39t37.5 16q41 0 41 -40zM444 494q0 -25 -14.5 -41t-37.5 -16q-42 0 -42 42 q0 23 15.5 39t37.5 16q41 0 41 -40z" />
<glyph unicode="&#xe5;" horiz-adv-x="368" d="M203 36q-57 -43 -100 -43t-68.5 27t-25.5 73q0 59 43 119.5t113 101.5q90 52 167 52q44 0 44 -35q0 -29 -50 -38q-86 -16 -145 -60q-87 -65 -87 -128q0 -33 27 -33q32 0 82 60l4 10q3 7 15 33l15 32q25 54 56 54q36 0 36 -32q0 -13 -13 -40l-16 -33q-5 -10 -15 -31 q-12 -24 -12 -34q0 -17 17 -17q20 0 84 50q33 26 47 26q13 0 23 -9t10 -21q0 -30 -61 -72q-80 -55 -135 -55q-47 0 -55 43zM377 494q0 -32 -22 -54.5t-52 -22.5q-61 0 -61 59q0 33 21.5 56t52.5 23q27 0 44 -17.5t17 -43.5zM288 481q0 -20 18 -20q25 0 25 32q0 19 -18 19 q-10 0 -17.5 -9.5t-7.5 -21.5z" />
<glyph unicode="&#xe6;" horiz-adv-x="493" d="M292 306q56 54 117 54q37 0 59 -21t22 -56q0 -57 -60 -98t-152 -48q-3 -12 -3 -18q0 -48 55 -48q40 0 94 22q30 12 86 44q21 12 32 12q31 0 31 -31q0 -38 -91 -81t-162 -43q-89 0 -109 58l-5 -5q-54 -54 -114 -54q-40 0 -64.5 22t-24.5 59q0 56 57.5 92.5t156.5 43.5 q6 18 6 33q0 39 -41 39q-25 0 -77 -17q-15 -5 -22 -5q-30 0 -30 35q0 28 48.5 46.5t96.5 18.5q70 0 94 -54zM302 211q44 4 79.5 23.5t35.5 38.5q0 16 -17 16q-20 0 -49 -23t-49 -55zM193 138q-110 -10 -110 -55q0 -20 21 -20t47 22t42 53z" />
<glyph unicode="&#xe7;" horiz-adv-x="312" d="M205 3l-53 -62q-32 -37 -50 -37q-16 0 -27 10.5t-11 26.5q0 12 14 30l11 14l9 11q-91 11 -91 103q0 100 118 193q87 68 154 68q42 0 42 -36q0 -10 -6 -27q-3 -10 -9 -24l-26 -57q-14 -30 -37 -30q-35 0 -35 33q0 16 14 47q-49 -26 -89.5 -75.5t-40.5 -82.5q0 -36 44 -36 q24 0 66 13.5t75 29.5l47 23q25 12 40 12q30 0 30 -33q0 -28 -48 -56q-71 -41 -138 -57z" />
<glyph unicode="&#xe8;" horiz-adv-x="280" d="M76 177q-13 23 -13 50q0 66 86 109q63 31 89 31q37 0 37 -34q0 -16 -14 -27q-7 -4 -47 -22l-34 -15q-40 -18 -40 -40q0 -9 5 -19q49 23 65 23q14 0 24 -10t10 -24q0 -24 -32 -38q-9 -4 -31 -14l-44 -20q-51 -23 -51 -44q0 -19 25 -19q69 0 182 68q33 20 47 20 q32 0 32 -32q0 -33 -89 -77q-102 -50 -181 -50q-102 0 -102 83q0 60 76 101zM269 534l30 -35q31 -36 31 -54q0 -16 -10.5 -26.5t-25.5 -10.5q-20 0 -46 30l-32 37q-30 35 -30 50q0 16 11 27t27 11q20 0 45 -29z" />
<glyph unicode="&#xe9;" horiz-adv-x="280" d="M76 177q-13 23 -13 50q0 66 86 109q63 31 89 31q37 0 37 -34q0 -16 -14 -27q-7 -4 -47 -22l-34 -15q-40 -18 -40 -40q0 -9 5 -19q49 23 65 23q14 0 24 -10t10 -24q0 -24 -32 -38q-9 -4 -31 -14l-44 -20q-51 -23 -51 -44q0 -19 25 -19q69 0 182 68q33 20 47 20 q32 0 32 -32q0 -33 -89 -77q-102 -50 -181 -50q-102 0 -102 83q0 60 76 101zM330 480l-79 -54q-27 -18 -43 -18q-13 0 -23 11t-10 26q0 22 31 44l74 53q29 21 45 21t27.5 -11t11.5 -27q0 -22 -34 -45z" />
<glyph unicode="&#xea;" horiz-adv-x="280" d="M76 177q-13 23 -13 50q0 66 86 109q63 31 89 31q37 0 37 -34q0 -16 -14 -27q-7 -4 -47 -22l-34 -15q-40 -18 -40 -40q0 -9 5 -19q49 23 65 23q14 0 24 -10t10 -24q0 -24 -32 -38q-9 -4 -31 -14l-44 -20q-51 -23 -51 -44q0 -19 25 -19q69 0 182 68q33 20 47 20 q32 0 32 -32q0 -33 -89 -77q-102 -50 -181 -50q-102 0 -102 83q0 60 76 101zM257 473l-63 -45q-28 -20 -43 -20q-36 0 -36 36q0 24 21 38l19 13l66 46q32 22 47 22q17 0 44 -31l34 -39q24 -28 24 -46q0 -39 -35 -39q-19 0 -44 27z" />
<glyph unicode="&#xeb;" horiz-adv-x="280" d="M76 177q-13 23 -13 50q0 66 86 109q63 31 89 31q37 0 37 -34q0 -16 -14 -27q-7 -4 -47 -22l-34 -15q-40 -18 -40 -40q0 -9 5 -19q49 23 65 23q14 0 24 -10t10 -24q0 -24 -32 -38q-9 -4 -31 -14l-44 -20q-51 -23 -51 -44q0 -19 25 -19q69 0 182 68q33 20 47 20 q32 0 32 -32q0 -33 -89 -77q-102 -50 -181 -50q-102 0 -102 83q0 60 76 101zM219 494q0 -25 -14.5 -41t-37.5 -16q-42 0 -42 42q0 23 15.5 39t37.5 16q41 0 41 -40zM402 494q0 -25 -14.5 -41t-37.5 -16q-42 0 -42 42q0 23 15.5 39t37.5 16q41 0 41 -40z" />
<glyph unicode="&#xec;" horiz-adv-x="180" d="M21 150l75 160q23 50 51 50q37 0 37 -35q0 -12 -13 -40l-76 -164q-10 -22 -10 -30q0 -16 15 -16q20 0 79 46q41 32 55 32q13 0 22 -9.5t9 -23.5q0 -39 -78 -85q-71 -42 -114 -42q-35 0 -55.5 20t-20.5 54q0 32 24 83zM218 537l30 -35q31 -36 31 -54q0 -16 -10.5 -26.5 t-25.5 -10.5q-20 0 -46 30l-32 37q-30 35 -30 50q0 16 11 27t27 11q20 0 45 -29z" />
<glyph unicode="&#xed;" horiz-adv-x="180" d="M21 150l75 160q23 50 51 50q37 0 37 -35q0 -12 -13 -40l-76 -164q-10 -22 -10 -30q0 -16 15 -16q20 0 79 46q41 32 55 32q13 0 22 -9.5t9 -23.5q0 -39 -78 -85q-71 -42 -114 -42q-35 0 -55.5 20t-20.5 54q0 32 24 83zM276 480l-79 -54q-27 -18 -43 -18q-13 0 -23 11 t-10 26q0 22 31 44l74 53q29 21 45 21t27.5 -11t11.5 -27q0 -22 -34 -45z" />
<glyph unicode="&#xee;" horiz-adv-x="180" d="M21 150l75 160q23 50 51 50q37 0 37 -35q0 -12 -13 -40l-76 -164q-10 -22 -10 -30q0 -16 15 -16q20 0 79 46q41 32 55 32q13 0 22 -9.5t9 -23.5q0 -39 -78 -85q-71 -42 -114 -42q-35 0 -55.5 20t-20.5 54q0 32 24 83zM211 473l-63 -45q-28 -20 -43 -20q-36 0 -36 36 q0 24 21 38l19 13l66 46q32 22 47 22q17 0 44 -31l34 -39q24 -28 24 -46q0 -39 -35 -39q-19 0 -44 27z" />
<glyph unicode="&#xef;" horiz-adv-x="180" d="M21 150l75 160q23 50 51 50q37 0 37 -35q0 -12 -13 -40l-76 -164q-10 -22 -10 -30q0 -16 15 -16q20 0 79 46q41 32 55 32q13 0 22 -9.5t9 -23.5q0 -39 -78 -85q-71 -42 -114 -42q-35 0 -55.5 20t-20.5 54q0 32 24 83zM177 494q0 -25 -14.5 -41t-37.5 -16q-42 0 -42 42 q0 23 15.5 39t37.5 16q41 0 41 -40zM360 494q0 -25 -14.5 -41t-37.5 -16q-42 0 -42 42q0 23 15.5 39t37.5 16q41 0 41 -40z" />
<glyph unicode="&#xf1;" horiz-adv-x="354" d="M187 323q14 15 40.5 26t47.5 11q31 0 50 -17.5t19 -46.5q0 -36 -28 -91l-42 -83q-11 -22 -11 -32q0 -17 15 -17q16 0 77 47q41 32 57 32q13 0 22 -9.5t9 -22.5q0 -26 -46 -61q-86 -66 -146 -66q-35 0 -56 20.5t-21 54.5q0 20 10 47q8 21 46 96q23 45 23 53q0 14 -15 14 q-33 0 -93 -53l-84 -182q-23 -50 -51 -50q-37 0 -37 36q0 11 13 39l113 242q23 50 51 50q37 0 37 -34v-3zM246 473l-11 -28q-15 -38 -44 -38q-16 0 -27 10.5t-11 25.5q0 8 13 37l15 34q22 50 49 50q12 0 46 -20l80 -47l5 13q11 28 16 36q12 17 32 17q16 0 28 -11t12 -26 t-10 -37l-17 -38q-20 -44 -47 -44q-18 0 -53 21z" />
<glyph unicode="&#xf2;" horiz-adv-x="327" d="M13 117q0 94 59.5 168.5t133.5 74.5q50 0 78.5 -32t28.5 -89q0 -95 -58.5 -170.5t-132.5 -75.5q-49 0 -79 34t-30 90zM100 116q0 -43 35 -43q33 0 67 68q26 51 26 98q0 44 -32 44q-39 0 -73 -77q-23 -53 -23 -90zM282 535l30 -35q31 -36 31 -54q0 -16 -10.5 -26.5 t-25.5 -10.5q-20 0 -46 30l-32 37q-30 35 -30 50q0 16 11 27t27 11q20 0 45 -29z" />
<glyph unicode="&#xf3;" horiz-adv-x="327" d="M13 117q0 94 59.5 168.5t133.5 74.5q50 0 78.5 -32t28.5 -89q0 -95 -58.5 -170.5t-132.5 -75.5q-49 0 -79 34t-30 90zM100 116q0 -43 35 -43q33 0 67 68q26 51 26 98q0 44 -32 44q-39 0 -73 -77q-23 -53 -23 -90zM339 480l-79 -54q-27 -18 -43 -18q-13 0 -23 11t-10 26 q0 22 31 44l74 53q29 21 45 21t27.5 -11t11.5 -27q0 -22 -34 -45z" />
<glyph unicode="&#xf4;" horiz-adv-x="327" d="M13 117q0 94 59.5 168.5t133.5 74.5q50 0 78.5 -32t28.5 -89q0 -95 -58.5 -170.5t-132.5 -75.5q-49 0 -79 34t-30 90zM100 116q0 -43 35 -43q33 0 67 68q26 51 26 98q0 44 -32 44q-39 0 -73 -77q-23 -53 -23 -90zM272 473l-63 -45q-28 -20 -43 -20q-36 0 -36 36 q0 24 21 38l19 13l66 46q32 22 47 22q17 0 44 -31l34 -39q24 -28 24 -46q0 -39 -35 -39q-19 0 -44 27z" />
<glyph unicode="&#xf5;" horiz-adv-x="327" d="M13 117q0 94 59.5 168.5t133.5 74.5q50 0 78.5 -32t28.5 -89q0 -95 -58.5 -170.5t-132.5 -75.5q-49 0 -79 34t-30 90zM100 116q0 -43 35 -43q33 0 67 68q26 51 26 98q0 44 -32 44q-39 0 -73 -77q-23 -53 -23 -90zM217 473l-11 -28q-15 -38 -44 -38q-16 0 -27 10.5 t-11 25.5q0 8 13 37l15 34q22 50 49 50q12 0 46 -20l80 -47l5 13q11 28 16 36q12 17 32 17q16 0 28 -11t12 -26t-10 -37l-17 -38q-20 -44 -47 -44q-18 0 -53 21z" />
<glyph unicode="&#xf6;" horiz-adv-x="327" d="M13 117q0 94 59.5 168.5t133.5 74.5q50 0 78.5 -32t28.5 -89q0 -95 -58.5 -170.5t-132.5 -75.5q-49 0 -79 34t-30 90zM100 116q0 -43 35 -43q33 0 67 68q26 51 26 98q0 44 -32 44q-39 0 -73 -77q-23 -53 -23 -90zM232 494q0 -25 -14.5 -41t-37.5 -16q-42 0 -42 42 q0 23 15.5 39t37.5 16q41 0 41 -40zM415 494q0 -25 -14.5 -41t-37.5 -16q-42 0 -42 42q0 23 15.5 39t37.5 16q41 0 41 -40z" />
<glyph unicode="&#xf7;" horiz-adv-x="807" d="M653 280h-41q-41 0 -54 6q-25 12 -25 39q0 11 15 46l67 156q6 14 6 28q0 25 -32 25q-31 0 -74 -17.5t-74 -43.5q-59 -49 -59 -101q0 -34 49 -92q60 -70 80 -107.5t20 -77.5q0 -83 -68 -120q-38 -21 -135 -21h-262q-36 0 -48 7q-18 11 -18 32q0 27 25 40q15 6 51 6h242 q40 0 58 1q65 4 65 49q0 24 -26 62q-11 16 -52.5 66t-56.5 80t-15 66q0 57 36 111t99 91q83 49 162 49q56 0 89 -26t33 -70q0 -38 -23 -86l-60 -125h60l30 65q23 50 51 50q16 0 26.5 -10.5t10.5 -24.5q0 -11 -13 -40l-18 -40h31q58 0 58 -33q0 -24 -22 -35q-10 -5 -44 -5 h-57l-68 -145q-16 -34 -16 -46q0 -13 14 -13t39 13q18 9 61 36l26 16q18 11 31 11q14 0 24 -10t10 -24q0 -29 -74 -72q-92 -53 -143 -53q-36 0 -57 18.5t-21 50.5q0 31 25 85z" />
<glyph unicode="&#xf8;" horiz-adv-x="327" d="M273 340q21 20 36 20q14 0 25.5 -11t11.5 -25q0 -12 -27 -43l-7 -8q3 -18 3 -35q0 -94 -58.5 -169.5t-132.5 -75.5q-39 0 -67 22q-1 -3 -3 -3l-3 -4q-15 -15 -33 -15q-16 0 -26.5 10.5t-10.5 24.5q0 19 23 42l14 14q-3 18 -3 34q0 92 59.5 167t132.5 75q37 0 66 -20z M101 116q0 -43 35 -43q33 0 67 68q27 55 27 98q0 44 -32 44q-40 0 -74 -77q-23 -53 -23 -90z" />
<glyph unicode="&#xf9;" horiz-adv-x="361" d="M192 37l-7 -4q-70 -40 -113 -40q-34 0 -55 20t-21 52q0 28 28 88l73 157q23 50 51 50q37 0 37 -35q0 -12 -13 -40l-69 -148q-17 -38 -17 -47q0 -15 15 -15q28 0 95 56l83 179q23 50 51 50q37 0 37 -35q0 -12 -13 -40l-78 -167q-10 -22 -10 -29q0 -15 16 -15q22 0 93 59 q24 20 39 20q33 0 33 -32q0 -23 -48 -62q-81 -66 -147 -66q-42 0 -60 44zM306 534l30 -35q31 -36 31 -54q0 -16 -10.5 -26.5t-25.5 -10.5q-20 0 -46 30l-32 37q-30 35 -30 50q0 16 11 27t27 11q20 0 45 -29z" />
<glyph unicode="&#xfa;" horiz-adv-x="361" d="M192 37l-7 -4q-70 -40 -113 -40q-34 0 -55 20t-21 52q0 28 28 88l73 157q23 50 51 50q37 0 37 -35q0 -12 -13 -40l-69 -148q-17 -38 -17 -47q0 -15 15 -15q28 0 95 56l83 179q23 50 51 50q37 0 37 -35q0 -12 -13 -40l-78 -167q-10 -22 -10 -29q0 -15 16 -15q22 0 93 59 q24 20 39 20q33 0 33 -32q0 -23 -48 -62q-81 -66 -147 -66q-42 0 -60 44zM381 480l-79 -54q-27 -18 -43 -18q-13 0 -23 11t-10 26q0 22 31 44l74 53q29 21 45 21t27.5 -11t11.5 -27q0 -22 -34 -45z" />
<glyph unicode="&#xfb;" horiz-adv-x="361" d="M192 37l-7 -4q-70 -40 -113 -40q-34 0 -55 20t-21 52q0 28 28 88l73 157q23 50 51 50q37 0 37 -35q0 -12 -13 -40l-69 -148q-17 -38 -17 -47q0 -15 15 -15q28 0 95 56l83 179q23 50 51 50q37 0 37 -35q0 -12 -13 -40l-78 -167q-10 -22 -10 -29q0 -15 16 -15q22 0 93 59 q24 20 39 20q33 0 33 -32q0 -23 -48 -62q-81 -66 -147 -66q-42 0 -60 44zM304 473l-63 -45q-28 -20 -43 -20q-36 0 -36 36q0 24 21 38l19 13l66 46q32 22 47 22q17 0 44 -31l34 -39q24 -28 24 -46q0 -39 -35 -39q-19 0 -44 27z" />
<glyph unicode="&#xfc;" horiz-adv-x="361" d="M192 37l-7 -4q-70 -40 -113 -40q-34 0 -55 20t-21 52q0 28 28 88l73 157q23 50 51 50q37 0 37 -35q0 -12 -13 -40l-69 -148q-17 -38 -17 -47q0 -15 15 -15q28 0 95 56l83 179q23 50 51 50q37 0 37 -35q0 -12 -13 -40l-78 -167q-10 -22 -10 -29q0 -15 16 -15q22 0 93 59 q24 20 39 20q33 0 33 -32q0 -23 -48 -62q-81 -66 -147 -66q-42 0 -60 44zM265 494q0 -25 -14.5 -41t-37.5 -16q-42 0 -42 42q0 23 15.5 39t37.5 16q41 0 41 -40zM448 494q0 -25 -14.5 -41t-37.5 -16q-42 0 -42 42q0 23 15.5 39t37.5 16q41 0 41 -40z" />
<glyph unicode="&#xff;" horiz-adv-x="353" d="M173 86l105 224q23 50 51 50q37 0 37 -35q0 -12 -13 -40l-95 -203q-8 -17 -8 -27q0 -8 12 -25q22 -31 22 -59q0 -68 -64 -100q-37 -18 -128 -18h-149q-32 0 -43 6q-16 9 -16 28q0 25 23 35q14 6 44 6h143q104 0 104 40q0 21 -19 28q-11 4 -42 4q-65 1 -88 13 q-43 23 -43 74q0 35 30 99l66 140q15 34 43 34q37 0 37 -35q0 -12 -13 -40l-62 -133q-16 -34 -16 -52q0 -26 33 -26q17 0 49 12zM253 494q0 -25 -14.5 -41t-37.5 -16q-42 0 -42 42q0 23 15.5 39t37.5 16q41 0 41 -40zM436 494q0 -25 -14.5 -41t-37.5 -16q-42 0 -42 42 q0 23 15.5 39t37.5 16q41 0 41 -40z" />
<glyph unicode="&#x131;" horiz-adv-x="180" d="M21 150l75 160q23 50 51 50q37 0 37 -35q0 -12 -13 -40l-76 -164q-10 -22 -10 -30q0 -16 15 -16q20 0 79 46q41 32 55 32q13 0 22 -9.5t9 -23.5q0 -39 -78 -85q-71 -42 -114 -42q-35 0 -55.5 20t-20.5 54q0 32 24 83z" />
<glyph unicode="&#x152;" d="M33 0v667h334v-667h-334zM40 7h320v653h-320v-653z" />
<glyph unicode="&#x153;" horiz-adv-x="498" d="M283 137q-3 -12 -3 -18q0 -47 55 -47q43 0 94 21q30 12 86 44q21 12 32 12q13 0 22.5 -9t9.5 -22q0 -38 -91.5 -81t-162.5 -43q-74 0 -101 54q-48 -55 -104 -55q-48 0 -77.5 34t-29.5 90q0 94 59.5 169t134.5 75q66 0 90 -55q56 54 118 54q36 0 58 -21t22 -56 q0 -57 -60 -98t-152 -48zM307 211q44 4 79.5 23.5t35.5 38.5q0 17 -17 17q-20 0 -49 -23.5t-49 -55.5zM99 116q0 -43 36 -43q33 0 67 68q27 53 27 98t-33 45q-40 0 -74 -78q-23 -53 -23 -90z" />
<glyph unicode="&#x178;" d="M33 0v667h334v-667h-334zM40 7h320v653h-320v-653z" />
<glyph unicode="&#x192;" horiz-adv-x="587" d="M313 279h86q57 0 57 -33q0 -26 -21 -35q-11 -5 -45 -5h-125l-8 -12l-9 -13l-51 -81q-61 -98 -97 -145q-69 -92 -155 -92q-41 0 -65.5 15t-24.5 41q0 37 38 37q11 0 20 -3l18 -4q4 -1 14 -1q31 0 66.5 37.5t103.5 144.5l24 38l25 38h-42q-30 0 -42 6q-15 10 -15 28 q0 24 22 34q11 5 44 5h81l14 22q97 152 167 229q85 93 175 93q45 0 73 -21.5t28 -56.5q0 -39 -34 -110q-21 -44 -45 -44q-16 0 -27.5 9.5t-11.5 22.5t7 28l12 25q15 31 15 47q0 22 -27 22q-61 0 -139 -109q-23 -32 -65 -94l-21 -31z" />
<glyph unicode="&#x2c6;" horiz-adv-x="389" d="M209 473l-63 -45q-28 -20 -43 -20q-36 0 -36 36q0 24 21 38l19 13l66 46q32 22 47 22q17 0 44 -31l34 -39q24 -28 24 -46q0 -39 -35 -39q-19 0 -44 27z" />
<glyph unicode="&#x2c7;" d="M33 0v667h334v-667h-334zM40 7h320v653h-320v-653z" />
<glyph unicode="&#x2d8;" d="M33 0v667h334v-667h-334zM40 7h320v653h-320v-653z" />
<glyph unicode="&#x2d9;" d="M33 0v667h334v-667h-334zM40 7h320v653h-320v-653z" />
<glyph unicode="&#x2da;" horiz-adv-x="268" d="M202 494q0 -32 -22 -54.5t-52 -22.5q-61 0 -61 59q0 33 21.5 56t52.5 23q27 0 44 -17.5t17 -43.5zM113 481q0 -20 18 -20q25 0 25 32q0 19 -18 19q-10 0 -17.5 -9.5t-7.5 -21.5z" />
<glyph unicode="&#x2db;" d="M33 0v667h334v-667h-334zM40 7h320v653h-320v-653z" />
<glyph unicode="&#x2dc;" horiz-adv-x="429" d="M159 473l-11 -28q-15 -38 -44 -38q-16 0 -27 10.5t-11 25.5q0 8 13 37l15 34q22 50 49 50q12 0 46 -20l80 -47l5 13q11 28 16 36q12 17 32 17q16 0 28 -11t12 -26t-10 -37l-17 -38q-20 -44 -47 -44q-18 0 -53 21z" />
<glyph unicode="&#x2dd;" d="M33 0v667h334v-667h-334zM40 7h320v653h-320v-653z" />
<glyph unicode="&#x3c0;" d="M33 0v667h334v-667h-334zM40 7h320v653h-320v-653z" />
<glyph unicode="&#x2013;" horiz-adv-x="615" d="M450 147h-293q-31 0 -41 6q-16 9 -16 28q0 24 22 34q11 5 44 5h292q57 0 57 -33q0 -25 -21 -35q-11 -5 -44 -5z" />
<glyph unicode="&#x2014;" horiz-adv-x="1200" d="M166 220h877q57 0 57 -33q0 -26 -21 -35q-11 -5 -45 -5h-877q-31 0 -41 6q-16 9 -16 28q0 24 22 34q11 5 44 5z" />
<glyph unicode="&#x2018;" horiz-adv-x="333" d="M233 588l12 27q20 45 46 45q34 0 34 -31q0 -11 -12 -36l-13 -27q-22 -45 -45 -45q-33 0 -33 32q0 10 11 35z" />
<glyph unicode="&#x2019;" horiz-adv-x="333" d="M233 588l12 27q20 45 46 45q34 0 34 -31q0 -11 -12 -36l-13 -27q-22 -45 -45 -45q-33 0 -33 32q0 10 11 35z" />
<glyph unicode="&#x201a;" horiz-adv-x="377" d="M151 227l-177 -381q-23 -49 -51 -49q-37 0 -37 35q0 11 13 39l234 503q23 49 51 49q37 0 37 -35q0 -11 -13 -39l-6 -13q37 24 70 24q41 0 65 -26.5t24 -71.5q0 -62 -53 -130q-32 -41 -61 -59q28 6 65 22l60 32q43 22 59 22q31 0 31 -32q0 -29 -60 -61q-118 -63 -251 -63 q-63 0 -63 34q0 12 7 19t35 24q61 36 103.5 88t42.5 90q0 33 -33 33q-45 0 -92 -54z" />
<glyph unicode="&#x201c;" horiz-adv-x="446" d="M233 588l12 27q20 45 46 45q34 0 34 -31q0 -11 -12 -36l-13 -27q-22 -45 -45 -45q-34 0 -34 32q0 8 12 35zM345 588l13 27q22 45 46 45q33 0 33 -31q0 -9 -12 -36l-12 -27q-20 -45 -46 -45q-34 0 -34 32q0 10 12 35z" />
<glyph unicode="&#x201d;" horiz-adv-x="446" d="M233 588l12 27q20 45 46 45q34 0 34 -31q0 -11 -12 -36l-13 -27q-22 -45 -45 -45q-34 0 -34 32q0 8 12 35zM345 588l13 27q22 45 46 45q33 0 33 -31q0 -9 -12 -36l-12 -27q-20 -45 -46 -45q-34 0 -34 32q0 10 12 35z" />
<glyph unicode="&#x201e;" horiz-adv-x="446" d="M104 19l13 27q22 45 46 45q33 0 33 -32q0 -9 -12 -36l-12 -27q-20 -44 -46 -44q-33 0 -33 31q0 13 11 36zM217 19l12 27q20 45 46 45q34 0 34 -32q0 -11 -12 -36l-13 -27q-21 -44 -45 -44q-34 0 -34 31q0 9 12 36z" />
<glyph unicode="&#x2020;" horiz-adv-x="351" d="M145 23q-40 -30 -75 -30q-33 0 -53.5 20t-20.5 52q0 28 28 88l73 157q23 50 51 50q37 0 37 -35q0 -12 -13 -40l-69 -148q-17 -38 -17 -47q0 -15 14 -15q28 0 96 56l83 179q23 50 51 50q37 0 37 -35q0 -12 -13 -40l-205 -439q-23 -49 -50 -49q-37 0 -37 35q0 13 12 39z " />
<glyph unicode="&#x2021;" horiz-adv-x="365" d="M69 73h352q57 0 57 -33q0 -24 -22 -35q-10 -5 -44 -5h-386q-38 0 -52 9q-21 13 -21 39q0 38 89 105l116 88q29 22 49 39h-84q-30 0 -42 6q-15 10 -15 28q0 24 22 34q11 5 44 5h111q71 0 71 -47q0 -52 -105 -129l-88 -64q-30 -22 -52 -40z" />
<glyph unicode="&#x2022;" horiz-adv-x="353" d="M201 421q39 0 66.5 -27.5t27.5 -66.5t-27.5 -67t-66.5 -28q-40 0 -67.5 28t-27.5 67t27.5 66.5t67.5 27.5z" />
<glyph unicode="&#x2026;" horiz-adv-x="1000" d="M199 51q0 -26 -14.5 -42t-36.5 -16q-43 0 -43 43q0 23 15.5 38.5t38.5 15.5q40 0 40 -39zM533 51q0 -26 -14.5 -42t-37.5 -16q-42 0 -42 43q0 23 15 38.5t38 15.5q41 0 41 -39zM866 51q0 -26 -14.5 -42t-37.5 -16q-42 0 -42 43q0 23 15 38.5t38 15.5q41 0 41 -39z" />
<glyph unicode="&#x2030;" horiz-adv-x="795" d="M510 116q7 3 19 3q13 0 24 -5q2 51 42.5 92t89.5 41q38 0 62.5 -25.5t24.5 -66.5q0 -65 -40.5 -113.5t-94.5 -48.5q-32 0 -61 27q-35 32 -57 32q-26 0 -58 -25l-19 -15q-24 -19 -59 -19q-30 0 -72 30t-79 30q-24 0 -55 -16q-5 -3 -42 -27q-26 -17 -43 -17 q-16 0 -27.5 11.5t-11.5 27.5q0 20 36 63l260 312q38 45 54 56q-34 -17 -67 -17q-24 0 -44 9q2 -6 2 -14q0 -50 -41 -94t-88 -44q-41 0 -65.5 27t-24.5 71q0 62 40.5 109t93.5 47q25 0 60 -17q43 -21 68 -21q32 0 110 27q32 11 44 11q17 0 29.5 -11.5t12.5 -26.5 q0 -18 -32 -56l-228 -273q-5 -6 -23 -27q-22 -25 -43 -45q24 10 47 10q21 0 42 -14q2 51 43 92t90 41q39 0 62.5 -25.5t23.5 -68.5q0 -20 -5 -37zM446 149q0 28 -25 28q-20 0 -39.5 -27t-19.5 -55q0 -30 26 -30q21 0 39.5 27t18.5 57zM145 405q0 -29 25 -29q19 0 38 26 t19 53q0 30 -24 30q-20 0 -39 -26.5t-19 -53.5zM703 149q0 28 -25 28q-20 0 -39.5 -27t-19.5 -55q0 -30 26 -30q20 0 39 27t19 57z" />
<glyph unicode="&#x2039;" horiz-adv-x="312" d="M207 182l8 -59q5 -37 5 -42q0 -34 -35 -34q-34 0 -41 44l-13 78q-3 17 -3 22q0 16 21 43l37 47q31 39 51 39q14 0 25 -10t11 -23q0 -10 -13 -30l-12 -18z" />
<glyph unicode="&#x203a;" horiz-adv-x="312" d="M191 203l-6 51q-4 16 -4 34q0 32 35 32q33 0 39 -37l3 -20l5 -30q0 1 2 -17q0 -1 1 -5v-6q1 -5 1 -12q0 -14 -24 -46l-41 -54l-13 -20q-21 -26 -41 -26q-15 0 -26 10t-11 23q0 11 14 31l14 20z" />
<glyph unicode="&#x2044;" d="M33 0v667h334v-667h-334zM40 7h320v653h-320v-653z" />
<glyph unicode="&#x2122;" horiz-adv-x="363" d="M145 224l-84 -181q-23 -50 -51 -50q-37 0 -37 36q0 11 13 39l113 242q23 50 51 50q37 0 37 -34v-3q39 37 89 37q30 0 48.5 -17.5t18.5 -46.5q0 -38 -27 -91l-42 -83q-9 -18 -9 -29q0 -19 31 -19l11 -1h112q57 0 57 -33q0 -25 -21 -35q-10 -5 -44 -5h-120q-63 0 -84 12 q-31 17 -31 61q0 30 40 110l14 28q22 44 22 53q0 14 -14 14q-34 0 -93 -54z" />
<glyph unicode="&#x2126;" d="M33 0v667h334v-667h-334zM40 7h320v653h-320v-653z" />
<glyph unicode="&#x2202;" d="M33 0v667h334v-667h-334zM40 7h320v653h-320v-653z" />
<glyph unicode="&#x2206;" d="M33 0v667h334v-667h-334zM40 7h320v653h-320v-653z" />
<glyph unicode="&#x220f;" d="M33 0v667h334v-667h-334zM40 7h320v653h-320v-653z" />
<glyph unicode="&#x2211;" d="M33 0v667h334v-667h-334zM40 7h320v653h-320v-653z" />
<glyph unicode="&#x221a;" d="M33 0v667h334v-667h-334zM40 7h320v653h-320v-653z" />
<glyph unicode="&#x221e;" d="M33 0v667h334v-667h-334zM40 7h320v653h-320v-653z" />
<glyph unicode="&#x222b;" d="M33 0v667h334v-667h-334zM40 7h320v653h-320v-653z" />
<glyph unicode="&#x2248;" d="M33 0v667h334v-667h-334zM40 7h320v653h-320v-653z" />
<glyph unicode="&#x2260;" d="M33 0v667h334v-667h-334zM40 7h320v653h-320v-653z" />
<glyph unicode="&#x2264;" d="M33 0v667h334v-667h-334zM40 7h320v653h-320v-653z" />
<glyph unicode="&#x2265;" d="M33 0v667h334v-667h-334zM40 7h320v653h-320v-653z" />
<glyph unicode="&#x25ca;" d="M33 0v667h334v-667h-334zM40 7h320v653h-320v-653z" />
<glyph unicode="&#x25fc;" horiz-adv-x="360" d="M0 360h360v-360h-360v360z" />
<glyph unicode="&#xf000;" d="M33 0v667h334v-667h-334zM40 7h320v653h-320v-653z" />
<glyph unicode="&#xf001;" d="M33 0v667h334v-667h-334zM40 7h320v653h-320v-653z" />
<glyph unicode="&#xf002;" d="M33 0v667h334v-667h-334zM40 7h320v653h-320v-653z" />
<glyph horiz-adv-x="280" />
</font>
</defs>
</svg>
